<svg width="50" height="50" viewBox="0 0 50 50" fill="none" xmlns="http://www.w3.org/2000/svg">
<path d="M24.9588 47.5C25.3113 47.5 25.5959 47.1982 25.5959 46.8243V37.3593C30.1832 41.5985 37.6461 38.6793 38.5806 32.3183C46.7528 27.052 44.782 13.857 35.5054 11.5144C33.0461 -0.50931 16.9564 -0.5003 14.5013 11.5144C5.212 13.8615 3.24964 27.0565 11.4219 32.3183C12.3521 38.6297 19.7216 41.5715 24.3216 37.4269V46.8243C24.3216 47.1982 24.6062 47.5 24.9588 47.5ZM19.2671 38.0081C15.9115 38.0081 13.0614 35.3456 12.6409 31.8137C12.6154 31.602 12.4965 31.4173 12.3224 31.3092C4.72353 26.7186 6.5882 14.5463 15.1682 12.7488C15.4316 12.6947 15.6312 12.474 15.6737 12.1947C17.5511 1.07643 32.4472 1.07193 34.3246 12.1947C34.367 12.474 34.5709 12.6947 34.83 12.7488C39.2602 13.6588 42.4756 17.7988 42.4756 22.5876C42.4756 26.1916 40.6364 29.5342 37.6759 31.3137C37.5017 31.4173 37.3828 31.6065 37.3573 31.8182C36.6395 37.918 29.2658 40.2065 25.5916 35.4357V27.0655L31.2409 21.1956C31.827 20.5649 30.9563 19.6188 30.3489 20.2315L25.5916 25.1734V18.7043C25.5789 17.8168 24.3301 17.8168 24.3174 18.7043V29.336L18.3921 24.2094C17.7337 23.6598 16.9479 24.6824 17.585 25.2545L24.3131 31.0794V35.5393C23.0389 37.1071 21.2167 38.0126 19.2586 38.0126L19.2671 38.0081Z" fill="currentColor"/>
</svg>
