<svg width="50" height="50" viewBox="0 0 50 50" fill="none" xmlns="http://www.w3.org/2000/svg">
<path d="M2.93078 17.0722L9.82965 10.1733C10.4043 9.59889 11.3355 9.59889 11.9099 10.1733C12.4843 10.7478 12.4843 11.6791 11.9099 12.2534L7.59547 16.5678V33.1304C7.59547 34.5687 8.76551 35.739 10.2038 35.739C11.6422 35.739 12.8124 34.5687 12.8124 33.1304V29.0792C12.8124 26.5281 14.5432 24.3747 16.8919 23.7283V14.8774V12.2039C16.8919 9.17371 19.3571 6.7085 22.3873 6.7085H32.4343C35.4645 6.7085 37.9298 9.17371 37.9298 12.2039V14.8776V24.8426V40.3497H39.8521C40.6646 40.3497 41.323 41.0083 41.323 41.8206C41.323 42.6329 40.6646 43.2915 39.8521 43.2915H14.9697C14.1572 43.2915 13.4988 42.6329 13.4988 41.8206C13.4988 41.0083 14.1572 40.3497 14.9697 40.3497H16.8919V26.9272C16.2057 27.3975 15.7542 28.1864 15.7542 29.0796V33.1308C15.7542 36.1912 13.2645 38.6812 10.2038 38.6812C7.14342 38.6812 4.65369 36.1912 4.65369 33.1308V19.4154C4.44051 19.5272 4.20575 19.5831 3.971 19.5831C3.59464 19.5831 3.2181 19.4395 2.93078 19.1522C2.35635 18.578 2.35635 17.6466 2.93078 17.0722ZM34.988 16.3483H19.8335V23.3715H34.988V16.3483ZM32.4343 9.65008H22.3873C20.9792 9.65008 19.8337 10.7956 19.8337 12.2037V13.4065H34.988V12.2037C34.988 10.7956 33.8422 9.65008 32.4343 9.65008ZM34.988 40.3495V26.3133H19.8335V40.3495H34.988Z" fill="currentColor"/>
<path d="M40.3391 29.1666C40.3391 29.1301 40.3403 29.094 40.343 29.0583L40.3432 20.7366C40.3432 20.1416 40.7015 19.6052 41.2513 19.3777C41.8008 19.15 42.4335 19.2759 42.8543 19.6966L47.0693 23.9114C47.3451 24.1873 47.5 24.5613 47.5 24.9516C47.5 25.3417 47.3451 25.7159 47.0691 25.9916L42.8539 30.2066C42.5725 30.488 42.1964 30.6375 41.8135 30.6375C41.8075 30.6375 41.8012 30.6375 41.7951 30.6373C40.9896 30.6292 40.3391 29.974 40.3391 29.1666Z" fill="currentColor"/>
</svg>
