<svg width="50" height="50" viewBox="0 0 50 50" fill="none" xmlns="http://www.w3.org/2000/svg">
<path d="M47.686 20.614C47.1654 18.5654 46.0552 17.4911 46.0082 17.4464L45.9508 17.3917L37.6371 12.5918L39.6049 9.18345L31.3949 4.44342L29.4271 7.85177L21.1134 3.05183L21.0373 3.02944C20.9751 3.01104 19.4897 2.58671 17.4552 3.16026C15.6273 3.67558 12.9627 5.13135 10.6484 9.13986L10.1182 10.0582L20.049 10.791L26.398 14.4566L10.9831 41.1561L18.0168 45.217L33.4317 18.5176L39.7807 22.1832L45.3807 30.4171L45.9109 29.4988C48.2253 25.4902 48.1536 22.4547 47.686 20.614ZM17.5296 43.3989L12.8011 40.669L13.7756 38.9812L18.504 41.7111L17.5296 43.3989ZM19.1695 40.5586L14.441 37.8286L25.925 17.9377C27.6069 18.9009 29.6919 20.0985 30.6573 20.661L19.1695 40.5586ZM31.3227 19.5086C31.2168 19.4469 27.1527 17.1072 26.5905 16.7852L27.5506 15.1222L32.279 17.8521L31.3227 19.5086ZM40.71 21.1829L20.4506 9.48613L12.3668 8.8896C13.8991 6.5739 15.7411 5.05232 17.7376 4.46403C19.2031 4.03214 20.3245 4.23025 20.5973 4.29077L29.9143 9.6699L31.8821 6.26155L37.7867 9.67061L35.8189 13.079L45.1374 18.4589C45.5291 18.8821 48.1775 22.0681 45.2689 27.8859L40.71 21.1829Z" fill="currentColor"/>
<path d="M35.2974 11.2405L31.7688 9.20325L31.1033 10.3559L34.6319 12.3931L35.2974 11.2405Z" fill="currentColor"/>
<path d="M35.1035 8.8573L33.9272 8.17816L33.2618 9.33081L34.4381 10.0099L35.1035 8.8573Z" fill="currentColor"/>
<path d="M20.4576 5.70285C19.7805 5.31193 18.7026 5.39994 17.162 5.97194C16.1334 6.35386 15.2669 6.81553 15.2305 6.83514L15.8586 8.00857C17.6723 7.03797 19.3874 6.62183 19.7923 6.85558L23.909 9.23236L24.5744 8.07971L20.4576 5.70285Z" fill="currentColor"/>
<path d="M26.9277 9.4385L25.7515 8.7594L25.086 9.91204L26.2622 10.5911L26.9277 9.4385Z" fill="currentColor"/>
<path d="M27.0412 20.1079L25.865 19.4288L25.1995 20.5814L26.3757 21.2605L27.0412 20.1079Z" fill="currentColor"/>
<path d="M29.3937 21.4657L28.2175 20.7867L27.552 21.9393L28.7282 22.6184L29.3937 21.4657Z" fill="currentColor"/>
</svg>
