<svg width="50" height="50" viewBox="0 0 50 50" fill="none" xmlns="http://www.w3.org/2000/svg">
<path d="M27.9032 27.1813C29.5044 27.1813 30.8065 25.8792 30.8065 24.2781C30.8065 22.677 29.5044 21.3749 27.9032 21.3749C26.3021 21.3749 25 22.677 25 24.2781C25 25.8792 26.3021 27.1813 27.9032 27.1813ZM27.9032 22.8265C28.7038 22.8265 29.3548 23.4775 29.3548 24.2781C29.3548 25.0787 28.7038 25.7297 27.9032 25.7297C27.1027 25.7297 26.4516 25.0787 26.4516 24.2781C26.4516 23.4775 27.1027 22.8265 27.9032 22.8265Z" fill="currentColor"/>
<path d="M36.4583 20.893C36.3654 20.7232 36.2747 20.5519 36.1745 20.3864C38.3839 14.1757 38.9551 8.80397 36.3124 7.24929C34.6692 6.28397 32.2806 7.1005 29.3548 9.60671V3.95558H30.8065V2.50397H19.1935V3.95558H20.6452V9.60889C17.718 7.09977 15.3279 6.28252 13.6854 7.24929C12.0008 8.23929 11.5232 10.9124 12.3042 14.9791L13.7304 14.7055C13.104 11.443 13.3617 9.12332 14.4214 8.50058C15.5812 7.8176 17.8987 8.96437 20.6452 11.5657V14.8608C18.3175 15.6803 16.3404 17.1043 14.859 18.9232C14.5419 17.9571 14.2617 17.0157 14.041 16.1201L12.6323 16.4678C12.9371 17.7074 13.345 19.0248 13.8262 20.3857C13.726 20.5511 13.6353 20.7224 13.5424 20.8923C6.52242 22.1777 2.5 24.4603 2.5 27.1814C2.5 30.2029 7.26419 32.331 13.5555 33.4712C13.6426 33.6287 13.742 33.7768 13.8349 33.9299C11.3592 40.9049 11.2975 45.7011 13.6854 47.1048C14.1289 47.3653 14.6319 47.496 15.1885 47.496C15.5427 47.496 15.9202 47.443 16.3172 47.3363C18.6949 46.6991 21.7919 44.0905 24.9572 40.243C24.9717 40.2437 24.9855 40.2459 25 40.2459C25.0138 40.2459 25.0269 40.2437 25.0406 40.2437C28.2066 44.0912 31.3029 46.6998 33.6806 47.3363C34.0777 47.4423 34.4544 47.496 34.8093 47.496C35.3667 47.496 35.869 47.3653 36.3124 47.1048C38.6989 45.7003 38.6386 40.9049 36.1636 33.9328C36.258 33.7782 36.3581 33.628 36.446 33.469C37.8736 33.207 39.2229 32.9007 40.4473 32.5407L40.038 31.1486C39.1511 31.4092 38.1915 31.64 37.1892 31.8476C37.7459 30.396 38.0645 28.8268 38.0645 27.1814C38.0645 25.5447 37.759 23.9719 37.2066 22.5152C43.299 23.7737 46.0484 25.7247 46.0484 27.1814C46.0484 28.3652 44.3718 29.6448 41.449 30.6907L41.9381 32.0574C45.5773 30.7545 47.5 29.0692 47.5 27.1814C47.5 24.4603 43.4776 22.1777 36.4583 20.893ZM29.3548 11.5642C32.0991 8.96582 34.4166 7.81615 35.5765 8.50131C37.0832 9.38679 36.9802 13.3664 35.1475 18.9319C33.6654 17.1101 31.6861 15.6824 29.3548 14.8615V11.5642ZM21.5844 16.0809L22.0968 15.9234V3.95558H27.9032V15.9234L28.4156 16.0809C29.6502 16.4605 30.7825 17.0281 31.7863 17.7459H18.2137C19.2175 17.0281 20.3498 16.4605 21.5844 16.0809ZM23.4148 19.1975C23.1144 20.0402 22.316 20.6491 21.371 20.6491C20.426 20.6491 19.6276 20.0402 19.3271 19.1975H23.4148ZM16.5589 19.1975H17.816C18.1535 20.8516 19.6189 22.1007 21.3717 22.1007C23.1245 22.1007 24.5899 20.8516 24.9274 19.1975H33.4411C33.8527 19.6315 34.2286 20.0961 34.5676 20.5882C33.4941 23.487 31.9953 26.7386 30.0538 30.1615C29.5211 31.1007 28.9731 32.0124 28.4178 32.9C27.2965 32.9537 26.1577 32.9878 25 32.9878C23.8264 32.9878 22.6861 32.9603 21.5836 32.908C21.1866 32.2736 20.7954 31.6233 20.4093 30.9621C21.4203 30.3176 22.0968 29.1926 22.0968 27.9072C22.0968 25.9061 20.4688 24.2782 18.4677 24.2782C17.9756 24.2782 17.5068 24.3783 17.0778 24.5569C16.4602 23.2011 15.9151 21.8714 15.4375 20.5795C15.775 20.091 16.1495 19.6294 16.5589 19.1975ZM17.702 25.8757C17.9415 25.7857 18.1977 25.7298 18.4677 25.7298C19.6682 25.7298 20.6452 26.7067 20.6452 27.9072C20.6452 28.654 20.267 29.3131 19.6922 29.7057C18.9787 28.4254 18.3139 27.1451 17.702 25.8757ZM18.2319 30.0607C17.1431 29.9409 16.2903 29.0271 16.2903 27.9072C16.2903 27.529 16.3963 27.1778 16.5669 26.8671C17.0858 27.9275 17.6447 28.9945 18.2319 30.0607ZM3.95161 27.1814C3.95161 25.7247 6.70097 23.7737 12.7934 22.5152C12.241 23.9719 11.9355 25.5447 11.9355 27.1814C11.9355 28.8311 12.2556 30.4047 12.8159 31.8592C7.29976 30.7204 3.95161 28.8907 3.95161 27.1814ZM13.3871 27.1814C13.3871 25.4082 13.7885 23.72 14.5048 22.2009C14.9178 23.2468 15.3671 24.3101 15.8643 25.3894C15.2321 26.0426 14.8387 26.9288 14.8387 27.9072C14.8387 29.9082 16.4667 31.5362 18.4677 31.5362C18.6608 31.5362 18.8459 31.5086 19.031 31.4796C19.2894 31.9253 19.5485 32.3665 19.8119 32.8006C17.9169 32.6612 16.1488 32.4493 14.5339 32.1793C13.8066 30.6631 13.3871 28.972 13.3871 27.1814ZM15.9419 45.9348C15.3119 46.1024 14.8002 46.0756 14.4214 45.8535C13.128 45.0936 12.8173 41.5836 14.8612 35.4048C16.8964 37.9095 19.8402 39.637 23.184 40.1051C20.4702 43.2711 17.882 45.4151 15.9419 45.9348ZM15.4542 33.7782C17.1584 34.0243 18.9424 34.2028 20.7526 34.311C21.7665 35.8947 22.8044 37.3753 23.8438 38.7355C20.3701 38.3907 17.3456 36.5065 15.4542 33.7782ZM24.9985 37.8558C24.1748 36.7765 23.3517 35.6218 22.5402 34.3952C23.3604 34.4235 24.182 34.4395 25 34.4395C25.8274 34.4395 26.6454 34.422 27.4569 34.3952C26.6454 35.6211 25.8223 36.7765 24.9985 37.8558ZM29.2409 34.3161C31.0852 34.2079 32.859 34.0236 34.5444 33.7797C32.6529 36.5073 29.6277 38.3915 26.1533 38.7355C27.1919 37.3768 28.2277 35.8976 29.2409 34.3161ZM35.5765 45.8535C35.1983 46.0763 34.6859 46.1024 34.0559 45.9348C32.1158 45.4151 29.5276 43.2711 26.8138 40.1051C30.1576 39.637 33.1015 37.911 35.1366 35.407C37.179 41.5843 36.8691 45.0928 35.5765 45.8535ZM35.4719 32.1684C33.8127 32.4464 32.0403 32.6547 30.191 32.7919C30.5713 32.1655 30.948 31.5297 31.3174 30.8779C32.9185 28.0553 34.3571 25.0707 35.4937 22.198C36.2115 23.7178 36.6129 25.4075 36.6129 27.1814C36.6129 28.9676 36.1956 30.6551 35.4719 32.1684Z" fill="currentColor"/>
</svg>
