<svg width="50" height="50" viewBox="0 0 50 50" fill="none" xmlns="http://www.w3.org/2000/svg">
<path d="M47.3916 17.2367L42.6761 9.29631C42.6738 9.29247 42.6692 9.29016 42.6669 9.28632C42.6146 9.20184 42.5455 9.13042 42.4641 9.07128C42.4511 9.0613 42.4388 9.05208 42.4249 9.04286C42.4111 9.03365 42.3996 9.02213 42.3842 9.01368L34.1604 4.52008C33.8809 4.36725 33.5353 4.40335 33.2918 4.61148L6.97767 27.2016C6.97229 27.2062 6.96845 27.2131 6.96308 27.2177C6.95309 27.2269 6.94541 27.2377 6.9362 27.2477C6.8786 27.306 6.83252 27.3721 6.79642 27.4435C6.79104 27.4535 6.78183 27.4596 6.77722 27.4696L2.56778 36.8585C2.40113 37.2286 2.55165 37.6641 2.91108 37.8523L17.4502 45.4862C17.4617 45.4924 17.4748 45.4947 17.4871 45.5001C17.497 45.5047 17.5047 45.5124 17.5155 45.517C17.5262 45.5216 17.5377 45.5193 17.5485 45.5231C17.633 45.5531 17.719 45.5738 17.8073 45.5738C17.8926 45.5738 17.977 45.5546 18.0584 45.5262C18.083 45.5177 18.1045 45.5062 18.1283 45.4947C18.1575 45.4809 18.189 45.4724 18.2167 45.4555C18.2474 45.4363 18.2712 45.4102 18.2988 45.3872C18.3096 45.378 18.3226 45.3749 18.3334 45.3657L47.258 18.1883C47.5199 17.9417 47.5767 17.5462 47.3916 17.2367ZM33.8893 6.12214L40.6992 9.84389L17.176 31.1153L8.91304 27.5648L33.8893 6.12214ZM4.26431 36.8285L7.86932 28.789L16.5762 32.5308L16.9894 43.5102L4.26431 36.8285ZM18.5116 43.0908L18.1068 32.3449L30.8142 20.854L41.8367 10.8868L45.7573 17.4902L18.5116 43.0908Z" fill="currentColor"/>
</svg>
