<svg width="50" height="50" viewBox="0 0 50 50" fill="none" xmlns="http://www.w3.org/2000/svg">
<path d="M46.6 45.1375H41.83V21.1075L45.7 23.8075C45.97 23.9875 46.33 23.9875 46.6 23.8975C46.87 23.7175 47.05 23.4475 47.05 23.0875V18.6775C47.05 18.4075 46.87 18.1375 46.69 17.9575L25.27 3.1975C25 3.0175 24.55 3.0175 24.28 3.1975L2.86 18.1375C2.68 18.3175 2.5 18.5875 2.5 18.8575V23.7175C2.5 24.0775 2.68 24.3475 2.95 24.5275C3.04 24.6175 3.22 24.6175 3.4 24.6175C3.58 24.6175 3.76 24.5275 3.94 24.4375L8.17 21.3775V45.1375H3.4C2.86 45.1375 2.5 45.4975 2.5 46.0375C2.5 46.5775 2.86 46.9375 3.4 46.9375H9.07H40.93H46.6C47.14 46.9375 47.5 46.5775 47.5 46.0375C47.5 45.4975 47.14 45.1375 46.6 45.1375ZM4.3 19.3075L24.82 4.9975L45.34 19.1275V21.3775L25.54 7.6075C25.27 7.4275 24.82 7.4275 24.55 7.6075L4.3 21.9175V19.3075ZM9.97 45.1375V20.1175L25 9.4975L40.03 19.9375V45.1375H9.97Z" fill="currentColor"/>
<path d="M35.62 26.2375C33.1 25.6975 28.24 25.8775 25.99 30.1075C22.39 23.9875 14.29 25.6975 14.2 25.7875C13.84 25.8775 13.48 26.2375 13.48 26.5975C13.3 31.7275 14.65 35.4175 17.35 37.6675C19.51 39.3775 22.12 39.8275 24.1 39.8275C25.72 39.8275 26.89 39.5575 26.98 39.5575H27.07H27.16C27.25 39.5575 27.34 39.4675 27.43 39.3775C27.61 39.1975 27.7 39.0175 27.7 38.8375C27.7 38.4775 27.7 38.1175 27.7 37.8475C27.7 37.8475 27.7 37.8475 27.79 37.8475C29.5 37.8475 31.84 37.4875 33.64 35.7775C35.53 33.9775 36.43 31.0975 36.34 27.3175C36.34 26.6875 36.07 26.3275 35.62 26.2375ZM18.52 36.2275C16.36 34.5175 15.28 31.5475 15.28 27.4075C17.35 27.1375 23.2 26.8675 25.18 32.7175C25.45 33.5275 25.72 34.5175 25.81 35.5975C25.81 35.8675 25.9 36.1375 25.9 36.4075L18.88 29.6575C18.52 29.2975 17.98 29.2975 17.62 29.6575C17.26 30.0175 17.26 30.5575 17.62 30.9175L24.82 37.8475C23.2 38.0275 20.59 37.8475 18.52 36.2275ZM32.38 34.2475C30.94 35.5975 29.05 35.8675 27.7 35.8675L33.01 30.7375C33.37 30.3775 33.37 29.8375 33.01 29.4775C32.65 29.1175 32.11 29.1175 31.75 29.4775L27.34 33.7075C27.25 33.2575 27.16 32.8075 26.98 32.3575C28.33 27.6775 32.74 27.6775 34.54 27.8575C34.54 30.8275 33.82 32.8975 32.38 34.2475Z" fill="currentColor"/>
</svg>
