<svg width="50" height="50" viewBox="0 0 50 50" fill="none" xmlns="http://www.w3.org/2000/svg">
<path d="M38.541 46.0849H27.264L26.596 22.2651C26.7542 22.1597 26.9036 22.0366 27.0354 21.9048L28.3627 22.6695L28.1869 22.9771C28.0023 23.2935 28.099 23.7066 28.4066 23.9088L35.4558 28.6288C35.8162 28.8661 36.2293 28.9892 36.6512 28.9892C36.827 28.9892 37.0028 28.9716 37.1698 28.9276C37.8202 28.7782 38.374 28.3651 38.708 27.785C39.042 27.2137 39.1211 26.5193 38.9277 25.8777C38.7431 25.28 38.3476 24.8053 37.8027 24.5416L30.1909 20.8149C29.8569 20.6479 29.4614 20.7709 29.268 21.0961L29.0658 21.4565L27.7562 20.7006C27.8353 20.4457 27.8704 20.1732 27.8704 19.892C27.8704 18.5647 26.9651 17.4485 25.7434 17.1232V15.5939H26.095C26.4641 15.5939 26.7717 15.3038 26.7981 14.9346L27.3694 6.47029C27.4134 5.86381 27.1936 5.2837 26.7718 4.82664C26.3147 4.34322 25.6731 4.06195 25.0138 4.06195C24.3546 4.06195 23.713 4.34322 23.2559 4.82664C22.834 5.2837 22.6143 5.86381 22.6582 6.47029L23.2296 14.9346C23.2559 15.3038 23.5636 15.5939 23.9327 15.5939H24.3458V17.1057C23.0889 17.4133 22.1572 18.5384 22.1572 19.8832C22.1572 20.1469 22.1924 20.393 22.2539 20.6303L20.9267 21.395L20.7509 21.0873C20.5663 20.7709 20.162 20.6479 19.828 20.8061L12.2162 24.5504C11.6713 24.8141 11.2757 25.2888 11.0912 25.8865C10.8978 26.5193 10.9769 27.2137 11.3109 27.7938C11.6449 28.3651 12.2074 28.787 12.8491 28.9364C13.0249 28.9804 13.2007 28.998 13.3677 28.998C13.7983 28.998 14.2115 28.8749 14.563 28.6376L21.6123 23.9176C21.9199 23.7154 22.0166 23.3023 21.832 22.9859L21.6299 22.6255L22.9395 21.8696C23.0889 22.019 23.2471 22.1597 23.4229 22.2739L22.7549 46.0937H11.4691C11.0824 46.0937 10.7659 46.4101 10.7659 46.7968C10.7659 47.1836 11.0824 47.5 11.4691 47.5H38.541C38.9277 47.5 39.2442 47.1836 39.2442 46.7968C39.2442 46.4101 38.9277 46.0849 38.541 46.0849ZM37.1786 25.8161C37.4335 25.9392 37.539 26.1765 37.5741 26.2996C37.6532 26.5632 37.6181 26.8533 37.4862 27.0906C37.3544 27.3279 37.1083 27.5037 36.8446 27.5653C36.7128 27.5916 36.4579 27.6268 36.2293 27.4686L29.725 23.1089L30.1557 22.3618L37.1786 25.8161ZM24.2755 5.7847C24.4601 5.58254 24.7326 5.46828 25.005 5.46828C25.2775 5.46828 25.55 5.59133 25.7346 5.7847C25.8225 5.88139 25.9719 6.08355 25.9543 6.37361L25.4269 14.1787H24.5656L24.0382 6.37361C24.0294 6.09234 24.1876 5.89018 24.2755 5.7847ZM13.7808 27.4686C13.5434 27.6268 13.2886 27.6004 13.1655 27.5653C12.9018 27.5037 12.6645 27.3279 12.5239 27.0906C12.3832 26.8533 12.3569 26.5632 12.436 26.2996C12.4711 26.1677 12.5766 25.9392 12.8315 25.8161L19.8544 22.3618L20.0565 22.7134L20.285 23.1089L13.7808 27.4686ZM25.005 18.4329C25.8049 18.4329 26.4641 19.0833 26.4641 19.892C26.4641 20.7006 25.8137 21.351 25.005 21.351C24.1964 21.351 23.546 20.7006 23.546 19.892C23.546 19.0833 24.2052 18.4329 25.005 18.4329ZM24.8117 22.7398C24.8732 22.7398 24.9435 22.7486 25.005 22.7486C25.0666 22.7486 25.1369 22.7486 25.1984 22.7398L25.8488 46.0849H24.1525L24.8117 22.7398ZM43.3489 27.785C41.6437 31.7667 38.7519 35.01 34.99 37.181C34.8757 37.2426 34.7615 37.2777 34.6384 37.2777C34.3923 37.2777 34.155 37.1547 34.0319 36.9261C33.8386 36.5921 33.9528 36.1615 34.2868 35.9681C41.3624 31.8809 44.9134 23.7945 43.1291 15.8312C43.0412 15.4532 43.2786 15.0753 43.6653 14.9874C44.0433 14.8995 44.4212 15.1368 44.5091 15.5235C45.4056 19.5843 45.0013 23.9352 43.3489 27.785ZM6.88095 23.944C6.96885 24.3219 6.73153 24.6999 6.34479 24.7878C6.29205 24.7965 6.23932 24.8053 6.18658 24.8053C5.86136 24.8053 5.57131 24.5856 5.50099 24.2516C4.58688 20.1908 4.99999 15.8312 6.65242 11.9901C8.36639 8.00847 11.2582 4.76511 15.0201 2.59409C15.3541 2.40072 15.7848 2.51499 15.9782 2.84899C16.1715 3.18299 16.0573 3.61368 15.7233 3.80705C8.64766 7.8942 5.09667 15.9806 6.88095 23.944Z" fill="currentColor"/>
</svg>
