<svg width="50" height="50" viewBox="0 0 50 50" fill="none" xmlns="http://www.w3.org/2000/svg">
<path d="M28.7252 17.3994C28.5707 10.7022 24.0165 4.82268 17.5435 3.02707L15.6439 2.5L16.6254 4.20954C17.8051 6.26476 18.4288 8.61279 18.4288 10.9988C18.4288 14.8343 15.8391 18.5967 13.7581 21.6195C13.4262 22.1016 13.1098 22.5615 12.853 22.9518C10.8042 25.6329 9.72119 28.8382 9.72119 32.2213C9.72119 40.6461 16.5751 47.5 24.9999 47.5C29.0815 47.5 32.9182 45.9105 35.8037 43.0248C38.6894 40.1391 40.2789 36.3024 40.2789 32.2211C40.2787 25.2167 35.4588 19.0874 28.7252 17.3994ZM34.6595 41.8807C32.0796 44.4606 28.6491 45.8816 25.0001 45.8816C17.4679 45.8816 11.3395 39.7535 11.3395 32.2211C11.3395 29.1962 12.3076 26.3307 14.1702 23.8903C14.4534 23.4629 14.7649 23.0109 15.0907 22.5371C17.1827 19.4985 20.0472 15.3375 20.0472 10.9986C20.0472 9.01291 19.6608 7.05084 18.9188 5.2287C23.8237 7.37451 27.111 12.2811 27.111 17.751L27.0976 18.7036L27.755 18.8378C34.0741 20.1313 38.6605 25.7597 38.6605 32.2209C38.6605 35.8699 37.2395 39.3004 34.6595 41.8807Z" fill="currentColor"/>
<path d="M24.9998 29.6988C20.9845 29.6988 17.7175 32.9658 17.7175 36.9811C17.7175 40.9964 20.9845 44.2634 24.9998 44.2634C29.0151 44.2634 32.2821 40.9964 32.2821 36.9811C32.2821 32.9658 29.0151 29.6988 24.9998 29.6988ZM24.9998 42.645C21.8767 42.645 19.3359 40.1042 19.3359 36.9811C19.3359 33.858 21.8767 31.3171 24.9998 31.3171C28.1229 31.3171 30.6638 33.858 30.6638 36.9811C30.6638 40.1042 28.1231 42.645 24.9998 42.645Z" fill="currentColor"/>
</svg>
