<svg width="50" height="50" viewBox="0 0 50 50" fill="none" xmlns="http://www.w3.org/2000/svg">
<path d="M24.9998 6.04352C23.1688 6.04352 21.6792 7.53309 21.6792 9.36412C21.6792 11.1951 23.1688 12.6846 24.9998 12.6846C26.8308 12.6846 28.3204 11.195 28.3204 9.36412C28.3205 7.53309 26.8308 6.04352 24.9998 6.04352ZM24.9998 11.3593C23.8996 11.3593 23.0044 10.4642 23.0044 9.36403C23.0044 8.26381 23.8995 7.36865 24.9998 7.36865C26.1001 7.36865 26.9952 8.26373 26.9952 9.36403C26.9952 10.4643 26.1001 11.3593 24.9998 11.3593Z" fill="currentColor"/>
<path d="M25 2.5C24.6339 2.5 24.3374 2.79672 24.3374 3.16261V4.04855C24.3374 4.41452 24.634 4.71116 25 4.71116C25.366 4.71116 25.6626 4.41444 25.6626 4.04855V3.16261C25.6627 2.79672 25.3661 2.5 25 2.5Z" fill="currentColor"/>
<path d="M21.7098 5.13683L21.0833 4.51044C20.8246 4.25169 20.405 4.25177 20.1462 4.51044C19.8874 4.76919 19.8875 5.18878 20.1463 5.44761L20.7727 6.0741C20.9021 6.20347 21.0717 6.26816 21.2412 6.26816C21.4108 6.26816 21.5804 6.20347 21.7099 6.07401C21.9686 5.81517 21.9686 5.39558 21.7098 5.13683Z" fill="currentColor"/>
<path d="M19.6843 8.70178H18.7984C18.4323 8.70178 18.1357 8.9985 18.1357 9.36439C18.1357 9.73037 18.4324 10.027 18.7984 10.027H19.6843C20.0504 10.027 20.3469 9.73028 20.3469 9.36439C20.3469 8.9985 20.0503 8.70178 19.6843 8.70178Z" fill="currentColor"/>
<path d="M21.7099 12.6545C21.451 12.3958 21.0315 12.3958 20.7726 12.6545L20.1462 13.2809C19.8875 13.5397 19.8875 13.9592 20.1462 14.218C20.2757 14.3474 20.4453 14.4122 20.6148 14.4122C20.7844 14.4122 20.954 14.3475 21.0835 14.218L21.7099 13.5916C21.9686 13.3329 21.9686 12.9133 21.7099 12.6545Z" fill="currentColor"/>
<path d="M25 14.0173C24.6339 14.0173 24.3374 14.314 24.3374 14.6799V15.5658C24.3374 15.9318 24.634 16.2284 25 16.2284C25.366 16.2284 25.6626 15.9317 25.6626 15.5658V14.6799C25.6627 14.314 25.3661 14.0173 25 14.0173Z" fill="currentColor"/>
<path d="M29.8539 13.281L29.2275 12.6546C28.9688 12.3958 28.5492 12.3957 28.2903 12.6545C28.0315 12.9132 28.0315 13.3328 28.2902 13.5916L28.9166 14.218C29.0461 14.3474 29.2156 14.4121 29.3853 14.4121C29.5548 14.4121 29.7244 14.3474 29.8538 14.218C30.1127 13.9593 30.1127 13.5397 29.8539 13.281Z" fill="currentColor"/>
<path d="M31.2021 8.70178H30.3162C29.9501 8.70178 29.6536 8.9985 29.6536 9.36439C29.6536 9.73028 29.9502 10.027 30.3162 10.027H31.2021C31.5682 10.027 31.8647 9.73028 31.8647 9.36439C31.8647 8.9985 31.5682 8.70178 31.2021 8.70178Z" fill="currentColor"/>
<path d="M29.8537 4.51044C29.5951 4.25169 29.1755 4.25177 28.9166 4.51044L28.2902 5.13683C28.0315 5.39558 28.0315 5.81517 28.2903 6.07401C28.4196 6.20347 28.5892 6.26816 28.7588 6.26816C28.9283 6.26816 29.098 6.20347 29.2274 6.07401L29.8538 5.44761C30.1126 5.18886 30.1126 4.76927 29.8537 4.51044Z" fill="currentColor"/>
<path d="M43.3801 36.4419C43.3796 36.4303 43.3795 36.4188 43.3784 36.4072C43.3761 36.3839 43.3726 36.361 43.3678 36.3385C43.3677 36.3379 43.3677 36.3375 43.3675 36.337L42.1874 30.7315C42.187 30.7295 42.1866 30.7275 42.1862 30.7255L41.0062 25.1204C41.0057 25.1183 41.0053 25.1164 41.005 25.1144L39.8238 19.5037C39.7593 19.1971 39.4887 18.9776 39.1753 18.9776H10.8245C10.5111 18.9776 10.2406 19.1971 10.176 19.5037L8.99515 25.1138C8.99462 25.1162 8.99409 25.1184 8.99366 25.1208L7.81372 30.726C7.81337 30.7276 7.81302 30.7293 7.81276 30.7309L6.63273 36.3365C6.62781 36.3601 6.62403 36.3843 6.62166 36.4087C6.62113 36.4143 6.62122 36.4201 6.62078 36.4258C6.61964 36.4415 6.61841 36.4572 6.61841 36.4733V39.1314C6.61841 39.4974 6.91504 39.794 7.28102 39.794H23.0082V43.5167H17.9121C17.546 43.5167 17.2495 43.8134 17.2495 44.1793V46.1748H10.8246C10.4585 46.1748 10.162 46.4715 10.162 46.8374C10.162 47.2033 10.4586 47.5 10.8246 47.5H17.9122H32.0876H39.1743C39.5403 47.5 39.8369 47.2033 39.8369 46.8374C39.8369 46.4715 39.5403 46.1748 39.1743 46.1748H32.7503V44.1793C32.7503 43.8133 32.4537 43.5167 32.0877 43.5167H26.9917V39.794H42.7189C43.085 39.794 43.3815 39.4973 43.3815 39.1314V36.4852C43.3816 36.4843 43.3816 36.4832 43.3816 36.4822V36.4736C43.3817 36.4628 43.3806 36.4525 43.3801 36.4419ZM41.9025 35.8108H31.5243L31.2234 31.525H41.0002L41.9025 35.8108ZM39.819 25.9139L40.7213 30.1998H31.1304L30.8296 25.9139H39.819ZM38.6377 20.3029L39.5401 24.5887H30.7366L30.4357 20.3029H38.6377ZM20.8926 20.3029H29.1073L29.4081 24.5887H20.5918L20.8926 20.3029ZM20.4989 25.9139H29.5011L29.802 30.1998H20.1981L20.4989 25.9139ZM20.1052 31.5251H29.8949L30.1957 35.8108H19.8045L20.1052 31.5251ZM11.3622 20.3029H19.5641L19.2633 24.5887H10.4599L11.3622 20.3029ZM10.1811 25.9139H19.1703L18.8696 30.1998H9.27877L10.1811 25.9139ZM31.4251 44.8422V46.1749H18.5749V44.8422H23.671H26.3291H31.4251ZM24.3336 43.5169V39.7942H25.6664V43.5169H24.3336ZM26.3368 38.4689C26.3342 38.4689 26.3317 38.4685 26.3291 38.4685H23.671C23.6684 38.4685 23.6659 38.4689 23.6633 38.4689H7.94362V37.1361H11.1002C11.4663 37.1361 11.7628 36.8394 11.7628 36.4735C11.7628 36.1075 11.4662 35.8109 11.1002 35.8109H8.09761L8.99981 31.5251H18.7766L18.4758 35.8108H13.9658C13.5997 35.8108 13.3031 36.1075 13.3031 36.4734C13.3031 36.8394 13.5997 37.136 13.9657 37.136H19.0931C19.0935 37.136 19.0939 37.136 19.0943 37.136C19.0946 37.136 19.0949 37.136 19.0952 37.136H30.9048C30.9051 37.136 30.9054 37.136 30.9057 37.136C30.9061 37.136 30.9065 37.136 30.9069 37.136H42.0562V38.4688H26.3368V38.4689Z" fill="currentColor"/>
</svg>
