<svg width="50" height="50" viewBox="0 0 50 50" fill="none" xmlns="http://www.w3.org/2000/svg">
<path d="M27.2252 41.4193C24.9279 41.0552 22.7153 39.6371 21.4315 37.7059L20.993 37.0464H11.7465H2.5V29.3352V21.6241L13.0266 21.5996L23.5532 21.575L24.0864 19.8881L24.6196 18.2012L24.6486 13.3574L24.6775 8.51355H27.5143H30.3511L30.3787 13.261C30.4053 17.8474 30.4133 18.028 30.6146 18.5868C30.7292 18.9049 30.9374 19.5556 31.0774 20.0327C31.2173 20.5099 31.3855 21.0521 31.4513 21.2376L31.5708 21.575L33.1815 21.6015L34.7922 21.6279V23.698C34.7922 24.8366 34.8153 25.7682 34.8436 25.7682C34.8719 25.7682 35.1213 25.6533 35.3979 25.5128C37.8104 24.2875 40.8568 24.3763 43.2667 25.7422C45.4548 26.9825 47.0283 29.2305 47.4236 31.6811C47.5717 32.5989 47.4955 34.3758 47.2722 35.2149C47.0111 36.1956 46.3378 37.5205 45.6934 38.3215C43.0329 41.6287 38.4082 42.4557 34.7851 40.272C34.3914 40.0347 34.0011 39.7917 33.9177 39.732C33.7967 39.6453 33.6643 39.6952 33.2591 39.9799C32.6176 40.4308 31.5652 40.9287 30.6954 41.1929C30.1971 41.3442 29.6929 41.4066 28.7675 41.4314C28.0783 41.4499 27.3843 41.4444 27.2252 41.4193ZM30.123 40.1287C30.883 39.9348 32.2219 39.3342 32.6585 38.9912L32.8865 38.8121L32.4366 38.201C31.7986 37.3343 31.3743 36.5391 31.0749 35.6486C30.8547 34.9937 30.8084 34.6629 30.7676 33.4529C30.7171 31.9519 30.8014 31.2303 31.1335 30.3239C31.3826 29.644 31.9277 28.6017 32.281 28.1299C32.9475 27.2396 32.9126 27.3328 32.6584 27.1217C32.31 26.8324 30.9628 26.2057 30.2617 26.0069C29.4186 25.7678 27.5729 25.7581 26.6951 25.9881C24.6743 26.5177 22.6745 28.1675 21.8791 29.9614C21.33 31.1996 21.265 31.5238 21.2609 33.046C21.2573 34.3498 21.2814 34.5645 21.5052 35.2309C22.3749 37.821 24.4921 39.7015 27.1288 40.226C27.8979 40.379 29.3232 40.3326 30.123 40.1287ZM25.8275 36.9838C25.0748 36.7239 24.5102 36.22 24.1156 35.4559C23.7819 34.8097 23.705 33.6395 23.9469 32.8886C24.1194 32.3529 24.5381 31.6483 24.6839 31.6483C24.7297 31.6483 24.7672 31.8452 24.7672 32.0859C24.7672 32.4917 25.035 33.2028 25.2342 33.3259C25.2812 33.3549 25.2976 32.9801 25.2714 32.4786C25.2315 31.7175 25.2581 31.4772 25.4444 30.9149C25.6296 30.3558 25.7614 30.1551 26.277 29.6481C26.6139 29.3167 26.9261 29.0456 26.9709 29.0456C27.0157 29.0456 27.0319 29.2583 27.0069 29.5183C26.9426 30.1872 27.2275 30.6465 28.1483 31.3588C29.3153 32.2617 29.7415 33.0868 29.6611 34.2882C29.5802 35.4967 29.001 36.3481 27.9082 36.8651C27.2302 37.1859 26.5287 37.2259 25.8275 36.9838ZM27.7251 35.9774C28.7852 35.4642 29.2034 34.1986 28.668 33.124C28.4514 32.6894 27.7357 32.0214 27.6154 32.1417C27.5934 32.1637 27.669 32.4492 27.7835 32.776C27.971 33.311 27.9794 33.4165 27.8687 33.8347C27.7234 34.3835 27.36 34.969 27.0674 35.1256C26.8821 35.2248 26.8669 35.2171 26.9321 35.0574C26.9725 34.9584 27.0245 34.6823 27.0477 34.4437L27.0899 34.0099L26.9294 34.2991C26.6628 34.7797 26.2012 35.2035 25.7616 35.3714C25.5328 35.4587 25.3455 35.5573 25.3455 35.5904C25.3455 35.6748 25.7252 35.9166 26.0685 36.051C26.5361 36.2339 27.2617 36.2017 27.7251 35.9774ZM40.8708 40.1205C44.1015 39.3131 46.3722 36.4136 46.3722 33.0956C46.3722 31.0353 45.5998 29.235 44.1076 27.8176C41.8029 25.6284 38.5324 25.1719 35.7562 26.6521C34.6039 27.2664 34.6274 27.2033 35.2363 28.0521C35.8678 28.9323 36.3327 29.8911 36.6294 30.9253C36.9472 32.0327 36.9479 34.0541 36.6309 35.1667C36.322 36.2512 35.7783 37.3675 35.1805 38.1445L34.6693 38.8089L34.8993 38.993C35.2779 39.2958 36.532 39.8842 37.2019 40.0733C37.5465 40.1706 37.8719 40.2633 37.9249 40.2794C37.9779 40.2954 38.4793 40.312 39.0392 40.3162C39.7742 40.3217 40.2833 40.2673 40.8708 40.1205ZM38.6027 36.7229C38.6868 36.5184 38.796 36.2799 38.8455 36.1927C39.0932 35.7562 40.0939 33.5323 40.0939 33.4182C40.0939 33.3222 39.9402 33.287 39.5213 33.287C39.2063 33.287 38.9258 33.2501 38.8979 33.2049C38.87 33.1598 39.2253 32.3577 39.6874 31.4224L40.5277 29.7219L41.5276 29.7212C42.3134 29.7205 42.5073 29.7462 42.4334 29.8409C42.3817 29.9072 41.9789 30.4169 41.5383 30.9735L40.7372 31.9857L41.2108 32.0495C41.4713 32.0847 41.8688 32.1172 42.0941 32.1218C42.3194 32.1265 42.5038 32.1522 42.5038 32.179C42.5038 32.2379 39.1031 36.3965 38.7205 36.8054L38.4499 37.0946L38.6027 36.7229ZM34.1054 37.6417L34.2992 37.3695L33.2395 36.3163C32.1177 35.2014 32.0784 35.2076 32.6746 36.4059C33.0106 37.0811 33.6284 37.9139 33.7933 37.9139C33.8583 37.9139 33.9988 37.7914 34.1054 37.6417ZM34.9009 36.4159L35.1195 35.9781L33.5386 34.395C32.6691 33.5243 31.9347 32.8349 31.9067 32.863C31.8786 32.8911 31.868 33.1823 31.8832 33.5102L31.9107 34.1063L33.2779 35.48C34.0299 36.2354 34.6535 36.8536 34.6637 36.8536C34.6739 36.8536 34.7807 36.6566 34.9009 36.4159ZM8.64685 33.1665L8.67263 30.7807H12.8159H16.9592V33.1906V35.6004H18.6461C19.5739 35.6004 20.3322 35.5679 20.3311 35.5282C20.3301 35.4884 20.2665 35.1088 20.1899 34.6847C19.8549 32.8308 20.0809 31.1577 20.9188 29.2866C21.1579 28.7526 21.81 27.8456 22.3993 27.2272C23.4765 26.0968 24.8346 25.2957 26.3577 24.8922C27.2937 24.6443 29.3303 24.5884 30.1653 24.7877C30.9468 24.9743 32.162 25.4579 32.7805 25.8285C33.0791 26.0074 33.3513 26.1538 33.3854 26.1538C33.4195 26.1538 33.4356 25.4489 33.421 24.5874L33.3945 23.0209H18.6461H3.89772L3.87274 29.1902C3.859 32.5833 3.86878 35.4145 3.89447 35.4817C3.9308 35.5767 4.46139 35.5981 6.28112 35.5781L8.62106 35.5522L8.64685 33.1665ZM8.20921 26.6116L8.23548 24.8524H8.91025H9.58501L9.61128 26.6116L9.63756 28.3708H8.91025H8.18294L8.20921 26.6116ZM12.1395 26.5833V24.7958L12.8383 24.8241L13.5372 24.8524L13.5635 26.6116L13.5897 28.3708H12.8646H12.1395L12.1395 26.5833ZM15.9953 26.5918V24.8043H16.6682C17.4995 24.8043 17.4699 24.7265 17.4256 26.7969L17.393 28.3227L16.6941 28.351L15.9953 28.3793L15.9953 26.5918ZM15.4914 33.8398L15.5177 32.1272L12.7924 32.1529L10.067 32.1785L10.0404 33.7653C10.0258 34.638 10.0355 35.4087 10.0621 35.4778C10.1005 35.5779 10.6569 35.5983 12.7877 35.5779L15.4651 35.5523L15.4914 33.8398ZM35.5053 34.8052L35.6546 34.2991L33.949 32.5899C32.1137 30.7508 32.1623 30.7767 31.9864 31.5438L31.9072 31.8893L33.6138 33.6003C34.5524 34.5413 35.3284 35.3113 35.3382 35.3113C35.348 35.3113 35.4232 35.0835 35.5053 34.8052ZM35.7145 32.3721C35.6746 32.1596 35.2785 31.6989 34.2686 30.6909L32.8776 29.3023L32.6577 29.7549L32.4378 30.2075L34.0729 31.8458L35.708 33.484L35.7387 33.0744C35.7556 32.8491 35.7447 32.5331 35.7145 32.3721ZM34.9884 29.8967C34.7702 29.4609 34.4336 28.9067 34.2403 28.6653C34.047 28.4238 33.8716 28.2046 33.8506 28.1781C33.8296 28.1517 33.6813 28.2766 33.5212 28.4558L33.2301 28.7816L34.2758 29.8306C34.851 30.4076 35.3358 30.8368 35.3533 30.7844C35.3708 30.7321 35.2065 30.3326 34.9884 29.8967ZM29.9299 21.2617C29.8413 20.8917 29.4057 19.427 29.2634 19.0206L29.1453 18.6832L27.5433 18.6568L25.9414 18.6304L25.7316 19.3316C25.6162 19.7172 25.4388 20.2823 25.3373 20.5874C24.9973 21.6093 24.801 21.5268 27.5731 21.5268H29.9934L29.9299 21.2617ZM28.9121 13.4779V9.86306H27.5144H26.1167V13.4779V17.0927H27.5144H28.9121V13.4779Z" fill="currentColor"/>
</svg>
