<svg width="50" height="50" viewBox="0 0 50 50" fill="none" xmlns="http://www.w3.org/2000/svg">
<path d="M34.3361 41.8983H15.6639C13.6014 41.8983 11.9294 40.2263 11.9294 38.1639V17.6245C11.9294 15.562 13.6014 13.89 15.6639 13.89H34.3361C36.3986 13.89 38.0705 15.562 38.0705 17.6245V38.1639C38.0705 40.2263 36.3986 41.8983 34.3361 41.8983Z" fill="none"  stroke="currentColor" stroke-miterlimit="10" stroke-linecap="round" stroke-linejoin="round"/>
<path d="M28.3016 31.1951C25.0202 34.4764 19.0593 33.8357 19.0593 33.8357C19.0593 33.8357 18.4186 27.8749 21.7 24.5934C24.9814 21.3121 30.9422 21.9528 30.9422 21.9528C30.9422 21.9528 31.583 27.9137 28.3016 31.1951Z" fill="none"  stroke="currentColor" stroke-miterlimit="10" stroke-linecap="round" stroke-linejoin="round"/>
<path d="M24.9989 27.894L19.0574 33.8355" fill="none"  stroke="currentColor" stroke-miterlimit="10" stroke-linecap="round" stroke-linejoin="round"/>
<path d="M33.4024 2.49997H16.5974V13.89H33.4024V2.49997Z" fill="none"  stroke="currentColor" stroke-miterlimit="10" stroke-linecap="round" stroke-linejoin="round"/>
<path d="M33.4024 41.8983H16.5975C15.0507 41.8983 13.7966 43.1524 13.7966 44.6992V47.5H36.2033V44.6992C36.2033 43.1524 34.9492 41.8983 33.4024 41.8983Z" fill="none"  stroke="currentColor" stroke-miterlimit="10" stroke-linecap="round" stroke-linejoin="round"/>
<path d="M22.1992 13.89H27.8009V8.28835H22.1992V13.89Z" fill="none"  stroke="currentColor" stroke-miterlimit="10" stroke-linecap="round" stroke-linejoin="round"/>
<path d="M35.2696 2.5H14.7302" fill="none"  stroke="currentColor" stroke-miterlimit="10" stroke-linecap="round" stroke-linejoin="round"/>
</svg>
