<svg width="50" height="50" viewBox="0 0 50 50" fill="none" xmlns="http://www.w3.org/2000/svg">
<path d="M13.7362 23.7049C13.8398 23.7678 13.9641 23.7872 14.082 23.7588C14.1999 23.7304 14.3017 23.6566 14.3654 23.5534L21.925 11.2357L24.9975 6.22961L35.2622 22.9563L32.0473 23.4937C31.9255 23.5034 31.8126 23.5611 31.7334 23.6541C31.6541 23.7472 31.6151 23.8679 31.6248 23.9897C31.6346 24.1115 31.6923 24.2244 31.7853 24.3037C31.8783 24.3829 31.999 24.4219 32.1208 24.4122H32.1989L35.9741 23.783H36.02C36.1045 23.7824 36.1871 23.7586 36.2589 23.7141C36.2922 23.6915 36.3217 23.6635 36.3461 23.6314L36.4058 23.5534C36.4239 23.5194 36.4392 23.4841 36.4518 23.4477C36.4525 23.4324 36.4525 23.4171 36.4518 23.4018L37.0993 19.5072C37.1193 19.3872 37.0908 19.2642 37.0202 19.1652C36.9496 19.0662 36.8426 18.9992 36.7227 18.979C36.6028 18.9591 36.4798 18.9875 36.3808 19.0581C36.2818 19.1287 36.2148 19.2357 36.1946 19.3556L35.7353 22.0653L25.3879 5.12276L25.3603 5.08602C25.338 5.0622 25.3134 5.04066 25.2869 5.02172C25.2754 5.00711 25.2614 4.99467 25.2455 4.98498C25.163 4.93605 25.0673 4.91418 24.9718 4.92241C24.8762 4.93065 24.7857 4.96859 24.7128 5.03091C24.6738 5.05918 24.6409 5.09513 24.6163 5.13654L18.1865 15.6125L13.5938 23.0941C13.5357 23.195 13.518 23.3142 13.5445 23.4276C13.5709 23.541 13.6394 23.6401 13.7362 23.7049Z" fill="currentColor"/>
<path d="M23.1599 40.9457H3.77401L12.1374 27.3467L12.5966 30.0288C12.6142 30.1375 12.6703 30.2362 12.7546 30.3071C12.8389 30.3779 12.9458 30.416 13.0559 30.4146H13.1294C13.2493 30.3944 13.3563 30.3274 13.4269 30.2284C13.4975 30.1294 13.5259 30.0064 13.506 29.8865L12.8584 25.9872C12.8584 25.9872 12.8584 25.9872 12.8584 25.9643C12.8459 25.911 12.8224 25.861 12.7895 25.8173C12.7204 25.721 12.6167 25.6552 12.5002 25.6336L8.60096 24.9814C8.47915 24.9613 8.35435 24.9904 8.25401 25.0624C8.15367 25.1343 8.08601 25.2431 8.06591 25.3649C8.04581 25.4867 8.07492 25.6115 8.14684 25.7119C8.21876 25.8122 8.32759 25.8799 8.4494 25.9L11.6643 26.4373L2.56153 41.1662C2.52122 41.236 2.5 41.3152 2.5 41.3958C2.5 41.4764 2.52122 41.5556 2.56153 41.6255C2.60004 41.6959 2.65636 41.7551 2.72486 41.797C2.79335 41.8389 2.87164 41.8621 2.95191 41.8643H23.1599C23.2817 41.8643 23.3985 41.8159 23.4846 41.7298C23.5708 41.6436 23.6192 41.5268 23.6192 41.405C23.6192 41.2832 23.5708 41.1664 23.4846 41.0803C23.3985 40.9941 23.2817 40.9457 23.1599 40.9457Z" fill="currentColor"/>
<path d="M47.4326 41.1664L37.7879 25.4501C37.718 25.3669 37.621 25.3111 37.514 25.2927C37.4069 25.2743 37.2969 25.2944 37.2032 25.3495C37.1096 25.4045 37.0386 25.491 37.0027 25.5935C36.9668 25.696 36.9683 25.8079 37.0071 25.9093L46.2201 40.9459H26.3474L28.1248 38.4567C28.1662 38.4083 28.1971 38.3519 28.2155 38.2909C28.234 38.23 28.2395 38.1659 28.2319 38.1027C28.2242 38.0395 28.2035 37.9785 28.171 37.9238C28.1386 37.869 28.0951 37.8216 28.0433 37.7845C27.9915 37.7475 27.9326 37.7216 27.8703 37.7085C27.808 37.6954 27.7437 37.6954 27.6814 37.7085C27.6191 37.7216 27.5602 37.7475 27.5084 37.7846C27.4567 37.8217 27.4132 37.8691 27.3808 37.9239L25.0844 41.1388C25.0734 41.1562 25.0642 41.1747 25.0568 41.1939L25.0293 41.2444C24.9925 41.3484 24.9925 41.4619 25.0293 41.5659C25.0388 41.5819 25.0465 41.5988 25.0523 41.6164C25.0523 41.6164 25.0523 41.6532 25.0844 41.6716L27.3808 44.8865C27.423 44.9458 27.4788 44.9943 27.5435 45.0278C27.6082 45.0614 27.6799 45.079 27.7528 45.0794C27.8485 45.0787 27.9416 45.0482 28.0192 44.9921C28.1174 44.9212 28.1837 44.8142 28.2035 44.6947C28.2233 44.5751 28.195 44.4525 28.1248 44.3537L26.3474 41.8645H47.0422C47.1236 41.8643 47.2035 41.8426 47.2737 41.8014C47.3439 41.7602 47.4019 41.7012 47.4418 41.6302C47.4816 41.559 47.5017 41.4786 47.5001 41.397C47.4984 41.3155 47.4752 41.2359 47.4326 41.1664Z" fill="currentColor"/>
<path d="M25.3421 29.3032L26.3754 28.1275C27.2729 27.1058 27.7678 25.7925 27.7678 24.4326C27.7678 23.0728 27.2729 21.7594 26.3754 20.7378L25.3558 19.562C25.3127 19.5132 25.2597 19.474 25.2003 19.4472C25.141 19.4204 25.0765 19.4066 25.0114 19.4066C24.9462 19.4066 24.8818 19.4204 24.8224 19.4472C24.763 19.474 24.71 19.5132 24.6669 19.562L23.6198 20.7378C22.7161 21.7609 22.2173 23.079 22.2173 24.4441C22.2173 25.8092 22.7161 27.1273 23.6198 28.1504L24.6394 29.3262C24.6825 29.375 24.7355 29.4142 24.7949 29.441C24.8542 29.4678 24.9187 29.4817 24.9838 29.4817C25.049 29.4817 25.1134 29.4678 25.1728 29.441C25.2322 29.4142 25.2852 29.375 25.3283 29.3262L25.3421 29.3032ZM24.3271 27.5258C23.5699 26.6688 23.152 25.5647 23.152 24.4211C23.152 23.2776 23.5699 22.1735 24.3271 21.3165L24.9976 20.5403L25.6681 21.3165C26.4253 22.1735 26.8432 23.2776 26.8432 24.4211C26.8432 25.5647 26.4253 26.6688 25.6681 27.5258L24.9976 28.302L24.3271 27.5258Z" fill="currentColor"/>
<path d="M31.4499 26.8782L30.1823 26.9746C29.0477 27.0576 27.9808 27.5458 27.1764 28.3502C26.372 29.1546 25.8838 30.2215 25.8008 31.3561L25.7044 32.6237C25.6995 32.6894 25.7089 32.7555 25.7319 32.8173C25.7549 32.8791 25.7909 32.9353 25.8375 32.9819C25.8805 33.0245 25.9314 33.0582 25.9873 33.081C26.0433 33.1039 26.1032 33.1154 26.1636 33.1151H26.2004L27.4634 33.0187C28.5983 32.9366 29.6657 32.4487 30.4703 31.6441C31.2749 30.8395 31.7628 29.7721 31.8448 28.6372L31.9413 27.3696C31.9461 27.3038 31.9367 27.2378 31.9137 27.176C31.8907 27.1142 31.8547 27.058 31.8081 27.0114C31.7614 26.9648 31.7053 26.9287 31.6435 26.9057C31.5817 26.8828 31.5156 26.8734 31.4499 26.8782ZM30.9309 28.5683C30.8638 29.4835 30.4695 30.3441 29.8202 30.9925C29.1708 31.641 28.3098 32.0342 27.3945 32.1001L26.6642 32.1598L26.7193 31.425C26.7855 30.5094 27.1795 29.6484 27.829 28.9997C28.4785 28.351 29.3401 27.9582 30.2557 27.8932L30.9676 27.8335L30.9309 28.5683Z" fill="currentColor"/>
<path d="M19.8117 26.9746L18.5671 26.8782C18.5013 26.8734 18.4353 26.8828 18.3735 26.9057C18.3117 26.9287 18.2555 26.9648 18.2089 27.0114C18.1623 27.058 18.1262 27.1142 18.1033 27.176C18.0803 27.2378 18.0709 27.3038 18.0757 27.3696L18.1721 28.6372C18.2542 29.7721 18.7421 30.8395 19.5467 31.6441C20.3513 32.4487 21.4187 32.9366 22.5536 33.0187L23.8166 33.1151H23.8533C23.9138 33.1154 23.9737 33.1039 24.0297 33.081C24.0856 33.0582 24.1365 33.0245 24.1794 32.9819C24.226 32.9353 24.2621 32.8791 24.285 32.8173C24.308 32.7555 24.3174 32.6894 24.3126 32.6237L24.2162 31.3561C24.1325 30.2179 23.641 29.148 22.8319 28.3431C22.0228 27.5382 20.9504 27.0523 19.8117 26.9746ZM22.5995 32.1001C21.6842 32.0342 20.8232 31.641 20.1738 30.9925C19.5245 30.3441 19.1302 29.4835 19.0631 28.5683L19.0264 27.8335L19.7566 27.8932C20.6723 27.9582 21.5338 28.351 22.1834 28.9997C22.8329 29.6484 23.2268 30.5094 23.293 31.425L23.3481 32.1598L22.5995 32.1001Z" fill="currentColor"/>
</svg>
