<svg width="50" height="50" viewBox="0 0 50 50" fill="none" xmlns="http://www.w3.org/2000/svg">
<path d="M42.4194 25.7258C34.9356 25.7258 28.4962 30.2802 25.7258 36.7631V9.03226C25.7258 6.23065 28.0048 3.95161 30.8065 3.95161C33.6081 3.95161 35.8871 6.23065 35.8871 9.03226V9.79508C32.2247 10.1602 29.3548 13.2594 29.3548 17.0161V19.9194H27.9032V21.371H30.8065V24.2742H32.2581V21.371H40.9677V24.2742H42.4194V21.371H45.3226V19.9194H43.871V17.0161C43.871 13.2586 41.0011 10.1602 37.3387 9.79508V9.03226C37.3387 5.43081 34.4079 2.5 30.8065 2.5C27.205 2.5 24.2742 5.43081 24.2742 9.03226V36.7631C21.5038 30.2802 15.0644 25.7258 7.58065 25.7258H2.5V26.4516C2.5 36.4569 10.6399 44.5968 20.6452 44.5968H24.2742V47.5H25.7258V44.5968H29.3548C39.3601 44.5968 47.5 36.4569 47.5 26.4516V25.7258H42.4194ZM42.4194 17.0161V19.9194H30.8065V17.0161C30.8065 13.8146 33.4114 11.2097 36.6129 11.2097C39.8144 11.2097 42.4194 13.8146 42.4194 17.0161ZM20.6452 43.1452C11.9696 43.1452 4.81895 36.4931 4.02565 28.0215L22.9075 43.1452H20.6452ZM5.2929 27.1774H7.58065C16.2642 27.1774 23.4199 33.841 24.2031 42.3235L5.2929 27.1774ZM42.4194 27.1774H44.7071L25.7969 42.3235C26.5801 33.841 33.7358 27.1774 42.4194 27.1774ZM29.3548 43.1452H27.0925L45.9744 28.0215C45.181 36.4931 38.0304 43.1452 29.3548 43.1452Z" fill="currentColor"/>
<path d="M40.2424 17.0162H38.7908V18.4678H40.2424V17.0162Z" fill="currentColor"/>
<path d="M37.3386 17.0162H35.887V18.4678H37.3386V17.0162Z" fill="currentColor"/>
<path d="M34.4357 17.0162H32.9841V18.4678H34.4357V17.0162Z" fill="currentColor"/>
</svg>
