<svg width="50" height="50" viewBox="0 0 50 50" fill="none" xmlns="http://www.w3.org/2000/svg">
<path d="M11.0334 4.29283H18.9195C19.4146 4.29283 19.8159 3.89151 19.8159 3.39642C19.8159 2.90133 19.4146 2.5 18.9195 2.5H11.0334C10.5383 2.5 10.137 2.90133 10.137 3.39642C10.137 3.89151 10.5383 4.29283 11.0334 4.29283Z" fill="currentColor"/>
<path d="M41.5221 2.5H30.8036C30.5906 2.5 30.3778 2.57888 30.2169 2.71864L26.3293 6.08396C25.9549 6.40802 25.9142 6.9741 26.2382 7.34836C26.4155 7.55319 26.6652 7.65807 26.9163 7.65807C27.1242 7.65807 27.3331 7.58618 27.5027 7.43943L31.1377 4.29283H40.6257V9.05325H19.8152V6.28422C19.8152 5.78913 19.4139 5.3878 18.9188 5.3878H11.0327C10.5376 5.3878 10.1362 5.78913 10.1362 6.28422V9.05325H8.47796C7.98287 9.05325 7.58154 9.45458 7.58154 9.94967V39.6616C7.58154 43.9837 11.0979 47.5 15.42 47.5H34.58C38.9021 47.5 42.4184 43.9836 42.4184 39.6616C42.4185 39.6616 42.4185 3.41515 42.4185 3.39642C42.4185 2.90133 42.0172 2.5 41.5221 2.5ZM11.9291 7.18073H18.0224V9.05334H11.9291V7.18073ZM40.6257 39.6617C40.6257 42.9952 37.9137 45.7073 34.5801 45.7073H15.42C12.0864 45.7073 9.37437 42.9952 9.37437 39.6617V10.8461H11.0327H18.9188H40.6257V39.6617Z" fill="currentColor"/>
<path d="M17.8946 13.9428C17.886 14.0797 17.7068 17.3184 19.675 19.2866C21.009 20.6206 22.9262 20.968 24.0661 21.0508V23.8031C22.0968 21.846 18.8695 22.0244 18.733 22.0329C18.2822 22.0612 17.9228 22.4206 17.8945 22.8714C17.8859 23.0083 17.7067 26.247 19.6749 28.2151C21.0089 29.5492 22.9262 29.8965 24.0661 29.9793V37.8189C24.0661 38.314 24.4674 38.7153 24.9625 38.7153C25.4576 38.7153 25.8589 38.314 25.8589 37.8189V29.9843C26.9879 29.9115 28.9616 29.5791 30.3257 28.215C32.2939 26.2468 32.1147 23.0082 32.1061 22.8713C32.0778 22.4205 31.7184 22.0611 31.2676 22.0328C31.1307 22.0244 27.8921 21.845 25.9239 23.8132C25.9015 23.8356 25.8809 23.8589 25.859 23.8817V21.0559C26.988 20.9831 28.9617 20.6507 30.3258 19.2866C32.294 17.3184 32.1148 14.0798 32.1062 13.9429C32.0779 13.4921 31.7185 13.1327 31.2677 13.1044C31.131 13.096 27.8923 12.9165 25.924 14.8848C25.5398 15.269 25.2383 15.7019 25.0005 16.1504C24.7627 15.7019 24.4612 15.269 24.077 14.8848C22.1087 12.9165 18.8701 13.0958 18.7333 13.1044C18.2823 13.1327 17.9229 13.492 17.8946 13.9428ZM20.9428 26.9473C20.0633 26.0679 19.7923 24.7248 19.7121 23.8504C20.5871 23.9305 21.9299 24.2017 22.8091 25.081C23.6876 25.9595 23.959 27.3007 24.0395 28.1757C23.163 28.0937 21.8166 27.8211 20.9428 26.9473ZM27.1917 25.0809C28.0711 24.2014 29.4142 23.9304 30.2886 23.8502C30.2085 24.7252 29.9373 26.068 29.058 26.9472C28.1795 27.8258 26.8383 28.0972 25.9633 28.1777C26.0453 27.3011 26.3178 25.9547 27.1917 25.0809ZM27.1917 16.1524C28.0711 15.2729 29.4142 15.002 30.2886 14.9217C30.2085 15.7967 29.9373 17.1395 29.0581 18.0187C28.1788 18.898 26.8362 19.1691 25.9612 19.2493C26.0412 18.3744 26.3124 17.0316 27.1917 16.1524ZM22.8091 16.1524C23.6884 17.0316 23.9595 18.3744 24.0397 19.2493C23.1647 19.1691 21.8219 18.898 20.9428 18.0188C20.0634 17.1394 19.7923 15.7963 19.7121 14.9218C20.5872 15.002 21.9299 15.2732 22.8091 16.1524Z" fill="currentColor"/>
<path d="M24.9628 40.0935C24.4677 40.0935 24.0664 40.4948 24.0664 40.9899V43.0046C24.0664 43.4997 24.4677 43.901 24.9628 43.901C25.4579 43.901 25.8592 43.4997 25.8592 43.0046V40.9899C25.8592 40.4948 25.4579 40.0935 24.9628 40.0935Z" fill="currentColor"/>
</svg>
