<svg width="50" height="50" viewBox="0 0 50 50" fill="none" xmlns="http://www.w3.org/2000/svg">
<path d="M41.0791 10.5519H8.78931V11.9279H41.0791V10.5519Z" fill="currentColor"/>
<path d="M45.9167 36.3214C45.4282 35.8828 44.8307 35.3492 43.7787 35.2468V7.89177H46.0729V34.2649H47.4489V6.51575H42.4027V35.3749C41.7329 35.5844 41.2891 35.9816 40.9106 36.3214C40.4313 36.7517 40.0851 37.0626 39.327 37.0626C39.1049 37.0626 38.9189 37.0353 38.7538 36.9868L36.4942 23.8532H39.9784V22.4772H36.2575L36.1382 21.7842C35.9055 20.4317 34.7405 19.45 33.368 19.45C31.9956 19.45 30.8306 20.4318 30.5979 21.7842L30.4786 22.4772H29.3775V17.2484H37.3582V21.147H38.7342V15.8724H28.0016V22.4772H26.677V23.8532H30.2418L28.2495 35.4339C27.9207 35.3086 27.5351 35.228 27.0682 35.228C25.7831 35.228 25.1079 35.8343 24.5655 36.3215C24.0863 36.7518 23.7402 37.0626 22.9822 37.0626C22.3728 37.0626 22.0294 36.8615 21.6691 36.5589L19.4832 23.8532H23.0994V22.4772H21.7638V15.8724H11.031V21.147H12.407V17.2484H20.3877V22.4772H19.2463L19.1271 21.7842C18.8944 20.4317 17.7294 19.45 16.3569 19.45C14.9845 19.45 13.8195 20.4318 13.5868 21.7842L13.4676 22.4772H9.70665V23.8532H13.2312L11.2672 35.2689C11.0985 35.2435 10.9188 35.2281 10.7236 35.2281C9.43858 35.2281 8.7634 35.8344 8.22093 36.3215C7.98556 36.5328 7.78209 36.7151 7.54637 36.8462V6.51575H2.5V32.8889H3.87603V7.89177H6.17034V37.0142C5.71252 36.9114 5.4223 36.6519 5.05421 36.3215C4.51183 35.8344 3.83665 35.228 2.55159 35.228V36.604C3.30948 36.604 3.65568 36.9149 4.13487 37.3452C4.67733 37.8323 5.35242 38.4387 6.63748 38.4387C7.92254 38.4387 8.59781 37.8324 9.14028 37.3452C9.61946 36.9149 9.96566 36.604 10.7236 36.604C11.4816 36.604 11.8279 36.9149 12.3071 37.3453C12.8496 37.8324 13.5247 38.4387 14.8098 38.4387C16.0949 38.4387 16.77 37.8324 17.3125 37.3452C17.7917 36.9149 18.1379 36.604 18.8959 36.604C19.6088 36.604 19.9576 36.8791 20.3951 37.2698L20.4032 37.3168L20.4405 37.3104C20.4534 37.322 20.466 37.3333 20.4791 37.3452C21.0216 37.8323 21.6968 38.4387 22.9819 38.4387C24.267 38.4387 24.9422 37.8324 25.4846 37.3452C25.9638 36.9149 26.31 36.604 27.0679 36.604C27.8259 36.604 28.1722 36.9149 28.6514 37.3453C29.1938 37.8324 29.8689 38.4387 31.154 38.4387C32.4391 38.4387 33.1143 37.8324 33.6568 37.3453C34.136 36.915 34.4822 36.604 35.2402 36.604C35.9982 36.604 36.3445 36.9149 36.8237 37.3453C37.3661 37.8324 38.0413 38.4387 39.3264 38.4387C40.6115 38.4387 41.2868 37.8324 41.8293 37.3453C42.3086 36.915 42.6549 36.604 43.4131 36.604C44.1713 36.604 44.5176 36.915 44.9969 37.3453C45.5394 37.8324 46.2147 38.4387 47.5 38.4387V37.0626C46.7423 37.0626 46.396 36.7517 45.9167 36.3214ZM18.8959 35.228C17.6109 35.228 16.9357 35.8343 16.3932 36.3215C15.9141 36.7518 15.5679 37.0626 14.8099 37.0626C14.0519 37.0626 13.7056 36.7518 13.2264 36.3215C13.0332 36.1479 12.8225 35.9597 12.574 35.7887L14.9433 22.0175C15.062 21.3271 15.6567 20.8259 16.3574 20.8259C17.058 20.8259 17.6526 21.3271 17.7715 22.0175L20.0798 35.4346C19.7503 35.309 19.364 35.228 18.8959 35.228ZM35.2407 35.228C33.9555 35.228 33.2803 35.8343 32.7379 36.3214C32.2587 36.7517 31.9124 37.0626 31.1544 37.0626C30.3965 37.0626 30.0502 36.7518 29.5711 36.3215C29.549 36.3016 29.5262 36.2813 29.5036 36.261L31.9541 22.0175C32.0729 21.3271 32.6676 20.8259 33.3682 20.8259C34.0688 20.8259 34.6635 21.3271 34.7823 22.0175L37.1599 35.8366C36.7006 35.5061 36.1107 35.228 35.2407 35.228Z" fill="currentColor"/>
<path d="M39.7882 41.3671C39.2458 40.8799 38.5706 40.2736 37.2854 40.2736C36.0003 40.2736 35.3251 40.8799 34.7826 41.367C34.3035 41.7973 33.9572 42.1083 33.1992 42.1083C32.4412 42.1083 32.095 41.7974 31.6158 41.3671C31.0734 40.88 30.3982 40.2736 29.1131 40.2736C27.8281 40.2736 27.1529 40.8799 26.6104 41.3671C26.1312 41.7974 25.7851 42.1083 25.0271 42.1083C24.2692 42.1083 23.9229 41.7974 23.4437 41.367C22.9012 40.8798 22.2261 40.2736 20.9409 40.2736C19.6558 40.2736 18.9807 40.8799 18.4382 41.3671C17.959 41.7974 17.6128 42.1083 16.8549 42.1083C16.097 42.1083 15.7507 41.7974 15.2715 41.367C14.729 40.8798 14.0538 40.2736 12.7688 40.2736C11.4836 40.2736 10.8084 40.8799 10.266 41.3671C9.7868 41.7974 9.44059 42.1083 8.68262 42.1083V43.4843C9.96768 43.4843 10.6429 42.878 11.1853 42.3909C11.6645 41.9606 12.0107 41.6496 12.7687 41.6496C13.5267 41.6496 13.873 41.9605 14.3521 42.3908C14.8946 42.878 15.5698 43.4843 16.8549 43.4843C18.14 43.4843 18.8152 42.878 19.3576 42.3908C19.8368 41.9605 20.183 41.6496 20.941 41.6496C21.699 41.6496 22.0453 41.9605 22.5244 42.3909C23.0669 42.878 23.7421 43.4843 25.0272 43.4843C26.3123 43.4843 26.9875 42.878 27.5299 42.3908C28.0091 41.9605 28.3553 41.6496 29.1132 41.6496C29.8712 41.6496 30.2174 41.9605 30.6966 42.3908C31.239 42.878 31.9142 43.4843 33.1993 43.4843C34.4844 43.4843 35.1596 42.878 35.7021 42.3909C36.1813 41.9606 36.5275 41.6496 37.2855 41.6496C38.0435 41.6496 38.3898 41.9605 38.8689 42.3909C39.4113 42.878 40.0865 43.4843 41.3716 43.4843V42.1083C40.6137 42.1083 40.2675 41.7974 39.7882 41.3671Z" fill="currentColor"/>
</svg>
