<svg width="50" height="50" viewBox="0 0 50 50" fill="none" xmlns="http://www.w3.org/2000/svg">
<g opacity="0.8">
<path d="M12.2612 17.6839L10.2913 17.085C10.9429 16.3882 11.6466 15.7005 12.3956 15.0352L19.5933 16.3573L13.3728 14.207C14.247 13.5005 15.1801 12.837 16.1725 12.238L23.2493 14.0129L17.3731 11.5592C19.9476 10.2104 22.8821 9.32558 26.1743 9.29902C25.9617 10.7757 25.2439 14.4108 23.1234 17.3541H24.8896C27.3316 13.5442 27.7048 9.09629 27.7253 8.82447C27.7262 8.81105 27.7181 8.79781 27.7163 8.78531C27.8131 8.52434 27.6673 8.22166 27.3373 8.07069C16.0082 2.8713 10.0759 5.64488 7.54703 7.7619C3.66634 11.011 2.99134 16.4502 5.0021 18.9635C5.05213 19.0255 5.11283 19.0799 5.18083 19.1245C5.42564 19.2836 5.76191 19.3227 6.02369 19.2055C6.36005 19.0533 6.4474 18.7 6.22049 18.4145C4.72334 16.5441 5.09138 11.6042 8.6651 8.61343C11.2244 6.47195 16.039 4.77554 24.6606 8.19337C21.706 8.4044 19.051 9.22445 16.6933 10.4133L16.8115 7.45292L15.2023 11.2298C14.1575 11.8555 13.1776 12.5456 12.2639 13.2809L11.8053 8.42695L10.9024 14.2897C10.8971 14.3248 10.8954 14.3646 10.8988 14.4021C10.8999 14.4171 10.9099 14.4296 10.9133 14.4443C10.3384 14.967 9.7923 15.5015 9.27749 16.0427L8.34052 12.415L8.18306 17.2422C4.56552 21.4142 2.69614 25.5181 2.53923 25.8721C2.43271 26.1098 2.5501 26.3859 2.80659 26.5524C2.86364 26.5908 2.92908 26.6231 2.99973 26.6475C3.38593 26.7837 3.80253 26.6564 3.93296 26.3629C3.9713 26.2781 5.85492 22.1374 9.50404 17.9566L11.669 18.2069V17.806L12.2612 17.6839Z" fill="currentColor"/>
<path d="M8.91431 20.5218C8.52921 20.387 8.11343 20.5176 7.98391 20.8115C7.85612 21.1041 8.06423 21.4507 8.45144 21.5849C9.56248 21.971 10.6362 22.2641 11.6686 22.4669V21.2856C10.7836 21.1038 9.86707 20.8526 8.91431 20.5218Z" fill="currentColor"/>
<path d="M34.0519 17.2607C34.293 16.931 34.2887 16.4952 34.0447 16.2871C33.8014 16.0785 33.4099 16.1767 33.1679 16.5088C32.9239 16.8438 32.6969 17.1769 32.4778 17.509C32.8603 17.6306 33.2251 17.7842 33.5692 17.9687C33.7298 17.7328 33.879 17.4982 34.0519 17.2607Z" fill="currentColor"/>
<path d="M36.6801 13.9713C36.606 14.0016 36.5361 14.0437 36.4739 14.0962C36.2503 14.2834 36.1144 14.5944 36.151 14.8782C36.1983 15.2444 36.5123 15.431 36.8509 15.2966C39.0764 14.4085 43.6942 16.198 45.5167 20.487C46.8207 23.5582 47.0422 28.658 41.2643 35.9132C41.9221 33.0241 41.9097 30.2457 41.4582 27.644L44.2562 28.6184L41.1114 25.9801C40.8162 24.7982 40.4408 23.6601 40.0038 22.5716L44.781 23.5457L39.4342 20.9763C39.4032 20.9603 39.3648 20.9466 39.3281 20.94C39.3137 20.9366 39.2984 20.9428 39.2835 20.9416C38.9511 20.2395 38.5984 19.5613 38.2304 18.9113L41.9733 19.0702L37.4014 17.5148C34.4624 12.8394 31.0799 9.85829 30.7881 9.60517C30.5913 9.43412 30.2922 9.46607 30.0588 9.66268C30.0061 9.70631 29.9558 9.75998 29.9115 9.82068C29.6695 10.1496 29.6695 10.5858 29.9132 10.796C29.9831 10.8575 33.3953 13.8645 36.3339 18.5723L35.7486 19.9167C35.9165 20.1552 36.0699 20.407 36.207 20.6709L36.9388 19.5787C37.416 20.4043 37.8684 21.2776 38.2876 22.1886L37.0811 24.5242C37.0768 24.9883 37.0411 25.4351 36.9797 25.8659L38.7954 23.3641C39.2171 24.4055 39.5801 25.4913 39.8656 26.616L36.1074 32.8688L40.1651 27.9622C40.7065 30.8181 40.6996 33.8823 39.7663 37.0398C38.3728 36.3859 34.9354 34.5472 32.7402 31.4933C32.2759 31.6679 31.7808 31.7936 31.2586 31.8685C34.0958 36.4046 39.4796 38.5482 39.7701 38.6602C39.783 38.6658 39.7974 38.6615 39.8102 38.665C40.0325 38.8324 40.3643 38.7805 40.6042 38.5094C48.8746 29.1838 47.9467 22.7005 46.6577 19.6652C44.677 15.0069 39.6693 12.7796 36.6801 13.9713Z" fill="currentColor"/>
<path d="M19.412 24.4319C19.412 25.2492 19.2892 25.9519 19.0437 26.5399C18.7982 27.1254 18.4617 27.5764 18.0341 27.8929C17.6085 28.2068 17.1247 28.3638 16.5825 28.3638C16.0383 28.3638 15.5524 28.2068 15.1248 27.8929C14.6993 27.5764 14.3638 27.1242 14.1183 26.5362C13.8728 25.9481 13.75 25.2467 13.75 24.4319C13.75 23.6146 13.8728 22.9132 14.1183 22.3277C14.3638 21.7396 14.6993 21.2886 15.1248 20.9747C15.5524 20.6582 16.0383 20.5 16.5825 20.5C17.1247 20.5 17.6085 20.6582 18.0341 20.9747C18.4617 21.2886 18.7982 21.7396 19.0437 22.3277C19.2892 22.9132 19.412 23.6146 19.412 24.4319ZM18.4729 24.4319C18.4729 23.809 18.3901 23.2845 18.2243 22.8584C18.0607 22.4298 17.8356 22.1059 17.5492 21.8866C17.2648 21.6649 16.9426 21.554 16.5825 21.554C16.2204 21.554 15.8971 21.6649 15.6128 21.8866C15.3284 22.1059 15.1033 22.4298 14.9376 22.8584C14.774 23.2845 14.6921 23.809 14.6921 24.4319C14.6921 25.0548 14.774 25.5806 14.9376 26.0092C15.1033 26.4352 15.3284 26.7592 15.6128 26.9809C15.8971 27.2002 16.2204 27.3098 16.5825 27.3098C16.9426 27.3098 17.2648 27.2002 17.5492 26.9809C17.8356 26.7592 18.0607 26.4352 18.2243 26.0092C18.3901 25.5806 18.4729 25.0548 18.4729 24.4319Z" fill="currentColor"/>
<path d="M19.412 24.4319C19.412 25.2492 19.2892 25.9519 19.0437 26.5399C18.7982 27.1254 18.4617 27.5764 18.0341 27.8929C17.6085 28.2068 17.1247 28.3638 16.5825 28.3638C16.0383 28.3638 15.5524 28.2068 15.1248 27.8929C14.6993 27.5764 14.3638 27.1242 14.1183 26.5362C13.8728 25.9481 13.75 25.2467 13.75 24.4319C13.75 23.6146 13.8728 22.9132 14.1183 22.3277C14.3638 21.7396 14.6993 21.2886 15.1248 20.9747C15.5524 20.6582 16.0383 20.5 16.5825 20.5C17.1247 20.5 17.6085 20.6582 18.0341 20.9747C18.4617 21.2886 18.7982 21.7396 19.0437 22.3277C19.2892 22.9132 19.412 23.6146 19.412 24.4319ZM18.4729 24.4319C18.4729 23.809 18.3901 23.2845 18.2243 22.8584C18.0607 22.4298 17.8356 22.1059 17.5492 21.8866C17.2648 21.6649 16.9426 21.554 16.5825 21.554C16.2204 21.554 15.8971 21.6649 15.6128 21.8866C15.3284 22.1059 15.1033 22.4298 14.9376 22.8584C14.774 23.2845 14.6921 23.809 14.6921 24.4319C14.6921 25.0548 14.774 25.5806 14.9376 26.0092C15.1033 26.4352 15.3284 26.7592 15.6128 26.9809C15.8971 27.2002 16.2204 27.3098 16.5825 27.3098C16.9426 27.3098 17.2648 27.2002 17.5492 26.9809C17.8356 26.7592 18.0607 26.4352 18.2243 26.0092C18.3901 25.5806 18.4729 25.0548 18.4729 24.4319Z" fill="currentColor"/>
<path d="M22.6259 22.5183V23.4153H20.0511V22.5183H22.6259ZM20.7416 21.1429H21.6592V26.5735C21.6592 26.7903 21.6858 26.9535 21.739 27.0632C21.7922 27.1703 21.8607 27.2438 21.9446 27.2837C22.0305 27.321 22.1236 27.3397 22.2238 27.3397C22.2975 27.3397 22.3619 27.3335 22.4172 27.321C22.4724 27.3086 22.5154 27.2986 22.5461 27.2911L22.7118 28.2143C22.6586 28.2392 22.5829 28.2642 22.4847 28.2891C22.3865 28.3165 22.2637 28.3314 22.1164 28.3339C21.875 28.3389 21.65 28.2866 21.4413 28.1769C21.2326 28.0673 21.0638 27.8979 20.9349 27.6686C20.8061 27.4394 20.7416 27.1516 20.7416 26.8053V21.1429Z" fill="currentColor"/>
<path d="M22.6259 22.5183V23.4153H20.0511V22.5183H22.6259ZM20.7416 21.1429H21.6592V26.5735C21.6592 26.7903 21.6858 26.9535 21.739 27.0632C21.7922 27.1703 21.8607 27.2438 21.9446 27.2837C22.0305 27.321 22.1236 27.3397 22.2238 27.3397C22.2975 27.3397 22.3619 27.3335 22.4172 27.321C22.4724 27.3086 22.5154 27.2986 22.5461 27.2911L22.7118 28.2143C22.6586 28.2392 22.5829 28.2642 22.4847 28.2891C22.3865 28.3165 22.2637 28.3314 22.1164 28.3339C21.875 28.3389 21.65 28.2866 21.4413 28.1769C21.2326 28.0673 21.0638 27.8979 20.9349 27.6686C20.8061 27.4394 20.7416 27.1516 20.7416 26.8053V21.1429Z" fill="currentColor"/>
<path d="M24.5647 24.8505V28.2592H23.6471V20.6047H24.5524V23.4527H24.6107C24.7212 23.1437 24.89 22.8983 25.117 22.7164C25.3441 22.5345 25.6408 22.4435 26.007 22.4435C26.3303 22.4435 26.6126 22.5245 26.854 22.6865C27.0975 22.8484 27.2857 23.0901 27.4187 23.4116C27.5537 23.7305 27.6212 24.1292 27.6212 24.6076V28.2592H26.7036V24.7421C26.7036 24.321 26.6146 23.9946 26.4366 23.7629C26.2586 23.5287 26.0111 23.4116 25.694 23.4116C25.4771 23.4116 25.2828 23.4676 25.1109 23.5797C24.9411 23.6919 24.8071 23.8563 24.7089 24.0731C24.6127 24.2874 24.5647 24.5465 24.5647 24.8505Z" fill="currentColor"/>
<path d="M24.5647 24.8505V28.2592H23.6471V20.6047H24.5524V23.4527H24.6107C24.7212 23.1437 24.89 22.8983 25.117 22.7164C25.3441 22.5345 25.6408 22.4435 26.007 22.4435C26.3303 22.4435 26.6126 22.5245 26.854 22.6865C27.0975 22.8484 27.2857 23.0901 27.4187 23.4116C27.5537 23.7305 27.6212 24.1292 27.6212 24.6076V28.2592H26.7036V24.7421C26.7036 24.321 26.6146 23.9946 26.4366 23.7629C26.2586 23.5287 26.0111 23.4116 25.694 23.4116C25.4771 23.4116 25.2828 23.4676 25.1109 23.5797C24.9411 23.6919 24.8071 23.8563 24.7089 24.0731C24.6127 24.2874 24.5647 24.5465 24.5647 24.8505Z" fill="currentColor"/>
<path d="M30.7822 28.375C30.3177 28.375 29.9178 28.2542 29.5823 28.0125C29.2488 27.7683 28.991 27.4257 28.8089 26.9847C28.6289 26.5411 28.5389 26.0216 28.5389 25.4261C28.5389 24.8381 28.6289 24.3198 28.8089 23.8713C28.991 23.4228 29.2447 23.0727 29.57 22.821C29.8973 22.5694 30.2799 22.4435 30.7177 22.4435C30.9837 22.4435 31.2415 22.4971 31.4911 22.6042C31.7407 22.7114 31.9647 22.8796 32.1631 23.1088C32.3616 23.3381 32.5181 23.6358 32.6327 24.0021C32.7472 24.3659 32.8045 24.8082 32.8045 25.3289V25.7251H29.0575V24.8879H31.9053C31.9053 24.5939 31.8562 24.3335 31.758 24.1067C31.6598 23.8775 31.5217 23.6969 31.3438 23.5648C31.1678 23.4327 30.9612 23.3667 30.7239 23.3667C30.4661 23.3667 30.241 23.4439 30.0487 23.5984C29.8584 23.7504 29.7111 23.9498 29.6068 24.1964C29.5045 24.4406 29.4534 24.706 29.4534 24.9925V25.6466C29.4534 26.0303 29.5086 26.3568 29.6191 26.6259C29.7316 26.895 29.8881 27.1005 30.0886 27.2426C30.2891 27.3821 30.5234 27.4519 30.7914 27.4519C30.9653 27.4519 31.1238 27.422 31.267 27.3622C31.4102 27.2999 31.534 27.2077 31.6384 27.0856C31.7427 26.9635 31.8225 26.8127 31.8777 26.6333L32.7462 26.8239C32.6766 27.1354 32.5518 27.4083 32.3718 27.6425C32.1938 27.8742 31.9698 28.0548 31.6997 28.1844C31.4317 28.3115 31.1259 28.375 30.7822 28.375Z" fill="currentColor"/>
<path d="M30.7822 28.375C30.3177 28.375 29.9178 28.2542 29.5823 28.0125C29.2488 27.7683 28.991 27.4257 28.8089 26.9847C28.6289 26.5411 28.5389 26.0216 28.5389 25.4261C28.5389 24.8381 28.6289 24.3198 28.8089 23.8713C28.991 23.4228 29.2447 23.0727 29.57 22.821C29.8973 22.5694 30.2799 22.4435 30.7177 22.4435C30.9837 22.4435 31.2415 22.4971 31.4911 22.6042C31.7407 22.7114 31.9647 22.8796 32.1631 23.1088C32.3616 23.3381 32.5181 23.6358 32.6327 24.0021C32.7472 24.3659 32.8045 24.8082 32.8045 25.3289V25.7251H29.0575V24.8879H31.9053C31.9053 24.5939 31.8562 24.3335 31.758 24.1067C31.6598 23.8775 31.5217 23.6969 31.3438 23.5648C31.1678 23.4327 30.9612 23.3667 30.7239 23.3667C30.4661 23.3667 30.241 23.4439 30.0487 23.5984C29.8584 23.7504 29.7111 23.9498 29.6068 24.1964C29.5045 24.4406 29.4534 24.706 29.4534 24.9925V25.6466C29.4534 26.0303 29.5086 26.3568 29.6191 26.6259C29.7316 26.895 29.8881 27.1005 30.0886 27.2426C30.2891 27.3821 30.5234 27.4519 30.7914 27.4519C30.9653 27.4519 31.1238 27.422 31.267 27.3622C31.4102 27.2999 31.534 27.2077 31.6384 27.0856C31.7427 26.9635 31.8225 26.8127 31.8777 26.6333L32.7462 26.8239C32.6766 27.1354 32.5518 27.4083 32.3718 27.6425C32.1938 27.8742 31.9698 28.0548 31.6997 28.1844C31.4317 28.3115 31.1259 28.375 30.7822 28.375Z" fill="currentColor"/>
<path d="M33.7275 28.2592V22.5183H34.6144V23.4302H34.6635C34.7494 23.1213 34.9008 22.8783 35.1177 22.7014C35.3366 22.522 35.5842 22.4323 35.8604 22.4323C35.9176 22.4323 35.9852 22.4348 36.0629 22.4398C36.1427 22.4448 36.2051 22.451 36.2501 22.4585V23.5274C36.2133 23.515 36.1478 23.5013 36.0537 23.4863C35.9596 23.4689 35.8655 23.4601 35.7714 23.4601C35.5545 23.4601 35.3612 23.5162 35.1914 23.6283C35.0236 23.738 34.8906 23.8912 34.7924 24.0881C34.6942 24.2824 34.6451 24.5042 34.6451 24.7533V28.2592H33.7275Z" fill="currentColor"/>
<path d="M33.7275 28.2592V22.5183H34.6144V23.4302H34.6635C34.7494 23.1213 34.9008 22.8783 35.1177 22.7014C35.3366 22.522 35.5842 22.4323 35.8604 22.4323C35.9176 22.4323 35.9852 22.4348 36.0629 22.4398C36.1427 22.4448 36.2051 22.451 36.2501 22.4585V23.5274C36.2133 23.515 36.1478 23.5013 36.0537 23.4863C35.9596 23.4689 35.8655 23.4601 35.7714 23.4601C35.5545 23.4601 35.3612 23.5162 35.1914 23.6283C35.0236 23.738 34.8906 23.8912 34.7924 24.0881C34.6942 24.2824 34.6451 24.5042 34.6451 24.7533V28.2592H33.7275Z" fill="currentColor"/>
<path d="M25.6818 31.7777H25.2197C25.9177 33.241 26.4311 34.9591 26.7437 36.9421C26.8072 37.3443 27.1169 37.6497 27.4373 37.625C27.7559 37.6011 27.963 37.2548 27.9004 36.8479C27.5135 34.3941 26.8413 32.2931 25.9046 30.5375C25.83 30.4783 25.7533 30.422 25.6818 30.3599V31.7777Z" fill="currentColor"/>
<path d="M19.0751 35.9801C18.0399 35.5417 17.0147 35.031 16.0181 34.4372L15.3816 31.8803C15.1456 31.8765 14.9104 31.8709 14.6806 31.8602L14.8542 33.6967C13.9568 33.0854 13.0922 32.3982 12.2803 31.6272L11.6697 31.55V31.0129C10.5561 29.8567 9.55174 28.5306 8.71727 26.9969C9.34034 26.7715 10.3872 26.4351 11.6697 26.1705V24.6375C9.3669 25.0778 7.72398 25.7841 7.57 25.8526C7.55658 25.8578 7.54955 25.8709 7.53869 25.8781C7.26412 25.9161 7.06495 26.187 7.08714 26.5483C7.83352 38.9927 13.0735 42.9199 16.131 44.1537C20.8249 46.0486 25.9417 44.0821 27.2111 41.1261C27.2427 41.0532 27.2614 40.9744 27.27 40.8922C27.2959 40.602 27.1702 40.2868 26.9436 40.1117C26.6523 39.8855 26.2983 39.9763 26.1539 40.3098C25.2082 42.5109 20.6769 44.5115 16.3566 42.7679C13.2611 41.5185 9.49944 38.0691 8.4554 28.8534C10.0331 31.3608 12.0066 33.3175 14.1647 34.8378L11.4971 36.1273L15.5867 35.7682C16.6315 36.3961 17.7015 36.935 18.78 37.3963L14.7133 40.0858L20.311 38.1223C20.3442 38.1108 20.3809 38.0942 20.4113 38.0724C20.4239 38.0651 20.4301 38.0494 20.4417 38.0404C21.1729 38.3015 21.9022 38.5312 22.622 38.7306L19.8625 41.2657L24.1961 39.1318C29.5797 40.3613 34.08 40.0759 34.466 40.0481C34.7258 40.0303 34.9141 39.7964 34.9405 39.4922C34.9486 39.4245 34.9448 39.3516 34.9338 39.2763C34.8723 38.8728 34.5631 38.5652 34.2428 38.5878C34.1499 38.5946 29.6096 38.8818 24.2034 37.6297L22.0275 32.1005L23.0636 37.3464C22.1428 37.0997 21.2051 36.8023 20.2647 36.4543L18.7122 31.583C18.6056 31.6098 18.5002 31.6376 18.3887 31.6606L19.0751 35.9801Z" fill="currentColor"/>
</g>
</svg>
