<svg width="50" height="50" viewBox="0 0 50 50" fill="none" xmlns="http://www.w3.org/2000/svg">
<path d="M38.2182 17.9536C38.6208 17.9536 38.9471 17.6273 38.9471 17.2246V14.1145C38.9471 14.0875 38.9454 14.0608 38.9426 14.0346C38.9422 14.031 38.9414 14.0274 38.9409 14.0238C38.9371 13.9934 38.9312 13.9636 38.9238 13.9345C38.9224 13.9285 38.9209 13.9227 38.9193 13.9169C38.9103 13.8846 38.8993 13.8531 38.8861 13.8229C38.8848 13.82 38.8833 13.8173 38.882 13.8144C38.8692 13.7862 38.8546 13.759 38.8385 13.7329C38.8355 13.7279 38.8327 13.7229 38.8294 13.718C38.8117 13.6907 38.7921 13.6647 38.7709 13.6401C38.7667 13.635 38.762 13.6303 38.7575 13.6253C38.7357 13.6012 38.7126 13.5784 38.6877 13.5574C38.6867 13.5565 38.6859 13.5554 38.6848 13.5545L38.6823 13.5524C38.682 13.5522 38.6817 13.5519 38.6815 13.5517L29.4199 5.83369L27.1383 2.79158C27.0006 2.60798 26.7846 2.5 26.5551 2.5H23.445C23.2155 2.5 22.9996 2.60798 22.8618 2.79158L20.5803 5.8336L11.3187 13.5516C11.3184 13.5518 11.3181 13.5521 11.3179 13.5523L11.3154 13.5544C11.3143 13.5553 11.3136 13.5564 11.3125 13.5573C11.2876 13.5783 11.2646 13.6012 11.2427 13.6252C11.2382 13.6302 11.2337 13.6349 11.2293 13.64C11.2081 13.6646 11.1886 13.6906 11.1708 13.7179C11.1676 13.7228 11.1647 13.7278 11.1617 13.7328C11.1456 13.7589 11.1309 13.7861 11.1182 13.8143C11.1169 13.8172 11.1154 13.8199 11.1141 13.8228C11.1009 13.8531 11.09 13.8845 11.0809 13.9168C11.0792 13.9226 11.0779 13.9284 11.0764 13.9344C11.069 13.9635 11.0631 13.9933 11.0593 14.0237C11.0588 14.0273 11.058 14.0309 11.0576 14.0345C11.0547 14.0608 11.053 14.0875 11.053 14.1145V17.2246C11.053 17.6273 11.3793 17.9536 11.7819 17.9536C12.1845 17.9536 12.5109 17.6273 12.5109 17.2246V14.8434H20.3834V21.5484L11.3186 29.1024C11.3183 29.1026 11.318 29.1029 11.3178 29.1031L11.3153 29.1052C11.3142 29.1061 11.3135 29.1071 11.3124 29.108C11.2875 29.129 11.2645 29.152 11.2426 29.176C11.2381 29.1809 11.2336 29.1857 11.2292 29.1907C11.208 29.2153 11.1885 29.2414 11.1707 29.2687C11.1675 29.2735 11.1647 29.2786 11.1616 29.2836C11.1455 29.3097 11.1308 29.3368 11.1181 29.3651C11.1168 29.3679 11.1153 29.3706 11.114 29.3736C11.1008 29.4039 11.0899 29.4353 11.0808 29.4675C11.0791 29.4734 11.0778 29.4792 11.0763 29.4851C11.0689 29.5143 11.063 29.544 11.0592 29.5745C11.0587 29.578 11.0579 29.5816 11.0575 29.5852C11.0547 29.6116 11.053 29.6382 11.053 29.6652V32.7754C11.053 33.178 11.3793 33.5043 11.7819 33.5043C12.1845 33.5043 12.5109 33.178 12.5109 32.7754V30.3942H20.0716L14.3815 46.0421H13.337C12.9344 46.0421 12.6081 46.3684 12.6081 46.7711C12.6081 47.1737 12.9344 47.5 13.337 47.5H17.2247C17.6273 47.5 17.9536 47.1737 17.9536 46.7711C17.9536 46.3684 17.6273 46.0421 17.2247 46.0421H16.4303L25.0001 35.568L33.5698 46.0421H33.553C33.1504 46.0421 32.824 46.3684 32.824 46.7711C32.824 47.1737 33.1504 47.5 33.553 47.5H37.4407C37.8432 47.5 38.1696 47.1737 38.1696 46.7711C38.1696 46.3684 37.8432 46.0421 37.4407 46.0421H35.6186L29.9285 30.3942H37.4893V32.7754C37.4893 33.178 37.8156 33.5043 38.2182 33.5043C38.6208 33.5043 38.9471 33.178 38.9471 32.7754V29.6652C38.9471 29.6382 38.9454 29.6116 38.9426 29.5853C38.9422 29.5817 38.9414 29.5781 38.9409 29.5745C38.9371 29.5441 38.9312 29.5144 38.9238 29.4852C38.9224 29.4793 38.9209 29.4735 38.9193 29.4676C38.9103 29.4354 38.8993 29.4039 38.8861 29.3737C38.8848 29.3707 38.8833 29.368 38.882 29.3652C38.8692 29.3369 38.8546 29.3098 38.8385 29.2837C38.8355 29.2787 38.8327 29.2736 38.8294 29.2688C38.8117 29.2415 38.7921 29.2154 38.7709 29.1908C38.7667 29.1858 38.762 29.181 38.7575 29.1761C38.7357 29.152 38.7126 29.1291 38.6877 29.1081C38.6867 29.1072 38.6859 29.1062 38.6848 29.1053L38.6823 29.1032C38.682 29.103 38.6817 29.1027 38.6815 29.1025L29.6167 21.5484V14.8434H37.4893V17.2246C37.4893 17.6273 37.8156 17.9536 38.2182 17.9536ZM23.9691 10.2268L21.8413 12.3546V8.09895L23.9691 10.2268ZM22.8722 7.06803H27.1279L25.0001 9.19586L22.8722 7.06803ZM22.8722 13.3855L25.0001 11.2577L27.1279 13.3855H22.8722ZM27.1279 14.8434L25.0001 16.9712L22.8722 14.8434H27.1279ZM23.9691 18.0022L21.8413 20.13V15.8743L23.9691 18.0022ZM22.8722 21.1609L25.0001 19.0331L27.1279 21.1609H22.8722ZM27.1279 22.6188L25.0001 24.7466L22.8722 22.6188H27.1279ZM23.9691 25.7775L21.8413 27.9054V23.6497L23.9691 25.7775ZM25.0001 26.8085L27.1279 28.9363H22.8722L25.0001 26.8085ZM27.3495 30.3942L25.0001 33.2657L22.6506 30.3942H27.3495ZM26.031 25.7775L28.1588 23.6497V27.9054L26.031 25.7775ZM26.031 18.0022L28.1588 15.8743V20.13L26.031 18.0022ZM26.031 10.2268L28.1588 8.09895V12.3546L26.031 10.2268ZM23.8095 3.95788H26.1907L27.4299 5.61015H22.5703L23.8095 3.95788ZM20.3834 7.89543V13.3855H13.7953L20.3834 7.89543ZM20.3834 23.4462V28.9363H13.7953L20.3834 23.4462ZM17.0417 42.9926L21.3595 31.1184L24.0582 34.4169L17.0417 42.9926ZM25.9419 34.4169L28.6405 31.1184L32.9584 42.9926L25.9419 34.4169ZM29.6167 28.9363V23.4462L36.2049 28.9363H29.6167ZM29.6167 13.3855V7.89543L36.2049 13.3855H29.6167Z" fill="currentColor"/>
</svg>
