<svg width="50" height="50" viewBox="0 0 50 50" fill="none" xmlns="http://www.w3.org/2000/svg">
<path d="M38.3206 19.4898L37.3012 18.3143C37.2581 18.2647 37.2049 18.2249 37.145 18.1976C37.0852 18.1704 37.0203 18.1562 36.9545 18.1562C36.8888 18.1562 36.8238 18.1704 36.764 18.1976C36.7042 18.2249 36.6509 18.2647 36.6078 18.3143L35.6022 19.4898C34.7014 20.5141 34.2046 21.8314 34.2046 23.1955C34.2046 24.5595 34.7014 25.8768 35.6022 26.9011L36.6216 28.0766C36.6647 28.127 36.7182 28.1674 36.7785 28.1952C36.8387 28.2229 36.9043 28.2373 36.9706 28.2373C37.0361 28.2366 37.1008 28.222 37.1602 28.1942C37.2196 28.1665 37.2724 28.1264 37.315 28.0766L38.3206 26.8965C39.2229 25.8738 39.7208 24.557 39.7208 23.1932C39.7208 21.8294 39.2229 20.5125 38.3206 19.4898ZM36.943 27.0756L36.268 26.2995C35.5138 25.4414 35.0978 24.338 35.0978 23.1955C35.0978 22.053 35.5138 20.9495 36.268 20.0914L36.943 19.3154L37.6135 20.0914C38.3704 20.9482 38.7882 22.0521 38.7882 23.1955C38.7882 24.3388 38.3704 25.4427 37.6135 26.2995L36.943 27.0756Z" fill="currentColor"/>
<path d="M43.781 25.7806C43.7344 25.734 43.6783 25.6979 43.6165 25.675C43.5547 25.652 43.4886 25.6426 43.4229 25.6474L42.1555 25.7438C41.0212 25.8268 39.9545 26.3149 39.1502 27.1192C38.346 27.9234 37.8578 28.9901 37.7749 30.1244L37.6785 31.3918C37.6737 31.4576 37.6831 31.5236 37.706 31.5854C37.729 31.6472 37.765 31.7033 37.8116 31.75C37.8545 31.7925 37.9054 31.8262 37.9614 31.849C38.0173 31.8719 38.0772 31.8835 38.1377 31.8831H38.1698L39.4371 31.7867C40.5739 31.7069 41.6439 31.2202 42.451 30.4156C43.2581 29.6111 43.7482 28.5426 43.8315 27.4061L43.928 26.1387C43.931 26.0719 43.9195 26.0053 43.8941 25.9434C43.8687 25.8815 43.8301 25.826 43.781 25.7806ZM42.9132 27.3372C42.8462 28.2527 42.4522 29.1137 41.803 29.7628C41.1539 30.4119 40.293 30.8059 39.3775 30.8729L38.6474 30.928L38.7025 30.1979C38.7674 29.2824 39.1602 28.421 39.8088 27.7717C40.4573 27.1223 41.3182 26.7284 42.2336 26.6622L42.9683 26.6071L42.9132 27.3372Z" fill="currentColor"/>
<path d="M31.7869 25.7438L30.515 25.6474C30.4493 25.6426 30.3832 25.652 30.3215 25.675C30.2597 25.698 30.2036 25.7341 30.157 25.7807C30.1103 25.8273 30.0743 25.8834 30.0513 25.9452C30.0283 26.007 30.0189 26.073 30.0237 26.1387L30.1201 27.4061C30.2012 28.5411 30.6887 29.6088 31.4933 30.4134C32.298 31.218 33.3657 31.7056 34.5007 31.7867L35.7635 31.8831H35.8002C35.8633 31.8833 35.9258 31.8704 35.9837 31.8453C36.0416 31.8203 36.0937 31.7836 36.1368 31.7375C36.1799 31.6914 36.213 31.6369 36.2341 31.5774C36.2552 31.5179 36.2638 31.4547 36.2594 31.3918L36.1584 30.1244C36.0766 28.9912 35.5901 27.9252 34.7875 27.121C33.985 26.3167 32.92 25.8279 31.7869 25.7438ZM34.5742 30.8729C33.6586 30.8059 32.7977 30.4119 32.1486 29.7628C31.4995 29.1137 31.1055 28.2527 31.0385 27.3372L30.9742 26.6071L31.7043 26.6622C32.6202 26.7282 33.4816 27.122 34.1309 27.7713C34.7802 28.4206 35.174 29.282 35.24 30.1979L35.2951 30.928L34.5742 30.8729Z" fill="currentColor"/>
<path d="M36.9437 14.4388C34.2204 14.4362 31.6014 15.4856 29.6335 17.368C27.6656 19.2504 26.5008 21.8202 26.3824 24.5408H24.0865C23.4776 24.5408 22.8936 24.7827 22.4631 25.2133C22.0325 25.6438 21.7906 26.2278 21.7906 26.8367V44.9745C21.8173 45.3694 21.688 45.7591 21.4303 46.0597C21.1727 46.3602 20.8074 46.5476 20.413 46.5816H18.5763C18.1819 46.5476 17.8166 46.3602 17.559 46.0597C17.3014 45.7591 17.172 45.3694 17.1988 44.9745V5.02551C17.2275 4.38659 17.0021 3.76228 16.5719 3.28904C16.1417 2.8158 15.5416 2.53212 14.9028 2.5H13.0661C12.4273 2.53212 11.8273 2.8158 11.3971 3.28904C10.9668 3.76228 10.7415 4.38659 10.7702 5.02551V44.9745C10.7993 45.37 10.6709 45.761 10.4128 46.0621C10.1547 46.3632 9.78795 46.55 9.39264 46.5816H7.5559C7.16314 46.5499 6.79859 46.3651 6.54089 46.067C6.28318 45.7689 6.15297 45.3815 6.17835 44.9883V13.5204H6.63754C7.24645 13.5204 7.83043 13.2785 8.26099 12.8479C8.69156 12.4174 8.93345 11.8334 8.93345 11.2245V7.55102C8.93345 7.42924 8.88508 7.31244 8.79896 7.22633C8.71285 7.14021 8.59605 7.09184 8.47427 7.09184H8.01509V2.95918C8.01509 2.8374 7.96671 2.72061 7.88059 2.63449C7.79448 2.54838 7.67769 2.5 7.5559 2.5C7.43412 2.5 7.31732 2.54838 7.23121 2.63449C7.1451 2.72061 7.09672 2.8374 7.09672 2.95918V7.09184H4.34162V2.95918C4.34162 2.8374 4.29324 2.72061 4.20713 2.63449C4.12101 2.54838 4.00422 2.5 3.88243 2.5C3.76065 2.5 3.64386 2.54838 3.55774 2.63449C3.47163 2.72061 3.42325 2.8374 3.42325 2.95918V7.09184H2.96407C2.84228 7.09184 2.72549 7.14021 2.63937 7.22633C2.55326 7.31244 2.50488 7.42924 2.50488 7.55102V11.2245C2.50488 11.8334 2.74677 12.4174 3.17734 12.8479C3.60791 13.2785 4.19189 13.5204 4.8008 13.5204H5.25998V44.9883C5.23378 45.6252 5.46042 46.2466 5.8905 46.7171C6.32057 47.1876 6.91921 47.469 7.5559 47.5H9.39264C10.0293 47.469 10.628 47.1876 11.058 46.7171C11.4881 46.2466 11.7148 45.6252 11.6886 44.9883V5.03929C11.658 4.64205 11.7857 4.24885 12.0437 3.94527C12.3017 3.64169 12.6692 3.45231 13.0661 3.41837H14.9028C15.2972 3.45236 15.6625 3.63979 15.9201 3.94034C16.1778 4.2409 16.3071 4.63056 16.2804 5.02551V44.9745C16.2517 45.6134 16.4771 46.2377 16.9073 46.711C17.3375 47.1842 17.9376 47.4679 18.5763 47.5H20.413C21.0518 47.4679 21.6519 47.1842 22.0821 46.711C22.5123 46.2377 22.7377 45.6134 22.709 44.9745V26.8367C22.709 26.4714 22.8541 26.121 23.1124 25.8627C23.3708 25.6043 23.7212 25.4592 24.0865 25.4592H26.3824C26.4724 27.5261 27.1674 29.521 28.3812 31.1963C29.595 32.8717 31.2741 34.1536 33.2101 34.883C35.1461 35.6124 37.2537 35.7572 39.2712 35.2993C41.2887 34.8414 43.1273 33.801 44.5587 32.3074C45.9902 30.8137 46.9514 28.9325 47.3231 26.8973C47.6947 24.8621 47.4605 22.7626 46.6494 20.8594C45.8383 18.9562 44.4861 17.3331 42.7606 16.1917C41.0352 15.0503 39.0125 14.4407 36.9437 14.4388ZM3.42325 11.2245V8.0102H8.01509V11.2245C8.01509 11.5898 7.86995 11.9402 7.61161 12.1986C7.35327 12.4569 7.00288 12.602 6.63754 12.602H4.8008C4.43545 12.602 4.08507 12.4569 3.82673 12.1986C3.56838 11.9402 3.42325 11.5898 3.42325 11.2245ZM36.9437 34.6429C35.0365 34.6429 33.1721 34.0773 31.5864 33.0177C30.0006 31.9582 28.7647 30.4522 28.0348 28.6902C27.305 26.9282 27.114 24.9893 27.4861 23.1188C27.8582 21.2482 28.7765 19.53 30.1251 18.1815C31.4737 16.8329 33.1919 15.9145 35.0624 15.5424C36.933 15.1704 38.8718 15.3613 40.6338 16.0912C42.3958 16.821 43.9018 18.057 44.9614 19.6427C46.021 21.2285 46.5865 23.0928 46.5865 25C46.5865 27.5574 45.5706 30.0101 43.7622 31.8185C41.9538 33.6269 39.5011 34.6429 36.9437 34.6429Z" fill="currentColor"/>
</svg>
