<svg width="50" height="50" viewBox="0 0 50 50" fill="none" xmlns="http://www.w3.org/2000/svg">
<path d="M28.5201 9.00951L23.4056 8.95392H23.4017C23.264 8.95392 23.1422 9.04392 23.1012 9.17496L18.9318 22.5726L17.4308 27.4091C17.4216 27.4396 17.4163 27.4713 17.4163 27.5018V27.5852C17.4163 27.7586 17.5566 27.9002 17.7313 27.9002H25.1435L21.2111 40.64C21.1647 40.7922 21.2389 40.955 21.3845 41.0199C21.4255 41.0384 21.4692 41.0477 21.5115 41.0477C21.6187 41.0477 21.7233 40.9921 21.7816 40.8941L32.5386 22.8268C32.5968 22.7288 32.5982 22.6084 32.5412 22.5104C32.4857 22.4125 32.3811 22.3516 32.2673 22.3516H24.8021L28.8166 9.41719C28.8457 9.32188 28.8285 9.21864 28.7703 9.13923C28.712 9.05848 28.6194 9.00951 28.5201 9.00951ZM24.0754 22.5726C24.0463 22.6679 24.0635 22.7725 24.123 22.8519C24.1826 22.9327 24.2766 22.9803 24.3758 22.9803H31.7166L22.5903 38.3091L25.8715 27.6791C25.9007 27.5838 25.8834 27.4806 25.8239 27.3999C25.7643 27.3191 25.6703 27.2715 25.5711 27.2715H18.1337L19.534 22.7593L23.6333 9.58528L28.0912 9.63426L24.0754 22.5726Z" fill="currentColor"/>
<path d="M3.01885 26.9431L4.48277 25.6777C4.84147 36.685 13.9069 45.5294 25.0002 45.5294C29.6924 45.5294 34.2801 43.9053 37.9174 40.9563C41.5031 38.0496 44.0298 33.9835 45.0331 29.5057C45.0715 29.3362 44.9643 29.1681 44.7949 29.1297C44.6241 29.0914 44.4574 29.1986 44.419 29.368C42.4031 38.3686 34.2364 44.9007 25.0002 44.9007C14.2617 44.9007 5.48343 36.3501 5.11282 25.7003L6.55159 26.9445C6.61115 26.9961 6.68395 27.0212 6.75675 27.0212C6.84543 27.0212 6.93279 26.9842 6.995 26.9127C7.10883 26.7816 7.09427 26.5831 6.96323 26.4693L4.99104 24.7645C4.98575 24.7605 4.98045 24.7565 4.97516 24.7525C4.96854 24.7472 4.9606 24.742 4.95266 24.7367C4.94339 24.7314 4.93413 24.7261 4.92354 24.7208C4.9156 24.7168 4.90765 24.7128 4.89971 24.7102C4.88912 24.7062 4.87721 24.7022 4.86662 24.6996C4.85868 24.6969 4.85206 24.6956 4.84412 24.693C4.82559 24.689 4.80838 24.6877 4.78985 24.6877H4.78588H4.78191C4.76338 24.6877 4.74617 24.6903 4.72764 24.693C4.7197 24.6943 4.71308 24.6969 4.70514 24.6996C4.69323 24.7022 4.68264 24.7062 4.67205 24.7102C4.66411 24.7128 4.65617 24.7168 4.64822 24.7208C4.63896 24.7261 4.62837 24.73 4.61911 24.7367C4.61116 24.742 4.60455 24.7472 4.5966 24.7525C4.59131 24.7565 4.58602 24.7592 4.58072 24.7645L2.60853 26.4693C2.47749 26.5831 2.46293 26.7816 2.57676 26.9127C2.68927 27.0424 2.88781 27.057 3.01885 26.9431Z" fill="currentColor"/>
<path d="M46.9813 23.1839L45.5214 24.4453C45.2275 13.3812 36.1343 4.47058 25 4.47058C15.8101 4.47058 7.67516 10.6479 5.21852 19.491C5.17219 19.6578 5.27014 19.8312 5.43692 19.8788C5.60369 19.9251 5.77709 19.8272 5.82474 19.6604C8.20725 11.0873 16.092 5.10062 25 5.10062C35.7835 5.10062 44.5895 13.7213 44.8913 24.4334L43.4486 23.1852C43.3176 23.0714 43.119 23.0859 43.0052 23.217C42.8913 23.348 42.9059 23.5466 43.0369 23.6604L45.0091 25.3652C45.0687 25.4168 45.1415 25.442 45.2143 25.442C45.2871 25.442 45.3612 25.4168 45.4195 25.3652L47.3916 23.6604C47.5227 23.5466 47.5373 23.348 47.4234 23.217C47.3109 23.0846 47.1124 23.0714 46.9813 23.1839Z" fill="currentColor"/>
<path d="M26.8202 21.4436C26.852 21.4541 26.885 21.4581 26.9168 21.4581C27.0492 21.4581 27.1736 21.3734 27.216 21.2397L31.024 9.36289C31.0769 9.19743 30.9856 9.02007 30.8202 8.96712C30.6547 8.91418 30.4773 9.00551 30.4244 9.17096L26.6164 21.0478C26.5634 21.2132 26.6547 21.3906 26.8202 21.4436Z" fill="currentColor"/>
<path d="M23.3931 28.1938C23.2276 28.1435 23.0516 28.2361 23 28.4029L19.2607 40.6411C19.2104 40.8079 19.3031 40.9826 19.4699 41.0342C19.5003 41.0435 19.5308 41.0474 19.5625 41.0474C19.6975 41.0474 19.822 40.9601 19.863 40.8251L23.6022 28.5869C23.6525 28.4201 23.5599 28.2441 23.3931 28.1938Z" fill="currentColor"/>
</svg>
