<svg width="50" height="50" viewBox="0 0 50 50" fill="none" xmlns="http://www.w3.org/2000/svg">
<path d="M20.8752 32.4999H17.8752C17.461 32.4999 17.1252 32.8357 17.1252 33.2499C17.1252 33.6641 17.4611 33.9999 17.8752 33.9999H20.8752C21.2894 33.9999 21.6252 33.6641 21.6252 33.2499C21.6252 32.8357 21.2893 32.4999 20.8752 32.4999Z" fill="currentColor"/>
<path d="M20.8752 35.4997H17.8752C17.461 35.4997 17.1252 35.8354 17.1252 36.2497C17.1252 36.6639 17.4611 36.9996 17.8752 36.9996H20.8752C21.2894 36.9996 21.6252 36.6639 21.6252 36.2497C21.6252 35.8354 21.2893 35.4997 20.8752 35.4997Z" fill="currentColor"/>
<path d="M20.8752 38.4999H17.8752C17.461 38.4999 17.1252 38.8357 17.1252 39.2499C17.1252 39.6641 17.4611 39.9999 17.8752 39.9999H20.8752C21.2894 39.9999 21.6252 39.6641 21.6252 39.2499C21.6252 38.8357 21.2893 38.4999 20.8752 38.4999Z" fill="currentColor"/>
<path d="M20.8752 41.5H17.8752C17.461 41.5 17.1252 41.8358 17.1252 42.25C17.1252 42.6642 17.4611 42.9999 17.8752 42.9999H20.8752C21.2894 42.9999 21.6252 42.6641 21.6252 42.25C21.6252 41.8358 21.2893 41.5 20.8752 41.5Z" fill="currentColor"/>
<path d="M45.1146 19.9504L43.3749 21.5658V15.25H44.1249C44.5391 15.25 44.8748 14.9143 44.8748 14.5V11.5C44.8748 11.0857 44.539 10.75 44.1249 10.75H36.6249C36.2107 10.75 35.8749 11.0857 35.8749 11.5V14.4999C35.8749 14.9142 36.2107 15.2499 36.6249 15.2499H37.3749V27.1371L35.8748 28.53V20.5C35.8748 19.8451 35.0944 19.5048 34.6145 19.9504L29.1248 25.048V15.25H29.8748C30.289 15.25 30.6248 14.9143 30.6248 14.5V11.5C30.6248 11.0857 30.289 10.75 29.8748 10.75H20.8748C20.4606 10.75 20.1248 11.0857 20.1248 11.5V14.4999C20.1248 14.9142 20.4606 15.2499 20.8748 15.2499H21.6248V22.2622L14.8748 28.53V20.5C14.8748 19.8899 14.1853 19.5351 13.6889 19.8897L11.8748 21.1854V15.25H12.6248C13.039 15.25 13.3748 14.9143 13.3748 14.5V11.5C13.3748 11.0857 13.039 10.75 12.6248 10.75H5.125C4.71077 10.75 4.37503 11.0857 4.37503 11.5V14.4999C4.37503 14.9142 4.71077 15.2499 5.125 15.2499H5.87497V25.4711L3.18903 27.3897C2.99189 27.5305 2.875 27.7578 2.875 28V46.75C2.875 47.1642 3.21074 47.5 3.62497 47.5H45.625C46.0392 47.5 46.375 47.1642 46.375 46.75V20.5C46.375 19.8451 45.5945 19.5048 45.1146 19.9504ZM37.375 12.2499H43.375V13.75H37.375V12.2499ZM38.875 25.7441V15.2502H41.875V22.9586L38.875 25.7441ZM5.87497 12.2499H11.875V13.75H5.87497V12.2499ZM21.625 12.2499H29.1249V13.75H28.375H22.3749H21.625V12.2499ZM23.125 15.25H27.625V26.4407L25.375 28.53V20.5C25.375 20.459 25.3719 20.4194 25.3661 20.381C25.3579 20.3274 25.3426 20.2774 25.3243 20.2294C25.2902 20.14 25.2415 20.0596 25.1793 19.9926C25.1762 19.9891 25.1723 19.9863 25.1691 19.9829C25.1236 19.9357 25.0729 19.8943 25.0174 19.8606C25.0042 19.8526 24.9899 19.8465 24.9763 19.8393C24.9284 19.814 24.8787 19.7922 24.8266 19.7774C24.8213 19.7759 24.8158 19.7754 24.8106 19.7741C24.7484 19.7579 24.6843 19.7486 24.6196 19.7486C24.6068 19.7486 24.594 19.7507 24.5812 19.7514C24.5588 19.7525 24.5363 19.753 24.514 19.7563C24.4593 19.7643 24.4054 19.7807 24.3524 19.8017C24.303 19.8212 24.2543 19.8446 24.2079 19.8761C24.1937 19.8857 24.1806 19.8981 24.1668 19.9089C24.1494 19.9226 24.1314 19.935 24.1146 19.9506L23.125 20.8695V15.25ZM7.375 15.2501H10.375V22.2569L10.0015 22.5236L7.375 24.3998V15.2501ZM44.8749 45.9999H4.37494V28.386L7.05912 26.4687C7.05973 26.4683 7.06035 26.468 7.06088 26.4677L10.8116 23.7884L13.3749 21.9575V30.25C13.3749 30.9049 14.1553 31.2452 14.6352 30.7996L22.8836 23.1404C22.8841 23.1398 22.8847 23.1396 22.8852 23.1391L23.8749 22.22V30.2499C23.8749 30.3318 23.8871 30.4088 23.9093 30.4799C23.9366 30.5668 23.9803 30.6437 24.0338 30.7115C24.1772 30.8933 24.3999 31.0017 24.6302 31.0015C24.6732 31.0015 24.7163 30.9963 24.7591 30.9887C24.8079 30.9799 24.8562 30.9655 24.9035 30.9462C24.9363 30.9328 24.9684 30.9168 25 30.8982C25.0467 30.8706 25.0924 30.8393 25.1351 30.7996L34.3748 22.2199V30.25C34.3748 30.9049 35.1553 31.2452 35.6352 30.7996L43.0254 23.9372L43.1351 23.8353L44.8748 22.2199L44.8749 45.9999Z" fill="currentColor"/>
<path d="M10.3757 32.4999H7.3757C6.96147 32.4999 6.62573 32.8357 6.62573 33.2499C6.62573 33.6641 6.96156 33.9999 7.3757 33.9999H10.3757C10.7899 33.9999 11.1256 33.6641 11.1256 33.2499C11.1256 32.8357 10.7899 32.4999 10.3757 32.4999Z" fill="currentColor"/>
<path d="M10.3757 35.4997H7.3757C6.96147 35.4997 6.62573 35.8354 6.62573 36.2497C6.62573 36.6639 6.96156 36.9996 7.3757 36.9996H10.3757C10.7899 36.9996 11.1256 36.6639 11.1256 36.2497C11.1256 35.8354 10.7899 35.4997 10.3757 35.4997Z" fill="currentColor"/>
<path d="M10.3757 38.4999H7.3757C6.96147 38.4999 6.62573 38.8357 6.62573 39.2499C6.62573 39.6641 6.96156 39.9999 7.3757 39.9999H10.3757C10.7899 39.9999 11.1256 39.6641 11.1256 39.2499C11.1256 38.8357 10.7899 38.4999 10.3757 38.4999Z" fill="currentColor"/>
<path d="M10.3757 41.5H7.3757C6.96147 41.5 6.62573 41.8358 6.62573 42.25C6.62573 42.6642 6.96156 42.9999 7.3757 42.9999H10.3757C10.7899 42.9999 11.1256 42.6641 11.1256 42.25C11.1256 41.8358 10.7899 41.5 10.3757 41.5Z" fill="currentColor"/>
<path d="M31.3762 32.4999H28.3762C27.962 32.4999 27.6262 32.8357 27.6262 33.2499C27.6262 33.6641 27.962 33.9999 28.3762 33.9999H31.3762C31.7904 33.9999 32.1261 33.6641 32.1261 33.2499C32.1261 32.8357 31.7904 32.4999 31.3762 32.4999Z" fill="currentColor"/>
<path d="M31.3762 35.4997H28.3762C27.962 35.4997 27.6262 35.8354 27.6262 36.2497C27.6262 36.6639 27.962 36.9996 28.3762 36.9996H31.3762C31.7904 36.9996 32.1261 36.6639 32.1261 36.2497C32.1261 35.8354 31.7904 35.4997 31.3762 35.4997Z" fill="currentColor"/>
<path d="M31.3762 38.4999H28.3762C27.962 38.4999 27.6262 38.8357 27.6262 39.2499C27.6262 39.6641 27.962 39.9999 28.3762 39.9999H31.3762C31.7904 39.9999 32.1261 39.6641 32.1261 39.2499C32.1261 38.8357 31.7904 38.4999 31.3762 38.4999Z" fill="currentColor"/>
<path d="M31.3762 41.5H28.3762C27.962 41.5 27.6262 41.8358 27.6262 42.25C27.6262 42.6642 27.962 42.9999 28.3762 42.9999H31.3762C31.7904 42.9999 32.1261 42.6641 32.1261 42.25C32.1262 41.8358 31.7904 41.5 31.3762 41.5Z" fill="currentColor"/>
<path d="M41.8752 32.4999H38.8752C38.461 32.4999 38.1252 32.8357 38.1252 33.2499C38.1252 33.6641 38.4611 33.9999 38.8752 33.9999H41.8752C42.2894 33.9999 42.6252 33.6641 42.6252 33.2499C42.6252 32.8357 42.2894 32.4999 41.8752 32.4999Z" fill="currentColor"/>
<path d="M41.8752 35.4997H38.8752C38.461 35.4997 38.1252 35.8354 38.1252 36.2497C38.1252 36.6639 38.4611 36.9996 38.8752 36.9996H41.8752C42.2894 36.9996 42.6252 36.6639 42.6252 36.2497C42.6252 35.8354 42.2894 35.4997 41.8752 35.4997Z" fill="currentColor"/>
<path d="M41.8752 38.4999H38.8752C38.461 38.4999 38.1252 38.8357 38.1252 39.2499C38.1252 39.6641 38.4611 39.9999 38.8752 39.9999H41.8752C42.2894 39.9999 42.6252 39.6641 42.6252 39.2499C42.6252 38.8357 42.2894 38.4999 41.8752 38.4999Z" fill="currentColor"/>
<path d="M41.8752 41.5H38.8752C38.461 41.5 38.1252 41.8358 38.1252 42.25C38.1252 42.6642 38.4611 42.9999 38.8752 42.9999H41.8752C42.2894 42.9999 42.6252 42.6641 42.6252 42.25C42.6252 41.8358 42.2894 41.5 41.8752 41.5Z" fill="currentColor"/>
<path d="M8.87546 9.25C9.28969 9.25 9.62543 8.91425 9.62543 8.50003C9.62543 7.67676 10.3022 7 11.1255 7H14.1254C15.3646 7 16.3754 5.98926 16.3754 4.75C16.3754 3.51083 15.3647 2.5 14.1254 2.5H11.1255C10.7112 2.5 10.3755 2.83574 10.3755 3.24997C10.3755 3.6642 10.7112 3.99994 11.1255 3.99994H14.1254C14.5362 3.99994 14.8754 4.33911 14.8754 4.74991C14.8754 5.16071 14.5362 5.49988 14.1254 5.49988H11.1255C9.47382 5.49997 8.12549 6.8483 8.12549 8.50003C8.12549 8.91417 8.46132 9.25 8.87546 9.25Z" fill="currentColor"/>
<path d="M25.375 9.25C25.7892 9.25 26.1249 8.91425 26.1249 8.50003C26.1249 7.67676 26.8017 7 27.625 7H30.6249C31.8641 7 32.8749 5.98926 32.8749 4.75C32.8749 3.51074 31.8642 2.5 30.6249 2.5H27.625C27.2107 2.5 26.875 2.83574 26.875 3.24997C26.875 3.6642 27.2107 3.99994 27.625 3.99994H30.6249C31.0357 3.99994 31.3749 4.33911 31.3749 4.74991C31.3749 5.16071 31.0357 5.49988 30.6249 5.49988H27.625C25.9732 5.49988 24.625 6.84812 24.625 8.49985C24.6249 8.91417 24.9607 9.25 25.375 9.25Z" fill="currentColor"/>
<path d="M44.8752 2.5H42.6252C42.2111 2.5 41.8752 2.83574 41.8752 3.24997C41.8752 3.6642 42.211 3.99994 42.6252 3.99994H44.8752C45.286 3.99994 45.6252 4.33911 45.6252 4.74991C45.6252 5.16071 45.286 5.49988 44.8752 5.49988H42.6252C40.9735 5.49988 39.6252 6.84812 39.6252 8.49985C39.6252 8.91408 39.961 9.24982 40.3752 9.24982C40.7894 9.24982 41.1252 8.91408 41.1252 8.49985C41.1252 7.67658 41.8019 6.99982 42.6252 6.99982H44.8752C46.1144 6.99982 47.1252 5.98908 47.1252 4.74982C47.1252 3.51074 46.1145 2.5 44.8752 2.5Z" fill="currentColor"/>
</svg>
