<svg width="50" height="50" viewBox="0 0 50 50" fill="none" xmlns="http://www.w3.org/2000/svg">
<path d="M46.8261 19.5341L40.312 12.3461C39.7879 11.822 39.114 11.5224 38.4401 11.5224H30.9526V9.95004C30.9526 8.30282 29.6797 7.02991 28.1073 7.02991H5.42013C3.77291 7.02999 2.5 8.30282 2.5 9.95013V27.995V29.4926V35.8569C2.5 37.2795 3.69797 38.4776 5.12066 38.4776H6.2967C6.65426 41.0358 8.81962 42.9701 11.4851 42.9701C14.1506 42.9701 16.316 41.0358 16.6735 38.4776H29.4551H30.9526H33.2518C33.6094 41.0358 35.7747 42.9701 38.4402 42.9701C41.1057 42.9701 43.2711 41.0358 43.6286 38.4776H47.4252H47.5V21.2563C47.5 20.5824 47.2754 19.9834 46.8261 19.5341ZM45.6281 20.5075C45.8528 20.6573 45.9276 20.9568 45.9276 21.1814V23.5025H34.6963V16.015H41.5099L45.6281 20.5075ZM3.99753 22.7538H14.4801C14.9294 22.7538 15.2288 22.4543 15.2288 22.0051C15.2288 21.5558 14.9294 21.2564 14.4801 21.2564H3.99753V19.0101H11.485C11.9343 19.0101 12.2338 18.7106 12.2338 18.2614C12.2338 17.8121 11.9343 17.5126 11.485 17.5126H3.99753V9.95013C3.99753 9.12647 4.59657 8.52753 5.42013 8.52753H28.0325C28.8561 8.52753 29.4551 9.20141 29.4551 9.95013V11.5225V27.995H3.99753V22.7538ZM11.485 41.4726C9.38855 41.4726 7.74124 39.8254 7.74124 37.7288C7.74124 35.6323 9.38846 33.985 11.485 33.985C13.5815 33.985 15.2288 35.6322 15.2288 37.7288C15.2288 39.8254 13.5815 41.4726 11.485 41.4726ZM29.4551 36.9801H16.6734C16.3382 34.5812 14.4131 32.7318 11.9767 32.5107C11.9589 32.509 11.9408 32.5082 11.9229 32.5067C11.8615 32.5018 11.8003 32.4967 11.7383 32.4938C11.6544 32.4897 11.57 32.4875 11.485 32.4875C11.4001 32.4875 11.3157 32.4897 11.2317 32.4938C11.1698 32.4967 11.1085 32.5017 11.0472 32.5067C11.0293 32.5082 11.0112 32.509 10.9934 32.5107C8.557 32.7318 6.63189 34.5812 6.29661 36.9801H5.12066C4.52163 36.9801 3.99753 36.456 3.99753 35.8569V29.4926H29.4551V36.9801ZM38.4401 41.4726C36.3436 41.4726 34.6963 39.8254 34.6963 37.7288C34.6963 35.6323 36.3436 33.985 38.4401 33.985C40.5366 33.985 42.1839 35.6322 42.1839 37.7288C42.1839 39.8254 40.5366 41.4726 38.4401 41.4726ZM43.6285 36.9801C43.2933 34.5812 41.3682 32.7318 38.9318 32.5107C38.9139 32.509 38.8959 32.5082 38.878 32.5067C38.8166 32.5018 38.7554 32.4967 38.6934 32.4938C38.6095 32.4897 38.5251 32.4875 38.4401 32.4875C38.3552 32.4875 38.2708 32.4897 38.1868 32.4938C38.1249 32.4967 38.0636 32.5017 38.0023 32.5067C37.9844 32.5082 37.9663 32.509 37.9485 32.5107C35.5121 32.7318 33.587 34.5812 33.2517 36.9801H30.9525V29.4926V27.995V13.02H38.4401C38.6647 13.02 38.9642 13.1697 39.1888 13.3194L40.262 14.5174H34.4717C33.7978 14.5174 33.1988 15.1164 33.1988 15.7903V23.7271C33.1988 24.4009 33.7978 25 34.4717 25H45.9276V28.7438H42.1838C41.7346 28.7438 41.4351 29.0432 41.4351 29.4925C41.4351 29.9417 41.7346 30.2412 42.1838 30.2412H45.9276V36.98L43.6285 36.9801Z" fill="currentColor"/>
<path d="M11.4851 36.2318C10.6614 36.2318 9.98755 36.9056 9.98755 37.7293C9.98755 38.5529 10.6614 39.2268 11.4851 39.2268C12.3087 39.2268 12.9826 38.5529 12.9826 37.7293C12.9826 36.9056 12.3087 36.2318 11.4851 36.2318Z" fill="currentColor"/>
<path d="M38.4404 36.2318C37.6167 36.2318 36.9429 36.9056 36.9429 37.7293C36.9429 38.5529 37.6167 39.2268 38.4404 39.2268C39.2641 39.2268 39.9379 38.5529 39.9379 37.7293C39.9379 36.9056 39.2641 36.2318 38.4404 36.2318Z" fill="currentColor"/>
</svg>
