<svg width="50" height="50" viewBox="0 0 50 50" fill="none" xmlns="http://www.w3.org/2000/svg">
<path d="M5.21467 16.4063C5.23172 15.1275 5.63342 13.8835 6.36744 12.8363C7.10147 11.789 8.13381 10.9871 9.33004 10.5348C10.136 10.5348 20.8595 10.8871 27.8946 10.8871C33.9262 10.8871 34.1611 10.6469 34.2998 10.5081C34.9724 9.83556 36.7338 8.83741 37.7907 8.83741H37.8227C38.8348 9.24893 39.7348 9.89468 40.4489 10.7216H40.7958L41.3616 10.9405C42.7025 11.461 43.9244 12.2471 44.9539 13.2517C44.3935 11.6504 42.6801 7.82858 38.7462 6.31267L38.3832 6.17389H37.796C36.1947 6.17389 34.2625 7.13468 32.9921 8.10614C32.4583 8.15418 31.0705 8.22357 27.8732 8.22357C20.5819 8.22357 9.45281 7.87128 9.34606 7.87128H8.94039L8.55074 7.99405C6.74087 8.64373 5.18208 9.8478 4.09626 11.4348C3.01044 13.0219 2.45294 14.911 2.50311 16.8333C2.50311 19.1125 2.50311 21.301 3.30911 22.5873C3.28982 20.3795 3.95557 18.22 5.21467 16.4063ZM47.3078 19.8544C47.2491 19.6196 45.7973 14.1004 40.9026 12.2002L40.5396 12.0614H39.9525C38.3512 12.0614 36.4189 13.0222 35.1485 13.9936C34.6148 14.0417 33.227 14.1111 30.0297 14.1111C22.7384 14.1111 11.6092 13.7588 11.5025 13.7588H11.0968L10.7072 13.8815C8.89731 14.5312 7.33851 15.7353 6.25269 17.3223C5.16687 18.9094 4.60937 20.7985 4.65955 22.7208C4.65955 24.7758 4.65955 26.7561 5.2467 28.0585C5.64575 27.6253 6.07955 27.2254 6.54376 26.8628L6.60247 26.8201L7.45651 26.0248C7.35414 24.9248 7.31138 23.8201 7.3284 22.7155C7.3284 18.0023 11.0061 16.5931 11.4651 16.4383C12.2711 16.4383 22.9946 16.7906 30.0297 16.7906C36.0613 16.7906 36.2962 16.5504 36.4349 16.4116C37.1075 15.7391 38.8689 14.7409 39.9258 14.7409H39.9578C43.2405 16.038 44.4842 19.7477 44.687 20.4309C44.6247 20.4744 44.5493 20.4952 44.4735 20.4896C44.2027 20.4683 43.9409 20.3823 43.7102 20.2388C43.0033 19.9748 42.2476 19.8673 41.4951 19.9238C40.1672 19.9458 38.8414 20.0403 37.5238 20.2067L37.3103 20.2334V20.4469C37.2066 21.7955 36.9285 23.125 36.483 24.4022C36.8163 24.1788 37.2079 24.0581 37.6092 24.0552C38.2007 24.0797 38.7619 24.3232 39.1839 24.7384C39.4055 24.0619 39.5838 23.372 39.7176 22.6727C40.4062 22.6194 41.0147 22.5927 41.5324 22.5927C41.8895 22.5839 42.2466 22.6053 42.6 22.6567C43.1825 22.9728 43.8323 23.1448 44.4949 23.1585C45.1061 23.1726 45.706 22.9919 46.2078 22.6427C46.7096 22.2934 47.0874 21.7936 47.2865 21.2156L47.5 20.5537L47.3078 19.8544ZM28.6686 29.6545L29.2023 30.0762V40.6982H28.0547V30.1295L28.6686 29.6651M10.8033 29.6651L11.337 30.0868V40.7035H10.1894V30.1349L10.8086 29.6651M19.7386 29.6651L20.2723 30.0868V40.6982H19.1247V30.1295L19.7439 29.6598M37.6092 29.6598L38.143 30.0815V40.6982H36.9954V30.1295L37.6146 29.6598M37.6146 25.6352C37.4025 25.6807 37.2134 25.7998 37.0808 25.9715C36.2186 26.7323 35.3152 27.4451 34.3746 28.1065C34.2003 28.2225 34.0593 28.382 33.9657 28.5693C33.8721 28.7566 33.829 28.965 33.8408 29.1741V32.5208H32.4583V29.1741C32.4764 28.9642 32.4362 28.7534 32.342 28.565C32.2478 28.3766 32.1033 28.218 31.9246 28.1065C31.9246 28.1065 30.2272 26.7828 29.2557 25.9394C29.1969 25.8496 29.1159 25.7765 29.0205 25.7271C28.9252 25.6777 28.8187 25.6537 28.7114 25.6574C28.6041 25.6612 28.4996 25.6926 28.4079 25.7485C28.3163 25.8044 28.2406 25.8831 28.1882 25.9768C27.326 26.7376 26.4225 27.4504 25.482 28.1119C25.308 28.2282 25.1674 28.3878 25.0738 28.575C24.9802 28.7622 24.9369 28.9705 24.9482 29.1794V32.5262H23.5657V29.1794C23.5838 28.9696 23.5435 28.7588 23.4493 28.5704C23.3552 28.382 23.2107 28.2233 23.0319 28.1119C23.0319 28.1119 21.3346 26.7881 20.3631 25.9448C20.3043 25.8549 20.2233 25.7818 20.1279 25.7324C20.0326 25.683 19.9261 25.659 19.8188 25.6628C19.7115 25.6665 19.6069 25.6979 19.5153 25.7538C19.4236 25.8098 19.348 25.8884 19.2955 25.9821C18.4333 26.743 17.5299 27.4557 16.5893 28.1172C16.415 28.2332 16.2741 28.3927 16.1804 28.58C16.0868 28.7672 16.0438 28.9757 16.0556 29.1848V32.5315H14.5343V29.1848C14.553 28.9748 14.513 28.7638 14.4188 28.5753C14.3245 28.3868 14.1797 28.2282 14.0005 28.1172C14.0005 28.1172 12.3031 26.7935 11.3317 25.9501C11.2729 25.8603 11.1919 25.7871 11.0965 25.7377C11.0012 25.6883 10.8947 25.6644 10.7874 25.6681C10.6801 25.6719 10.5755 25.7032 10.4839 25.7592C10.3922 25.8151 10.3165 25.8937 10.2641 25.9875C9.40194 26.7483 8.4985 27.4611 7.55792 28.1225C7.38362 28.2385 7.24267 28.3981 7.14904 28.5853C7.05541 28.7726 7.01236 28.9811 7.02415 29.1901V32.5315H5.16663C5.09653 32.5315 5.02712 32.5453 4.96236 32.5721C4.8976 32.599 4.83876 32.6383 4.7892 32.6878C4.73963 32.7374 4.70031 32.7962 4.67349 32.861C4.64667 32.9258 4.63286 32.9952 4.63286 33.0653V35.2004C4.63286 35.2704 4.64667 35.3399 4.67349 35.4046C4.70031 35.4694 4.73963 35.5282 4.7892 35.5778C4.83876 35.6274 4.8976 35.6667 4.96236 35.6935C5.02712 35.7203 5.09653 35.7341 5.16663 35.7341H7.02415V40.6235H5.16663C5.09653 40.6235 5.02712 40.6373 4.96236 40.6641C4.8976 40.6909 4.83876 40.7302 4.7892 40.7798C4.73963 40.8294 4.70031 40.8882 4.67349 40.953C4.64667 41.0177 4.63286 41.0871 4.63286 41.1572V43.2923C4.63286 43.3624 4.64667 43.4318 4.67349 43.4966C4.70031 43.5613 4.73963 43.6202 4.7892 43.6698C4.83876 43.7193 4.8976 43.7586 4.96236 43.7855C5.02712 43.8123 5.09653 43.8261 5.16663 43.8261H43.2245C43.2946 43.8261 43.364 43.8123 43.4288 43.7855C43.4935 43.7586 43.5524 43.7193 43.6019 43.6698C43.6515 43.6202 43.6908 43.5613 43.7176 43.4966C43.7445 43.4318 43.7583 43.3624 43.7583 43.2923V41.1572C43.7583 41.0871 43.7445 41.0177 43.7176 40.953C43.6908 40.8882 43.6515 40.8294 43.6019 40.7798C43.5524 40.7302 43.4935 40.6909 43.4288 40.6641C43.364 40.6373 43.2946 40.6235 43.2245 40.6235H41.3296V35.7715H43.1871C43.2572 35.7715 43.3266 35.7577 43.3914 35.7309C43.4562 35.704 43.515 35.6647 43.5646 35.6151C43.6141 35.5656 43.6534 35.5067 43.6803 35.442C43.7071 35.3772 43.7209 35.3078 43.7209 35.2377V33.1026C43.7209 33.0325 43.7071 32.9631 43.6803 32.8984C43.6534 32.8336 43.6141 32.7748 43.5646 32.7252C43.515 32.6756 43.4562 32.6363 43.3914 32.6095C43.3266 32.5827 43.2572 32.5689 43.1871 32.5689H41.3403V29.2221C41.3584 29.0123 41.3181 28.8015 41.2239 28.6131C41.1297 28.4247 40.9853 28.266 40.8065 28.1546C40.8065 28.1546 39.1091 26.8308 38.1377 25.9875C38 25.8278 37.8115 25.7203 37.6039 25.6832L37.6146 25.6352ZM32.4263 40.6555V35.7715H33.8088V40.6555H32.4263ZM23.4963 40.6555V35.7715H24.8788V40.6555H23.4963ZM14.5663 40.6555V35.7715H15.9488V40.6555H14.5343H14.5663Z" fill="currentColor"/>
</svg>
