<svg width="50" height="50" viewBox="0 0 50 50" fill="none" xmlns="http://www.w3.org/2000/svg">
<path d="M10.1621 36.3464H7.89187C7.42181 36.3464 7.04053 36.7278 7.04053 37.1978C7.04053 37.6678 7.4219 38.0491 7.89187 38.0491H10.1621C10.6322 38.0491 11.0135 37.6678 11.0135 37.1978C11.0135 36.7278 10.6322 36.3464 10.1621 36.3464Z" fill="currentColor"/>
<path d="M10.1621 40.887H7.89187C7.42181 40.887 7.04053 41.2683 7.04053 41.7383C7.04053 42.2083 7.4219 42.5897 7.89187 42.5897H10.1621C10.6322 42.5897 11.0135 42.2083 11.0135 41.7383C11.0135 41.2683 10.6322 40.887 10.1621 40.887Z" fill="currentColor"/>
<path d="M16.973 36.3464H15.8379C15.3679 36.3464 14.9866 36.7278 14.9866 37.1978C14.9866 37.6678 15.3679 38.0491 15.8379 38.0491H16.973C17.4431 38.0491 17.8244 37.6678 17.8244 37.1978C17.8244 36.7278 17.4431 36.3464 16.973 36.3464Z" fill="currentColor"/>
<path d="M16.973 40.887H15.8379C15.3679 40.887 14.9866 41.2683 14.9866 41.7383C14.9866 42.2083 15.3679 42.5897 15.8379 42.5897H16.973C17.4431 42.5897 17.8244 42.2083 17.8244 41.7383C17.8244 41.2683 17.4431 40.887 16.973 40.887Z" fill="currentColor"/>
<path d="M10.1621 31.8059H7.89187C7.42181 31.8059 7.04053 32.1873 7.04053 32.6573C7.04053 33.1272 7.4219 33.5086 7.89187 33.5086H10.1621C10.6322 33.5086 11.0135 33.1272 11.0135 32.6573C11.0135 32.1873 10.6322 31.8059 10.1621 31.8059Z" fill="currentColor"/>
<path d="M22.6488 28.4004C22.1787 28.4004 21.7974 28.7817 21.7974 29.2517V30.8979H15.5542V23.576C15.5542 23.1059 15.1728 22.7246 14.7028 22.7246C14.2327 22.7246 13.8515 23.106 13.8515 23.576V26.13H4.20269V21.3056C4.20269 20.8356 3.82132 20.4543 3.35135 20.4543C2.88138 20.4543 2.5 20.8358 2.5 21.3057V45.7113C2.5 46.494 3.13628 47.1302 3.91891 47.1302H22.0812C22.8639 47.1302 23.5001 46.494 23.5001 45.7113V29.2518C23.5002 28.7817 23.1189 28.4004 22.6488 28.4004ZM21.7974 45.4276H4.20269V27.8328H13.8515V32.6007H21.7974V45.4276Z" fill="currentColor"/>
<path d="M46.487 2.53265H11.0896C10.7293 2.53265 10.3934 2.72662 10.2099 3.04256L7.15261 8.39242C6.97354 8.70498 6.97411 9.09301 7.15486 9.40567C7.33551 9.7172 7.67142 9.91117 8.0317 9.91117H18.7058C18.6809 9.99095 18.6559 13.2478 18.6559 13.2478H10.6794C9.92499 13.2478 9.31092 13.862 9.31092 14.6169V17.7917C9.31092 18.5466 9.92508 19.1608 10.6794 19.1608H27.8075C28.5619 19.1608 29.1759 18.5466 29.1759 17.7917V14.6169C29.1759 13.862 28.5618 13.2478 27.8075 13.2478H20.3586C20.3586 13.2478 20.3331 9.99095 20.3088 9.91117H35.3965V47.4674H37.0992V41.1698L41.0723 45.1429V47.4675H42.775V9.91108H46.4869C47.0457 9.91108 47.5001 9.45658 47.5001 8.89679V3.54581C47.5002 2.98715 47.0457 2.53265 46.487 2.53265ZM27.4732 17.4581H11.0136V14.9505H27.4732V17.4581ZM37.0992 15.415L40.3361 18.6519L37.0992 21.8888V15.415ZM37.0992 23.8466L40.3361 27.0835L37.0992 30.3204V23.8466ZM38.5287 22.8677L41.0723 20.3242V25.4113L38.5287 22.8677ZM41.0723 16.9797L38.5287 14.4361L41.0723 11.8926V16.9797ZM36.055 8.20838L39.271 4.99247L42.4863 8.20838H36.055ZM21.0271 5.39822L23.8372 8.20838H18.2175L21.0271 5.39822ZM16.568 7.45013L13.3532 4.23535H19.7823L16.568 7.45013ZM22.2725 4.23535H28.701L25.4868 7.45013L22.2725 4.23535ZM29.9464 5.39822L32.7565 8.20838H27.1362L29.9464 5.39822ZM34.4061 7.45013L31.1913 4.23535H37.6203L34.4061 7.45013ZM11.3251 4.52306C11.3662 4.62225 14.9185 8.20838 14.9185 8.20838H9.21895L11.3251 4.52306ZM40.6461 9.91108L37.0993 13.4573V9.91108H40.6461ZM37.0992 32.2775L40.4814 35.6591L37.0992 39.1948V32.2775ZM41.0723 42.7344L38.5154 40.1776L41.0723 37.5049V42.7344ZM38.5287 31.2992L41.0723 28.7557V33.8422L38.5287 31.2992ZM45.7975 8.20838H44.8829C44.874 8.19845 40.9215 4.23535 40.9215 4.23535H45.7975V8.20838Z" fill="currentColor"/>
</svg>
