<svg width="50" height="50" viewBox="0 0 50 50" fill="none" xmlns="http://www.w3.org/2000/svg">
<path d="M39.5157 27.0331C39.5157 18.2015 37.3267 14.4738 37.2338 14.3192L36.4659 13.0476L35.9346 14.4346C35.3983 15.8354 34.4961 16.7891 33.6934 17.4053C34.1571 15.9733 34.4366 14.4564 34.4366 13.2436C34.4366 6.55175 27.773 3.28856 27.49 3.15283L26.4296 2.64478L26.4513 3.82129C26.4528 3.87283 26.4869 9.01511 21.034 11.874C11.6828 16.7768 10.4838 22.5505 10.4838 27.0331C10.4838 32.8612 13.7615 37.7705 18.6069 40.0974H2.5V41.549H44.5963V40.0974H31.2852C36.1458 37.7487 39.5157 32.7836 39.5157 27.0331ZM11.9354 27.0331C11.9354 22.7066 13.0967 17.6746 21.7075 13.1601C26.3033 10.7505 27.4929 6.94295 27.7992 5.00507C29.5135 6.10756 32.9857 8.87866 32.9857 13.2436C32.9857 14.8142 32.4181 17.07 31.606 18.7306L30.8453 20.2846L32.4871 19.7381C32.6054 19.6989 35.002 18.8751 36.5653 16.403C37.1786 18.1159 38.0641 21.5395 38.0641 27.0331C38.0641 31.578 35.7285 35.5837 32.1975 37.9251C35.1 32.748 32.3477 25.6686 32.2055 25.3129L31.6974 24.0399L30.9302 25.1757C30.5383 25.7556 29.8691 26.2441 29.3103 26.5823C28.9938 22.4271 27.0922 20.1358 27.0044 20.032L26.0304 18.8831L25.7386 20.3608C25.2893 22.6376 23.6069 23.8548 21.8258 25.1438C19.5715 26.7747 17.016 28.624 17.016 32.8394C17.016 35.0938 17.8579 37.0984 18.6628 38.5065C14.6216 36.3095 11.9354 32.044 11.9354 27.0331ZM28.9619 39.4798C27.7106 39.8782 26.3809 40.0974 24.9997 40.0974C23.6418 40.0974 22.339 39.8986 21.116 39.5306C20.7016 39.0305 18.4676 36.181 18.4676 32.8394C18.4676 29.3658 20.5121 27.8859 22.6779 26.3189C24.2159 25.2062 25.7952 24.0631 26.6567 22.2094C27.2243 23.3424 27.9029 25.2258 27.9029 27.7588V28.8563L28.9133 28.4273C28.9808 28.3983 30.2044 27.8713 31.2329 26.9786C32.0044 29.5951 33.3508 36.1063 28.9619 39.4798Z" fill="currentColor"/>
<path d="M47.5002 40.0974H46.0486V41.5489H47.5002V40.0974Z" fill="currentColor"/>
<path d="M16.2904 43.0005C14.2893 43.0005 12.6614 44.6285 12.6614 46.6295V47.3553H19.9194V46.6295C19.9194 44.6285 18.2914 43.0005 16.2904 43.0005ZM14.2371 45.9037C14.5368 45.0589 15.3439 44.4521 16.2904 44.4521C17.2368 44.4521 18.0439 45.0589 18.3437 45.9037H14.2371Z" fill="currentColor"/>
<path d="M33.7091 43.0005C31.708 43.0005 30.0801 44.6285 30.0801 46.6295V47.3553H37.3381V46.6295C37.3381 44.6285 35.7101 43.0005 33.7091 43.0005ZM31.6558 45.9037C31.9555 45.0589 32.7626 44.4521 33.7091 44.4521C34.6555 44.4521 35.4626 45.0589 35.7624 45.9037H31.6558Z" fill="currentColor"/>
<path d="M24.9998 43.0005C22.9988 43.0005 21.3708 44.6285 21.3708 46.6295V47.3553H28.6288V46.6295C28.6288 44.6285 27.0009 43.0005 24.9998 43.0005ZM22.9466 45.9037C23.2463 45.0589 24.0534 44.4521 24.9998 44.4521C25.9463 44.4521 26.7534 45.0589 27.0531 45.9037H22.9466Z" fill="currentColor"/>
<path d="M3.9516 43.0005H2.5V44.4521H3.9516V43.0005Z" fill="currentColor"/>
<path d="M6.85467 43.0005H5.40308V44.4521H6.85467V43.0005Z" fill="currentColor"/>
<path d="M9.75775 43.0005H8.30615V44.4521H9.75775V43.0005Z" fill="currentColor"/>
<path d="M12.6608 43.0005H11.2092V44.4521H12.6608V43.0005Z" fill="currentColor"/>
<path d="M38.7897 43.0005H37.3381V44.4521H38.7897V43.0005Z" fill="currentColor"/>
<path d="M41.6928 43.0005H40.2412V44.4521H41.6928V43.0005Z" fill="currentColor"/>
<path d="M44.5971 43.0005H43.1455V44.4521H44.5971V43.0005Z" fill="currentColor"/>
<path d="M47.5002 43.0005H46.0486V44.4521H47.5002V43.0005Z" fill="currentColor"/>
</svg>
