<svg width="83" height="24" viewBox="0 0 83 24" fill="none" xmlns="http://www.w3.org/2000/svg">
    <path d="M13.5243 21.6173C13.5884 21.785 13.5337 21.9764 13.3822 22.0728C12.9217 22.3657 12.3749 22.5959 11.742 22.7635C11.0123 22.9404 10.2383 23.0288 9.42015 23.0288C7.2973 23.0288 5.64988 22.487 4.47789 21.4035C3.32801 20.32 2.75307 18.7278 2.75307 16.6271V9.69662C2.75307 9.47571 2.57399 9.29662 2.35307 9.29662H0.4C0.179086 9.29662 0 9.11754 0 8.89662V5.71628C0 5.49536 0.179086 5.31628 0.4 5.31628H2.35307C2.57399 5.31628 2.75307 5.13719 2.75307 4.91628V1.37107C2.75307 1.15015 2.93216 0.971069 3.15307 0.971069H7.52752C7.74843 0.971069 7.92752 1.15016 7.92752 1.37107V4.91628C7.92752 5.13719 8.1066 5.31628 8.32752 5.31628H11.9722C12.1932 5.31628 12.3722 5.49536 12.3722 5.71628V8.89662C12.3722 9.11754 12.1932 9.29662 11.9722 9.29662H8.32752C8.10661 9.29662 7.92752 9.47571 7.92752 9.69662V16.5607C7.92752 17.3126 8.11548 17.8986 8.4914 18.3187C8.88944 18.7168 9.44226 18.9158 10.1499 18.9158C10.7643 18.9158 11.3102 18.7911 11.7875 18.5416C12.0249 18.4175 12.3357 18.5041 12.4312 18.7544L13.5243 21.6173Z" fill="#EDBA27"/>
    <path d="M19.9796 6.03027C19.9796 6.41892 20.519 6.60949 20.8096 6.35145C21.2851 5.92928 21.8376 5.58422 22.4673 5.31628C23.4244 4.91751 24.5073 4.69852 25.716 4.6593C25.9368 4.65214 26.116 4.83197 26.116 5.05289V8.99735C26.116 9.23035 25.9175 9.4137 25.6851 9.39788C25.3428 9.3746 25.0994 9.36296 24.955 9.36296C23.4735 9.36296 22.3125 9.78311 21.4722 10.6234C20.6319 11.4416 20.2118 12.6799 20.2118 14.3384V22.3635C20.2118 22.5844 20.0327 22.7635 19.8118 22.7635H15.4373C15.2164 22.7635 15.0373 22.5844 15.0373 22.3635V5.31824C15.0373 5.09733 15.2164 4.91824 15.4373 4.91824H19.5796C19.8005 4.91824 19.9796 5.09733 19.9796 5.31824V6.03027Z" fill="#EDBA27"/>
    <path d="M34.7933 4.65289C37.5574 4.65289 39.6803 5.31628 41.1619 6.64306C42.6434 7.94773 43.3842 9.92684 43.3842 12.5804V22.3635C43.3842 22.5844 43.2051 22.7635 42.9842 22.7635H38.9415C38.7206 22.7635 38.5415 22.5844 38.5415 22.3635V22.0134C38.5415 21.6056 37.9153 21.4034 37.6074 21.6707C36.5642 22.5761 35.0623 23.0288 33.1017 23.0288C31.7307 23.0288 30.5366 22.7966 29.5194 22.3322C28.5243 21.8679 27.7614 21.2266 27.2307 20.4084C26.6999 19.5902 26.4346 18.6615 26.4346 17.6222C26.4346 15.9637 27.0538 14.659 28.2921 13.7082C29.5525 12.7573 31.4874 12.2819 34.0968 12.2819H37.8098C38.0307 12.2819 38.2118 12.1024 38.1946 11.8822C38.1213 10.9483 37.7837 10.2191 37.1815 9.69466C36.496 9.07549 35.4678 8.76591 34.0968 8.76591C33.1459 8.76591 32.2061 8.9207 31.2773 9.23028C30.5489 9.46126 29.9061 9.76361 29.3489 10.1373C29.1395 10.2778 28.8481 10.2153 28.7328 9.99104L27.257 7.11833C27.1658 6.9409 27.2188 6.72265 27.3861 6.61401C28.2977 6.02202 29.3626 5.55627 30.5808 5.21677C31.9518 4.84085 33.356 4.65289 34.7933 4.65289ZM34.3953 19.546C35.2798 19.546 36.0648 19.347 36.7503 18.949C37.4168 18.5404 37.8952 17.9542 38.1854 17.1903C38.2019 17.147 38.2098 17.1009 38.2098 17.0546V15.7003C38.2098 15.4794 38.0307 15.3003 37.8098 15.3003H34.6606C32.5378 15.3003 31.4764 15.9969 31.4764 17.39C31.4764 18.0534 31.7307 18.5841 32.2393 18.9821C32.77 19.358 33.4886 19.546 34.3953 19.546Z" fill="#EDBA27"/>
    <path d="M55.3858 23.0288C53.4841 23.0288 51.7703 22.6418 50.2445 21.8679C48.7408 21.0718 47.5578 19.9772 46.6954 18.5841C45.8551 17.191 45.4349 15.6099 45.4349 13.8408C45.4349 12.0718 45.8551 10.4907 46.6954 9.0976C47.5578 7.70448 48.7408 6.62095 50.2445 5.84699C51.7703 5.05092 53.4841 4.65289 55.3858 4.65289C57.2654 4.65289 58.9017 5.05092 60.2949 5.84699C61.5999 6.56067 62.5759 7.5658 63.2228 8.86238C63.3159 9.0491 63.2379 9.27327 63.054 9.37202L59.7104 11.1682C59.519 11.271 59.2816 11.2011 59.1633 11.0188C58.2465 9.60533 56.9762 8.89859 55.3526 8.89859C54.0037 8.89859 52.887 9.34085 52.0025 10.2254C51.118 11.1099 50.6757 12.315 50.6757 13.8408C50.6757 15.3666 51.118 16.5718 52.0025 17.4563C52.887 18.3408 54.0037 18.7831 55.3526 18.7831C56.9939 18.7831 58.264 18.0788 59.1629 16.6703C59.2812 16.485 59.5219 16.4136 59.715 16.5188L63.0535 18.3399C63.2374 18.4402 63.3138 18.666 63.2179 18.8522C62.571 20.1083 61.5966 21.1025 60.2949 21.8347C58.9017 22.6308 57.2654 23.0288 55.3858 23.0288Z" fill="#EDBA27"/>
    <path d="M82.1125 13.9072C82.1125 13.9633 82.0888 14.3046 82.0413 14.9309C82.0254 15.1393 81.8516 15.3003 81.6426 15.3003H69.0106C68.755 15.3003 68.564 15.5375 68.6442 15.7801C68.9354 16.6617 69.4666 17.3752 70.2378 17.9207C71.1445 18.562 72.2722 18.8826 73.6211 18.8826C74.5499 18.8826 75.3681 18.7499 76.0757 18.4846C76.6883 18.2432 77.262 17.8928 77.7967 17.4332C77.9669 17.287 78.2242 17.2935 78.3763 17.4585L80.6087 19.8791C80.7472 20.0293 80.751 20.2605 80.6098 20.4082C78.9389 22.1553 76.5651 23.0288 73.4884 23.0288C71.4762 23.0288 69.6961 22.6418 68.1482 21.8679C66.6002 21.0718 65.4061 19.9772 64.5658 18.5841C63.7256 17.191 63.3054 15.6099 63.3054 13.8408C63.3054 12.0939 63.7145 10.5239 64.5327 9.13077C65.373 7.71554 66.5118 6.62095 67.9491 5.84699C69.4086 5.05092 71.0339 4.65289 72.8251 4.65289C74.572 4.65289 76.1531 5.02881 77.5683 5.78065C78.9835 6.53249 80.0892 7.61603 80.8853 9.03127C81.7034 10.4244 82.1125 12.0497 82.1125 13.9072ZM72.8582 8.56689C71.6862 8.56689 70.7022 8.89859 69.9061 9.56198C69.2188 10.1348 68.7622 10.8889 68.5365 11.8244C68.479 12.0627 68.6678 12.2819 68.9129 12.2819H76.769C77.0146 12.2819 77.2035 12.0619 77.1445 11.8234C76.9179 10.9088 76.4622 10.166 75.7772 9.59515C74.9811 8.90964 74.0081 8.56689 72.8582 8.56689Z" fill="#EDBA27"/>
    <path d="M8.26783 18.5188L8.27338 18.525L8.27927 18.5309C8.74717 18.9988 9.38426 19.2158 10.1499 19.2158C10.8059 19.2158 11.4006 19.0823 11.9265 18.8075C11.973 18.7832 12.0276 18.7797 12.0728 18.7939C12.1156 18.8073 12.1399 18.8323 12.151 18.8614L13.2441 21.7243C13.2619 21.7709 13.2419 21.8065 13.2212 21.8197C12.792 22.0926 12.2758 22.3115 11.6683 22.4726C10.9645 22.643 10.2155 22.7288 9.42015 22.7288C7.34798 22.7288 5.78284 22.2008 4.68256 21.1842C3.6115 20.1742 3.05307 18.6729 3.05307 16.6271V9.69662C3.05307 9.31002 2.73967 8.99662 2.35307 8.99662H0.4C0.344772 8.99662 0.3 8.95185 0.3 8.89662V5.71628C0.3 5.66105 0.344771 5.61628 0.4 5.61628H2.35307C2.73967 5.61628 3.05307 5.30288 3.05307 4.91628V1.37107C3.05307 1.31584 3.09784 1.27107 3.15307 1.27107H7.52752C7.58275 1.27107 7.62752 1.31584 7.62752 1.37107V4.91628C7.62752 5.30288 7.94092 5.61628 8.32752 5.61628H11.9722C12.0275 5.61628 12.0722 5.66105 12.0722 5.71628V8.89662C12.0722 8.95185 12.0275 8.99662 11.9722 8.99662H8.32752C7.94092 8.99662 7.62752 9.31002 7.62752 9.69662V16.5607C7.62752 17.3614 7.82823 18.0275 8.26783 18.5188ZM40.9617 6.86655L40.9636 6.86821C42.3603 8.09813 43.0842 9.98183 43.0842 12.5804V22.3635C43.0842 22.4187 43.0395 22.4635 42.9842 22.4635H38.9415C38.8862 22.4635 38.8415 22.4187 38.8415 22.3635V22.0134C38.8415 21.6345 38.5524 21.3977 38.2888 21.3057C38.0245 21.2134 37.6688 21.2201 37.4107 21.4441C36.4412 22.2857 35.02 22.7288 33.1017 22.7288C31.7646 22.7288 30.615 22.5025 29.6449 22.0598C28.6949 21.6162 27.9785 21.01 27.4823 20.2452C26.9853 19.4788 26.7346 18.6075 26.7346 17.6222C26.7346 16.0506 27.3153 14.8369 28.4738 13.9469C29.658 13.0541 31.5145 12.5819 34.0968 12.5819H37.8098C38.1891 12.5819 38.5258 12.2694 38.4936 11.8587C38.4155 10.8621 38.0509 10.055 37.3806 9.47021C36.6185 8.78311 35.5056 8.46591 34.0968 8.46591C33.1134 8.46591 32.1423 8.62597 31.1846 8.94497C30.4336 9.18329 29.765 9.49697 29.1818 9.8882C29.108 9.93771 29.0257 9.90457 28.9997 9.85395L27.5238 6.98124C27.4997 6.93435 27.5172 6.88657 27.5495 6.86561C28.4316 6.29278 29.4674 5.83856 30.6606 5.50595C32.0053 5.13729 33.3826 4.95289 34.7933 4.95289C37.5124 4.95289 39.5534 5.60537 40.9617 6.86655ZM36.901 19.2084L36.901 19.2085L36.9071 19.2047C37.6329 18.7599 38.1532 18.1198 38.4659 17.2969C38.4961 17.2172 38.5098 17.1348 38.5098 17.0546V15.7003C38.5098 15.3137 38.1964 15.0003 37.8098 15.0003H34.6606C33.5759 15.0003 32.7103 15.1765 32.1078 15.5719C31.4833 15.9817 31.1764 16.604 31.1764 17.39C31.1764 18.1427 31.4708 18.7617 32.0544 19.2184L32.06 19.2228L32.0659 19.2269C32.6637 19.6504 33.4503 19.846 34.3953 19.846C35.3264 19.846 36.1646 19.636 36.901 19.2084ZM50.3818 6.11373L50.3833 6.11296C51.8619 5.34152 53.5272 4.95289 55.3858 4.95289C57.2222 4.95289 58.8055 5.34143 60.146 6.10746L60.146 6.10751L60.1509 6.1102C61.4037 6.79534 62.3355 7.75605 62.9543 8.99631C62.9709 9.02957 62.9614 9.08122 62.9121 9.10774L59.5684 10.9039C59.5246 10.9274 59.4547 10.9167 59.415 10.8556C58.4453 9.36067 57.0824 8.59859 55.3526 8.59859C53.931 8.59859 52.7358 9.06777 51.7904 10.0132C50.8376 10.9659 50.3757 12.2541 50.3757 13.8408C50.3757 15.4276 50.8376 16.7158 51.7904 17.6685C52.7358 18.6139 53.931 19.0831 55.3526 19.0831C57.0985 19.0831 58.463 18.3247 59.4158 16.8317C59.4559 16.7688 59.5273 16.7582 59.5713 16.7822L62.9099 18.6032C62.9593 18.6302 62.9681 18.6821 62.9512 18.7149C62.3327 19.9157 61.4015 20.868 60.1478 21.5732L60.146 21.5742C58.8055 22.3403 57.2222 22.7288 55.3858 22.7288C53.5269 22.7288 51.8612 22.3511 50.3826 21.6015C48.9256 20.8297 47.784 19.7722 46.9512 18.4275C46.1423 17.0856 45.7349 15.5595 45.7349 13.8408C45.7349 12.1222 46.1423 10.5961 46.9512 9.25424C47.784 7.90957 48.9253 6.86337 50.3818 6.11373ZM76.181 18.7655L76.1856 18.7637C76.8316 18.5092 77.4339 18.1406 77.9922 17.6608C78.0484 17.6125 78.1207 17.6238 78.1558 17.6618L80.3881 20.0825C80.4251 20.1226 80.4188 20.1738 80.393 20.2008C78.7931 21.8736 76.5068 22.7288 73.4884 22.7288C71.5159 22.7288 69.7836 22.3498 68.284 21.6004C66.7827 20.828 65.632 19.7709 64.8227 18.4291C64.0131 17.0868 63.6054 15.5602 63.6054 13.8408C63.6054 12.1434 64.0022 10.627 64.7906 9.28394C65.6034 7.9151 66.7024 6.85906 68.0914 6.11113L68.0928 6.11036C69.5048 5.34017 71.0801 4.95289 72.8251 4.95289C74.5274 4.95289 76.0595 5.3188 77.4276 6.04559C78.7914 6.77013 79.8555 7.81243 80.6237 9.17837L80.6266 9.18319C81.4139 10.5237 81.8125 12.095 81.8125 13.9072L81.8125 13.9074C81.8125 13.9087 81.8123 13.9146 81.8117 13.9276C81.8111 13.9417 81.8101 13.9607 81.8086 13.9848C81.8057 14.0331 81.8014 14.0995 81.7954 14.1844C81.7836 14.3541 81.7659 14.5952 81.7421 14.9082C81.7382 14.96 81.6949 15.0003 81.6426 15.0003H69.0106C68.5748 15.0003 68.2077 15.4151 68.3593 15.8742C68.671 16.8178 69.242 17.5838 70.0646 18.1656C71.0319 18.8498 72.2237 19.1826 73.6211 19.1826C74.5779 19.1826 75.433 19.046 76.181 18.7655ZM21.0088 6.57578C21.4579 6.17699 21.982 5.84894 22.5837 5.59279C23.5019 5.21037 24.5478 4.99736 25.7257 4.95915C25.7707 4.95769 25.816 4.99498 25.816 5.05289V8.99735C25.816 9.05461 25.7666 9.10274 25.7054 9.09858C25.363 9.07528 25.1106 9.06296 24.955 9.06296C23.4155 9.06296 22.1711 9.50111 21.2615 10.4098C20.3437 11.3045 19.9118 12.6339 19.9118 14.3384V22.3635C19.9118 22.4187 19.867 22.4635 19.8118 22.4635H15.4373C15.3821 22.4635 15.3373 22.4187 15.3373 22.3635V5.31824C15.3373 5.26301 15.3821 5.21824 15.4373 5.21824H19.5796C19.6348 5.21824 19.6796 5.26301 19.6796 5.31824V6.03027C19.6796 6.38254 19.9262 6.61931 20.1806 6.71439C20.4331 6.80874 20.7637 6.79342 21.0088 6.57578ZM72.8582 8.26689C71.6258 8.26689 70.5711 8.61732 69.7141 9.33151C68.9734 9.94877 68.4845 10.7609 68.2449 11.754C68.1375 12.199 68.4925 12.5819 68.9129 12.5819H76.769C77.1898 12.5819 77.5462 12.1976 77.4357 11.7513C77.1949 10.7792 76.7069 9.9801 75.971 9.36617C75.1155 8.63033 74.0717 8.26689 72.8582 8.26689Z" stroke="url(#paint0_radial_384_9134)" stroke-opacity="0.06" stroke-width="0.6"/>
    <defs>
        <radialGradient id="paint0_radial_384_9134" cx="0" cy="0" r="1" gradientUnits="userSpaceOnUse" gradientTransform="translate(41.0563 12.8069) rotate(90) scale(7.53191 131.519)">
            <stop stop-color="#353945" stop-opacity="0"/>
            <stop offset="1" stop-color="#353945"/>
        </radialGradient>
    </defs>
</svg>

