<svg viewBox="0 0 75 25" fill="none" xmlns="http://www.w3.org/2000/svg">
<g clip-path="url(#clip0_3115_5436)">
<path d="M10.9146 6.9997C10.8225 6.79597 10.9376 6.61482 11.1679 6.61482H12.8718C13.01 6.61482 13.1021 6.7054 13.1251 6.77331L16.0725 13.5644H16.1876L22.1975 0.412359C22.2206 0.344448 22.3126 0.253906 22.4508 0.253906H24.1548C24.385 0.253906 24.5002 0.457637 24.408 0.638729L16.487 17.4805C16.4409 17.5711 16.3718 17.639 16.2337 17.639H16.0725C15.9344 17.639 15.8653 17.5711 15.8192 17.4805L10.9146 6.9997Z" fill="#0E2B64"/>
<path d="M24.0176 7.18102C24.0176 7.02254 24.1327 6.88672 24.3169 6.88672H30.5801C30.7412 6.88672 30.8794 7.02254 30.8794 7.18102V8.426C30.8794 8.58448 30.7643 8.7203 30.5801 8.7203H26.0209V11.2103H29.8202C29.9813 11.2103 30.1195 11.3461 30.1195 11.5046V12.7723C30.1195 12.9307 29.9813 13.0666 29.8202 13.0666H26.0209V15.7151H30.5801C30.7412 15.7151 30.8794 15.8509 30.8794 16.0094V17.2544C30.8794 17.4128 30.7643 17.5487 30.5801 17.5487H24.3169C24.1557 17.5487 24.0176 17.4128 24.0176 17.2544V7.18102Z" fill="#0E2B64"/>
<path d="M33.5039 7.18102C33.5039 7.02254 33.619 6.88672 33.8033 6.88672H38.2013C40.0434 6.88672 41.5631 8.3355 41.5631 10.1464C41.5631 11.5499 40.619 12.6818 39.2835 13.2024L41.402 17.0506C41.5171 17.2544 41.402 17.4807 41.1486 17.4807H39.5368C39.3987 17.4807 39.3296 17.4128 39.2835 17.3449L37.2342 13.3382H35.5302V17.2091C35.5302 17.3676 35.3921 17.5034 35.2309 17.5034H33.8033C33.6421 17.5034 33.5039 17.3676 33.5039 17.2091V7.18102ZM38.0401 11.7084C38.846 11.7084 39.5598 11.0066 39.5598 10.1691C39.5598 9.37674 38.846 8.69764 38.0401 8.69764H35.5302V11.7084H38.0401Z" fill="#0E2B64"/>
<path d="M44.1426 7.18102C44.1426 7.02254 44.2577 6.88672 44.4419 6.88672H48.8399C50.682 6.88672 52.2018 8.3355 52.2018 10.1464C52.2018 11.5499 51.2577 12.6818 49.9222 13.2024L52.0406 17.0506C52.1557 17.2544 52.0406 17.4807 51.7873 17.4807H50.1755C50.0373 17.4807 49.9683 17.4128 49.9222 17.3449L47.8728 13.3382H46.1689V17.2091C46.1689 17.3676 46.0308 17.5034 45.8696 17.5034H44.4419C44.2807 17.5034 44.1426 17.3676 44.1426 17.2091V7.18102ZM48.6787 11.7084C49.4847 11.7084 50.1985 11.0066 50.1985 10.1691C50.1985 9.37674 49.4847 8.69764 48.6787 8.69764H46.1689V11.7084H48.6787Z" fill="#0E2B64"/>
<path d="M53.5589 17.0951L58.3483 6.90848C58.3944 6.81791 58.4635 6.75 58.6016 6.75H58.7628C58.924 6.75 58.97 6.81791 59.0161 6.90848L63.7595 17.0951C63.8516 17.2988 63.7364 17.4799 63.5062 17.4799H62.1707C61.9404 17.4799 61.8253 17.3893 61.7332 17.1855L60.9733 15.5557H56.3681L55.6082 17.1855C55.5391 17.344 55.4009 17.4799 55.1707 17.4799H53.8352C53.5818 17.4799 53.4667 17.2988 53.5589 17.0951ZM60.2134 13.8579L58.6707 10.5303H58.6246L57.1049 13.8579H60.2134Z" fill="#0E2B64"/>
<path d="M69.9074 24.1127H4.88106C4.51264 24.1127 4.23633 23.8184 4.23633 23.4788V0.842012C4.23633 0.47982 4.53566 0.208179 4.88106 0.208179H19.4337C19.5719 0.208179 19.664 0.343999 19.6179 0.47982L18.9732 2.08704C18.9502 2.15495 18.8811 2.20022 18.7889 2.20022H6.46988C6.35475 2.20022 6.26264 2.29077 6.26264 2.40395V21.9395C6.26264 22.0527 6.35475 22.1433 6.46988 22.1433H68.3186C68.4337 22.1433 68.5258 22.0527 68.5258 21.9395V2.38131C68.5258 2.26813 68.4337 2.17758 68.3186 2.17758H26.3876C26.2495 2.17758 26.1574 2.04176 26.2034 1.90594L26.9403 0.298728C26.9633 0.230818 27.0324 0.185547 27.1245 0.185547H69.9074C70.2758 0.185547 70.5521 0.47982 70.5521 0.819372V23.4562C70.5521 23.8184 70.2528 24.1127 69.9074 24.1127Z" fill="#057299"/>
</g>
<defs>
<clipPath id="clip0_3115_5436">
<rect width="75" height="24" fill="white" transform="translate(0 0.115234)"/>
</clipPath>
</defs>
</svg>
