<svg width="24" height="20" viewBox="0 0 24 20" fill="none" xmlns="http://www.w3.org/2000/svg">
    <path d="M1 11C0.447715 11 0 10.5523 0 10C0 9.44772 0.447715 9 1 9L1 11ZM23.7071 9.29289C24.0976 9.68342 24.0976 10.3166 23.7071 10.7071L17.3431 17.0711C16.9526 17.4616 16.3195 17.4616 15.9289 17.0711C15.5384 16.6805 15.5384 16.0474 15.9289 15.6569L21.5858 10L15.9289 4.34315C15.5384 3.95262 15.5384 3.31946 15.9289 2.92893C16.3195 2.53841 16.9526 2.53841 17.3431 2.92893L23.7071 9.29289ZM1 9L23 9V11L1 11L1 9Z" fill="#353945"/>
    <path opacity="0.6" d="M1 1L9 1" stroke="#353945" stroke-width="2" stroke-linecap="round"/>
    <path opacity="0.3" d="M1 19H9" stroke="#353945" stroke-width="2" stroke-linecap="round"/>
</svg>
