<svg width="20" height="20" viewBox="0 0 20 20" fill="none" xmlns="http://www.w3.org/2000/svg">
<rect width="20" height="20" fill="#E5243B"/>
<path fill-rule="evenodd" clip-rule="evenodd" d="M4.73981 7.25152C4.73981 7.3978 4.68203 7.53809 4.57919 7.64153C4.47635 7.74497 4.33687 7.80308 4.19144 7.80308C4.046 7.80308 3.90652 7.74497 3.80368 7.64153C3.70084 7.53809 3.64307 7.3978 3.64307 7.25152C3.64307 7.17908 3.65725 7.10736 3.68481 7.04044C3.71237 6.97352 3.75276 6.91272 3.80368 6.8615C3.8546 6.81029 3.91505 6.76966 3.98158 6.74194C4.04811 6.71422 4.11942 6.69995 4.19144 6.69995C4.26345 6.69995 4.33476 6.71422 4.40129 6.74194C4.46782 6.76966 4.52827 6.81029 4.57919 6.8615C4.63011 6.91272 4.6705 6.97352 4.69806 7.04044C4.72562 7.10736 4.73981 7.17908 4.73981 7.25152Z" fill="white"/>
<path fill-rule="evenodd" clip-rule="evenodd" d="M9.3836 7.55694C9.3836 7.70322 9.32583 7.84351 9.22299 7.94695C9.12015 8.05039 8.98067 8.1085 8.83523 8.1085C8.6898 8.1085 8.55032 8.05039 8.44748 7.94695C8.34464 7.84351 8.28687 7.70322 8.28687 7.55694C8.28687 7.41065 8.34464 7.27036 8.44748 7.16692C8.55032 7.06348 8.6898 7.00537 8.83523 7.00537C8.90725 7.00537 8.97855 7.01964 9.04509 7.04736C9.11162 7.07508 9.17207 7.11571 9.22299 7.16692C9.27391 7.21814 9.3143 7.27894 9.34186 7.34586C9.36942 7.41278 9.3836 7.4845 9.3836 7.55694Z" fill="white"/>
<path fill-rule="evenodd" clip-rule="evenodd" d="M12.4589 7.55694C12.4589 7.70322 12.4011 7.84351 12.2983 7.94695C12.1955 8.05039 12.056 8.1085 11.9106 8.1085C11.7651 8.1085 11.6256 8.05039 11.5228 7.94695C11.42 7.84351 11.3622 7.70322 11.3622 7.55694C11.3622 7.41065 11.42 7.27036 11.5228 7.16692C11.6256 7.06348 11.7651 7.00537 11.9106 7.00537C11.9826 7.00537 12.0539 7.01964 12.1204 7.04736C12.1869 7.07508 12.2474 7.11571 12.2983 7.16692C12.3492 7.21814 12.3896 7.27894 12.4172 7.34586C12.4447 7.41278 12.4589 7.4845 12.4589 7.55694V7.55694Z" fill="white"/>
<path fill-rule="evenodd" clip-rule="evenodd" d="M16.7661 7.2647C16.7661 7.41099 16.7083 7.55128 16.6054 7.65472C16.5026 7.75815 16.3631 7.81627 16.2177 7.81627C16.0722 7.81627 15.9328 7.75815 15.8299 7.65472C15.7271 7.55128 15.6693 7.41099 15.6693 7.2647C15.6693 7.19227 15.6835 7.12054 15.7111 7.05363C15.7386 6.98671 15.779 6.9259 15.8299 6.87468C15.8808 6.82346 15.9413 6.78284 16.0078 6.75512C16.0744 6.7274 16.1457 6.71313 16.2177 6.71313C16.3631 6.71313 16.5026 6.77125 16.6054 6.87469C16.7083 6.97813 16.7661 7.11842 16.7661 7.2647Z" fill="white"/>
<path fill-rule="evenodd" clip-rule="evenodd" d="M6.8321 10.0265C6.8321 10.1435 6.78588 10.2557 6.70361 10.3385C6.62134 10.4212 6.50976 10.4677 6.39341 10.4677C6.27706 10.4677 6.16547 10.4212 6.0832 10.3385C6.00093 10.2557 5.95471 10.1435 5.95471 10.0265C5.95471 9.96851 5.96606 9.91114 5.98811 9.8576C6.01015 9.80406 6.04247 9.75542 6.0832 9.71445C6.12394 9.67347 6.1723 9.64097 6.22553 9.61879C6.27875 9.59662 6.3358 9.58521 6.39341 9.58521C6.45102 9.58521 6.50806 9.59662 6.56129 9.61879C6.61451 9.64097 6.66288 9.67347 6.70361 9.71445C6.74435 9.75542 6.77666 9.80406 6.79871 9.8576C6.82076 9.91114 6.8321 9.96851 6.8321 10.0265V10.0265Z" fill="white"/>
<path fill-rule="evenodd" clip-rule="evenodd" d="M14.5992 10.0265C14.5992 10.0844 14.5878 10.1418 14.5658 10.1953C14.5438 10.2489 14.5114 10.2975 14.4707 10.3385C14.43 10.3794 14.3816 10.4119 14.3284 10.4341C14.2752 10.4563 14.2181 10.4677 14.1605 10.4677C14.0441 10.4677 13.9326 10.4212 13.8503 10.3385C13.768 10.2557 13.7218 10.1435 13.7218 10.0265C13.7218 9.96851 13.7331 9.91114 13.7552 9.8576C13.7772 9.80406 13.8096 9.75542 13.8503 9.71445C13.891 9.67347 13.9394 9.64097 13.9926 9.6188C14.0458 9.59662 14.1029 9.58521 14.1605 9.58521C14.2181 9.5852 14.2752 9.59662 14.3284 9.61879C14.3816 9.64097 14.43 9.67347 14.4707 9.71445C14.5114 9.75542 14.5438 9.80406 14.5658 9.8576C14.5878 9.91114 14.5992 9.96851 14.5992 10.0265V10.0265Z" fill="white"/>
<path fill-rule="evenodd" clip-rule="evenodd" d="M16.108 10.6332V12.8903C16.108 13.2765 15.5427 13.2783 15.5427 12.8903V8.93604C15.5427 8.79306 15.3487 8.78126 15.3487 8.93604V10.2683C15.3487 10.5834 14.9353 10.5967 14.9353 10.2683V8.64753C14.9353 8.31576 15.1849 8.02808 15.5512 8.02808H16.8841C17.2503 8.02808 17.5 8.31576 17.5 8.64753V10.2683C17.5 10.5967 17.0866 10.5834 17.0866 10.2683V8.93604C17.0866 8.78126 16.8926 8.79306 16.8926 8.93604V12.8903C16.8926 13.2783 16.3273 13.2765 16.3273 12.8903V10.6332C16.3273 10.5082 16.108 10.504 16.108 10.6332V10.6332Z" fill="white"/>
<path fill-rule="evenodd" clip-rule="evenodd" d="M3.5068 8.02808C3.14058 8.02808 2.89098 8.31572 2.89098 8.64749V10.2682C2.89098 10.3796 2.93867 10.4507 3.00151 10.4851L2.50297 12.992C2.47373 13.1391 2.66931 13.1712 2.69516 13.0286L3.15364 10.4997C3.23518 10.4744 3.30422 10.3969 3.30422 10.2682V8.93601C3.30422 8.78123 3.49822 8.79303 3.49822 8.93601V12.8903C3.49822 13.2782 4.06359 13.2765 4.06359 12.8903V10.6331C4.06359 10.5039 4.28282 10.5082 4.28282 10.6331V12.8903C4.28282 13.2765 4.84819 13.2782 4.84819 12.8903V8.93601C4.84819 8.79303 5.0422 8.78123 5.0422 8.93601V10.2682C5.0422 10.5834 5.45544 10.5966 5.45544 10.2682V8.64749C5.45544 8.31572 5.20583 8.02808 4.83961 8.02808H3.5068Z" fill="white"/>
<path fill-rule="evenodd" clip-rule="evenodd" d="M8.73812 11.3077V12.9057C8.73812 13.3014 8.18909 13.2949 8.18909 12.9057V11.3077H7.66287L8.25925 9.17881C8.2862 9.08259 8.12903 9.01129 8.08969 9.13765L7.72719 10.3021C7.64147 10.5774 7.27396 10.4797 7.37053 10.1609L7.82658 8.65542C7.87866 8.48349 8.05299 8.34961 8.24171 8.34961H9.40556C9.59427 8.34961 9.7686 8.48349 9.82068 8.65542L10.2767 10.1609C10.3733 10.4797 10.0058 10.5774 9.92008 10.3021L9.55757 9.13765C9.51824 9.01129 9.36106 9.08259 9.38802 9.17881L9.98439 11.3077H9.45818V12.9057C9.45818 13.2949 8.90914 13.3014 8.90914 12.9057V11.3077H8.73812Z" fill="white"/>
<path fill-rule="evenodd" clip-rule="evenodd" d="M11.8306 11.3077V12.9057C11.8306 13.3014 11.2816 13.2949 11.2816 12.9057V11.3077H10.7554L11.3518 9.17881C11.3787 9.08259 11.2216 9.01129 11.1822 9.13765L10.8197 10.3021C10.734 10.5774 10.3665 10.4797 10.4631 10.1609L10.9191 8.65542C10.9712 8.48349 11.1455 8.34961 11.3342 8.34961H12.4981C12.6868 8.34961 12.8611 8.48349 12.9132 8.65542L13.3693 10.1609C13.4658 10.4797 13.0983 10.5774 13.0126 10.3021L12.6501 9.13765C12.6108 9.01129 12.4536 9.08259 12.4805 9.17881L13.0769 11.3077H12.5507V12.9057C12.5507 13.2949 12.0017 13.3014 12.0017 12.9057V11.3077H11.8306Z" fill="white"/>
<path fill-rule="evenodd" clip-rule="evenodd" d="M14.2661 12.2779V12.9424C14.2661 13.2246 14.652 13.2599 14.652 12.9424V11.3575C14.652 11.2735 14.7414 11.271 14.7718 11.3517L14.9739 11.888C15.0428 12.0707 15.2545 11.9929 15.1786 11.8057L14.7777 10.8165C14.7429 10.7307 14.6579 10.6606 14.5438 10.6606H13.7934C13.6793 10.6606 13.5943 10.7307 13.5596 10.8165L13.1586 11.8057C13.0828 11.9929 13.2944 12.0707 13.3633 11.888L13.5654 11.3517C13.5958 11.271 13.6853 11.2735 13.6853 11.3575V12.9424C13.6853 13.2599 14.0712 13.2246 14.0712 12.9424V12.2779C14.0712 12.16 14.2661 12.1516 14.2661 12.2779V12.2779Z" fill="white"/>
<path fill-rule="evenodd" clip-rule="evenodd" d="M6.31397 12.3183V12.9972C6.31397 13.241 5.96091 13.2822 5.96091 12.9972V12.2504H5.71689L5.92976 11.4723C5.96636 11.3385 5.93823 11.2019 5.87265 11.0858L5.50402 10.433C5.39353 10.2374 5.66241 10.1284 5.74804 10.2659L6.01803 10.6994C6.05793 10.7634 6.10744 10.7568 6.16859 10.7568H6.67197C6.73312 10.7568 6.78263 10.7634 6.82254 10.6994L7.09252 10.2659C7.17815 10.1284 7.44704 10.2374 7.33655 10.433L6.96791 11.0858C6.90233 11.2019 6.87421 11.3385 6.9108 11.4723L7.12367 12.2504H6.87965V12.9972C6.87965 13.2822 6.5266 13.241 6.5266 12.9972V12.3183C6.5266 12.1649 6.31397 12.1691 6.31397 12.3183V12.3183Z" fill="white"/>
</svg>
