<svg width="20" height="20" viewBox="0 0 20 20" fill="none" xmlns="http://www.w3.org/2000/svg">
<rect width="20" height="20" fill="#FD9D24"/>
<path d="M4.54597 10.2673L6.07904 12.2807C6.13604 12.3556 6.12049 12.4442 5.99867 12.4442H2.87239C2.75057 12.4442 2.73502 12.3556 2.79203 12.2807L4.3251 10.2673C4.39935 10.1698 4.47273 10.1711 4.54597 10.2673ZM14.1442 11.0235H17.2438C17.3164 11.0235 17.3748 11.0819 17.3748 11.1545V11.7037C17.3748 11.7763 17.3164 11.8347 17.2438 11.8347H14.1442C14.0716 11.8347 14.0132 11.7763 14.0132 11.7037V11.1545C14.0132 11.0819 14.0716 11.0235 14.1442 11.0235ZM14.1443 12.0574C14.0717 12.0574 14.0133 12.1158 14.0133 12.1884V15.3439C14.0133 15.4165 14.0717 15.475 14.1443 15.475H17.2439C17.3165 15.475 17.375 15.4165 17.375 15.3439V12.1884C17.375 12.1158 17.3165 12.0574 17.2439 12.0574H14.1443ZM14.598 12.5337H15.39C15.4626 12.5337 15.5211 12.5921 15.5211 12.6647V13.0319C15.5211 13.1045 15.4626 13.163 15.39 13.163H14.598C14.5254 13.163 14.4672 13.1045 14.4672 13.0319V12.6647C14.4672 12.5921 14.5254 12.5337 14.598 12.5337ZM16.0542 12.5337H16.8459C16.9185 12.5337 16.9769 12.5921 16.9769 12.6647V13.0319C16.9769 13.1045 16.9185 13.163 16.8459 13.163H16.0542C15.9816 13.163 15.9231 13.1045 15.9231 13.0319V12.6647C15.9231 12.5921 15.9816 12.5337 16.0542 12.5337ZM14.598 13.6113H15.39C15.4626 13.6113 15.5211 13.6697 15.5211 13.7423V14.1093C15.5211 14.1819 15.4626 14.2403 15.39 14.2403H14.598C14.5254 14.2403 14.4672 14.1819 14.4672 14.1093V13.7423C14.4672 13.6697 14.5254 13.6113 14.598 13.6113ZM16.0542 13.6113H16.8459C16.9185 13.6113 16.9769 13.6697 16.9769 13.7423V14.1093C16.9769 14.1819 16.9185 14.2403 16.8459 14.2403H16.0542C15.9816 14.2403 15.9231 14.1819 15.9231 14.1093V13.7423C15.9231 13.6697 15.9816 13.6113 16.0542 13.6113ZM6.69433 4.5C6.62174 4.5 6.56328 4.55846 6.56328 4.63106V15.3439C6.56328 15.4165 6.62174 15.475 6.69433 15.475H9.7211C9.7937 15.475 9.85215 15.4165 9.85215 15.3439V4.63106C9.85215 4.55846 9.7937 4.5 9.7211 4.5H6.69433ZM7.28564 5.9988H7.74789C7.82049 5.9988 7.87894 6.05726 7.87894 6.12986V6.68723C7.87894 6.75984 7.82049 6.8183 7.74789 6.8183H7.28564C7.21304 6.8183 7.15459 6.75984 7.15459 6.68723V6.12986C7.15459 6.05726 7.21304 5.9988 7.28564 5.9988ZM8.69809 5.9988H9.16034C9.23294 5.9988 9.2914 6.05726 9.2914 6.12986V6.68723C9.2914 6.75984 9.23294 6.8183 9.16034 6.8183H8.69809C8.62549 6.8183 8.56704 6.75984 8.56704 6.68723V6.12986C8.56704 6.05726 8.62549 5.9988 8.69809 5.9988ZM7.28564 7.85366H7.74789C7.82049 7.85366 7.87894 7.91212 7.87894 7.98473V8.5421C7.87894 8.6147 7.82049 8.67316 7.74789 8.67316H7.28564C7.21304 8.67316 7.15459 8.6147 7.15459 8.5421V7.98473C7.15459 7.91212 7.21304 7.85366 7.28564 7.85366ZM8.69809 7.85366H9.16034C9.23294 7.85366 9.2914 7.91212 9.2914 7.98473V8.5421C9.2914 8.6147 9.23294 8.67316 9.16034 8.67316H8.69809C8.62549 8.67316 8.56704 8.6147 8.56704 8.5421V7.98473C8.56704 7.91212 8.62549 7.85366 8.69809 7.85366ZM7.28564 9.70853H7.74789C7.82049 9.70853 7.87894 9.76699 7.87894 9.83959V10.397C7.87894 10.4696 7.82049 10.528 7.74789 10.528H7.28564C7.21304 10.528 7.15459 10.4696 7.15459 10.397V9.83959C7.15459 9.76699 7.21304 9.70853 7.28564 9.70853ZM8.69809 9.70853H9.16034C9.23294 9.70853 9.2914 9.76699 9.2914 9.83959V10.397C9.2914 10.4696 9.23294 10.528 9.16034 10.528H8.69809C8.62549 10.528 8.56704 10.4696 8.56704 10.397V9.83959C8.56704 9.76699 8.62549 9.70853 8.69809 9.70853ZM7.28564 11.5634H7.74789C7.82049 11.5634 7.87894 11.6219 7.87894 11.6945V12.2518C7.87894 12.3244 7.82049 12.3829 7.74789 12.3829H7.28564C7.21304 12.3829 7.15459 12.3244 7.15459 12.2518V11.6945C7.15459 11.6219 7.21304 11.5634 7.28564 11.5634ZM8.69809 11.5634H9.16034C9.23294 11.5634 9.2914 11.6219 9.2914 11.6945V12.2518C9.2914 12.3244 9.23294 12.3829 9.16034 12.3829H8.69809C8.62549 12.3829 8.56704 12.3244 8.56704 12.2518V11.6945C8.56704 11.6219 8.62549 11.5634 8.69809 11.5634ZM7.28564 13.4183H7.74789C7.82049 13.4183 7.87894 13.4767 7.87894 13.5493V14.107C7.87894 14.1796 7.82049 14.238 7.74789 14.238H7.28564C7.21304 14.238 7.15459 14.1796 7.15459 14.107V13.5493C7.15459 13.4767 7.21304 13.4183 7.28564 13.4183ZM8.69809 13.4183H9.16034C9.23294 13.4183 9.2914 13.4767 9.2914 13.5493V14.107C9.2914 14.1796 9.23294 14.238 9.16034 14.238H8.69809C8.62549 14.238 8.56704 14.1796 8.56704 14.107V13.5493C8.56704 13.4767 8.62549 13.4183 8.69809 13.4183ZM10.3684 10.6513V15.3439C10.3684 15.4165 10.4268 15.475 10.4994 15.475H13.4825C13.5551 15.475 13.6136 15.4165 13.6136 15.3439V6.66953C13.6136 6.59693 13.5175 6.49651 13.4025 6.64224L10.4831 10.3398C10.3835 10.4659 10.3684 10.5044 10.3684 10.6513ZM13.1659 7.71603C13.2189 7.71574 13.2278 7.8429 13.2278 7.89735V8.68687C13.2278 8.75947 13.1694 8.81793 13.0968 8.81793H12.4869C12.4092 8.81793 12.2769 8.78494 12.3558 8.68687L13.0968 7.76629C13.1256 7.7305 13.1482 7.71613 13.1659 7.71603ZM12.305 9.26623H13.0968C13.1694 9.26623 13.2278 9.32469 13.2278 9.39729V9.76421C13.2278 9.83681 13.1694 9.89527 13.0968 9.89527H12.305C12.2324 9.89527 12.174 9.83681 12.174 9.76421V9.39729C12.174 9.32469 12.2324 9.26623 12.305 9.26623ZM11.7069 9.55605C11.7589 9.54528 11.7717 9.66424 11.7717 9.74736V10.8712C11.7717 10.9438 11.7132 11.0023 11.6406 11.0023H10.89C10.8174 11.0023 10.7074 10.9447 10.759 10.8712L11.6406 9.6163C11.6677 9.5778 11.6895 9.55964 11.7069 9.55605ZM12.305 10.3404H13.0968C13.1694 10.3404 13.2278 10.3989 13.2278 10.4715V10.8387C13.2278 10.9113 13.1694 10.9698 13.0968 10.9698H12.305C12.2324 10.9698 12.174 10.9113 12.174 10.8387V10.4715C12.174 10.3989 12.2324 10.3404 12.305 10.3404ZM10.89 11.4181H11.6406C11.7132 11.4181 11.7717 11.4765 11.7717 11.5491V11.9163C11.7717 11.9889 11.7132 12.0474 11.6406 12.0474H10.89C10.8174 12.0474 10.759 11.9889 10.759 11.9163V11.5491C10.759 11.4765 10.8174 11.4181 10.89 11.4181ZM12.305 11.4181H13.0968C13.1694 11.4181 13.2278 11.4765 13.2278 11.5491V11.9163C13.2278 11.9889 13.1694 12.0474 13.0968 12.0474H12.305C12.2324 12.0474 12.174 11.9889 12.174 11.9163V11.5491C12.174 11.4765 12.2324 11.4181 12.305 11.4181ZM10.89 12.5337H11.6406C11.7132 12.5337 11.7717 12.5921 11.7717 12.6647V13.0319C11.7717 13.1045 11.7132 13.163 11.6406 13.163H10.89C10.8174 13.163 10.759 13.1045 10.759 13.0319V12.6647C10.759 12.5921 10.8174 12.5337 10.89 12.5337ZM12.305 12.5337H13.0968C13.1694 12.5337 13.2278 12.5921 13.2278 12.6647V13.0319C13.2278 13.1045 13.1694 13.163 13.0968 13.163H12.305C12.2324 13.163 12.174 13.1045 12.174 13.0319V12.6647C12.174 12.5921 12.2324 12.5337 12.305 12.5337ZM10.89 13.6113H11.6406C11.7132 13.6113 11.7717 13.6697 11.7717 13.7423V14.1093C11.7717 14.1819 11.7132 14.2403 11.6406 14.2403H10.89C10.8174 14.2403 10.759 14.1819 10.759 14.1093V13.7423C10.759 13.6697 10.8174 13.6113 10.89 13.6113ZM12.305 13.6113H13.0968C13.1694 13.6113 13.2278 13.6697 13.2278 13.7423V14.1093C13.2278 14.1819 13.1694 14.2403 13.0968 14.2403H12.305C12.2324 14.2403 12.174 14.1819 12.174 14.1093V13.7423C12.174 13.6697 12.2324 13.6113 12.305 13.6113ZM2.831 12.7418C2.75841 12.7418 2.69995 12.8003 2.69995 12.8729V15.3439C2.69995 15.4165 2.75841 15.475 2.831 15.475H3.88913C3.88884 15.4701 3.88767 15.4654 3.88767 15.4604V14.0219C3.88767 13.909 3.9786 13.818 4.09153 13.818H4.75764C4.87056 13.818 4.9615 13.909 4.9615 14.0219V15.4604C4.9615 15.4654 4.96047 15.4701 4.96003 15.475H5.95963C6.03223 15.475 6.09068 15.4165 6.09068 15.3439V12.8729C6.09068 12.8003 6.03223 12.7418 5.95963 12.7418H2.831Z" fill="white"/>
</svg>
