<svg width="20" height="20" viewBox="0 0 20 20" fill="none" xmlns="http://www.w3.org/2000/svg">
<rect width="20" height="20" fill="#BF8B2E"/>
<path fill-rule="evenodd" clip-rule="evenodd" d="M9.1757 11.0668L6.8571 11.837C6.75463 11.8711 6.72741 12.0033 6.80806 12.0751L8.63416 13.6979C8.71483 13.7697 8.8429 13.7273 8.86485 13.6216L9.35736 11.2284C9.37929 11.1226 9.27831 11.0327 9.1757 11.0668ZM14.1935 5.8999C12.3118 5.8999 11.0911 7.25357 10.4899 7.95763C10.4899 7.95763 10.95 8.91088 11.2074 9.05271C11.2074 9.05271 12.4038 7.11052 14.1935 7.11052C14.8247 7.11052 15.5211 7.31736 16.0407 7.78316C16.5604 8.24896 16.9491 8.97285 16.9491 10.1873C16.9491 10.9179 16.7084 11.6302 16.2933 12.1353C15.8782 12.6404 15.3148 12.956 14.5324 12.956C13.689 12.956 13.0207 12.7143 12.3779 12.2C11.735 11.6857 11.1273 10.8758 10.5423 9.75585C10.2421 9.18113 9.75783 8.2502 8.99971 7.44016C8.24158 6.63011 7.16083 5.92457 5.76718 5.92457C4.83358 5.92457 3.86247 6.21504 3.11955 6.91246C2.37663 7.60989 1.90644 8.69788 1.90007 10.1228C1.88937 12.5141 3.70504 14.1289 5.77951 14.1289C7.27256 14.1289 8.09688 13.2205 8.09688 13.2205L7.24478 12.4632C7.24478 12.4632 6.7769 12.9183 5.77951 12.9183C4.29248 12.9183 3.10219 11.9403 3.1103 10.1283C3.11554 8.95626 3.4675 8.24629 3.94807 7.79515C4.42864 7.34402 5.08257 7.13519 5.76718 7.13519C6.76189 7.13519 7.50127 7.61049 8.11602 8.26734C8.73077 8.92419 9.17177 9.74645 9.46947 10.3164C10.1016 11.5268 10.7895 12.4794 11.6216 13.1451C12.4537 13.8108 13.44 14.1666 14.5324 14.1666C15.6633 14.1666 16.6108 13.6554 17.2284 12.9039C17.8459 12.1524 18.1597 11.1778 18.1597 10.1873C18.1597 8.69835 17.629 7.5814 16.8487 6.88197C16.0684 6.18253 15.0842 5.8999 14.1935 5.8999Z" fill="white"/>
</svg>
