<svg width="20" height="20" viewBox="0 0 20 20" fill="none" xmlns="http://www.w3.org/2000/svg">
<rect width="20" height="20" fill="#3F7E44"/>
<path d="M10.1807 6.00044C7.02543 5.971 3.84917 7.41031 2 10.1291C5.58628 15.4019 14.1641 15.8628 17.9 10.1291C16.0904 7.35186 13.1447 6.0281 10.1807 6.00044ZM9.99911 6.78945C10.1668 6.7895 10.3312 6.79912 10.4048 6.81858C10.469 6.83548 10.5871 6.86013 10.6672 6.87312C10.8448 6.90191 11.1061 6.98031 11.2109 7.03646C11.2534 7.05927 11.3103 7.07816 11.3371 7.07816C11.3638 7.07816 11.4052 7.0978 11.4293 7.12185C11.4533 7.1459 11.4983 7.16554 11.5292 7.16554C11.5601 7.16554 11.5855 7.1788 11.5855 7.19524C11.5855 7.21167 11.6186 7.2378 11.6591 7.25321C11.6996 7.26861 11.7489 7.29499 11.7685 7.31175C11.7881 7.32849 11.8738 7.39325 11.9592 7.45567C12.113 7.56809 12.5182 7.93961 12.5182 7.96825C12.5182 7.97644 12.5837 8.06642 12.6639 8.16843C12.744 8.27045 12.8098 8.36757 12.8098 8.38432C12.8098 8.40107 12.826 8.43256 12.846 8.45399C12.9573 8.57298 13.1886 9.18049 13.1886 9.3538C13.1886 9.5548 13.0149 9.62083 12.8869 9.4686C12.6989 9.24518 12.5176 9.48942 12.6813 9.74559C12.7102 9.79081 12.7107 9.81379 12.6838 9.84868C12.6397 9.90613 12.4156 10.0226 12.3489 10.0226C12.2698 10.0226 12.1491 10.1815 12.1279 10.3141C12.1061 10.4511 12.1479 10.6398 12.2122 10.6931C12.2527 10.7267 12.2753 10.8679 12.2402 10.8679C12.2168 10.8679 12.0535 10.7489 11.9432 10.6514C11.8563 10.5746 11.8111 10.4968 11.6868 10.2119C11.6658 10.1638 11.6412 10.0908 11.6323 10.0494C11.6038 9.91816 11.4858 9.81841 11.359 9.81841C11.1823 9.81841 11.1362 9.87003 11.1318 10.0734C11.1291 10.1936 11.1107 10.271 11.0724 10.3236C11.006 10.4146 10.9994 10.4158 10.9208 10.3504C10.7811 10.2343 10.7265 10.1974 10.6941 10.1974C10.6752 10.1974 10.6435 10.1777 10.6235 10.1537C10.6036 10.1296 10.5529 10.1092 10.5108 10.1083C10.3588 10.1048 10.1768 9.98727 10.1067 9.84725C10.0707 9.77526 10.041 9.70306 10.0408 9.68677C10.0405 9.66071 9.77452 9.4686 9.73872 9.4686C9.73114 9.4686 9.65678 9.42357 9.5734 9.36865C9.401 9.25509 9.34099 9.26049 9.34099 9.3895C9.34099 9.46339 9.38168 9.51829 9.57226 9.70162C9.82657 9.94624 9.87615 10.0468 9.78954 10.1425C9.73918 10.1982 9.57031 10.2847 9.51201 10.2847C9.49775 10.2847 9.38822 10.1854 9.26875 10.064C9.10384 9.89636 9.03552 9.84551 8.98494 9.85268C8.93608 9.85961 8.91573 9.88436 8.90871 9.94577C8.90345 9.99182 8.9134 10.0436 8.9307 10.0609C8.94798 10.0781 8.9621 10.1155 8.9621 10.1437C8.9621 10.2359 9.21253 10.5472 9.28674 10.5472C9.3003 10.5472 9.34507 10.5763 9.3861 10.612C9.48446 10.6975 9.46289 10.7804 9.29959 10.9461C9.17738 11.0701 9.17387 11.0789 9.15825 11.3068C9.14945 11.4353 9.12937 11.5563 9.11371 11.5758C9.09806 11.5952 9.07698 11.6507 9.0666 11.6988C9.05622 11.7469 9.00883 11.8307 8.96125 11.885C8.91151 11.9418 8.87474 12.0167 8.87474 12.0615C8.87474 12.1044 8.85544 12.1649 8.83191 12.196C8.80837 12.2271 8.78845 12.2685 8.78794 12.2877C8.78677 12.3325 8.65883 12.4713 8.61862 12.4713C8.60176 12.4713 8.58296 12.4861 8.57694 12.5041C8.5709 12.5222 8.50011 12.5432 8.41962 12.551C8.28697 12.5637 8.26888 12.5581 8.22432 12.4901V12.4898C8.19118 12.4393 8.17493 12.3542 8.17493 12.2288C8.17493 12.0717 8.16374 12.0297 8.10155 11.9581C8.06105 11.9115 8.0215 11.844 8.01389 11.8079C8.00629 11.7718 7.99307 11.7086 7.98448 11.6674C7.97394 11.6169 7.93615 11.5791 7.86799 11.5506C7.81245 11.5274 7.76692 11.4966 7.76692 11.4821C7.76692 11.4676 7.71387 11.4003 7.649 11.3327C7.5354 11.2145 7.52604 11.2107 7.39603 11.2285C7.32179 11.2387 7.23949 11.2668 7.21301 11.2908C7.18653 11.3147 7.11996 11.334 7.06511 11.3336C6.98046 11.333 6.95766 11.3172 6.91436 11.2302C6.8863 11.1738 6.86325 11.1026 6.86325 11.0717C6.86325 11.0409 6.84474 10.9725 6.82214 10.9198C6.76841 10.7947 6.71606 10.4544 6.69851 10.1171C6.6848 9.85379 6.68657 9.84415 6.77388 9.71475C6.82308 9.64185 6.86325 9.57082 6.86325 9.55684C6.86325 9.52767 7.0672 9.45223 7.11108 9.46517C7.12711 9.46991 7.21445 9.48562 7.30495 9.5003C7.39545 9.51496 7.50673 9.54667 7.55249 9.57054C7.59826 9.59442 7.6555 9.61448 7.67955 9.61509C7.7036 9.61568 7.74865 9.63524 7.77977 9.65878C7.81089 9.68232 7.8659 9.70162 7.90197 9.70162C7.93804 9.70162 7.97448 9.71317 7.98306 9.72703C7.99162 9.74091 8.04714 9.75996 8.1064 9.76958C8.29502 9.8002 8.55258 9.64003 8.55352 9.49144C8.55411 9.38064 8.45089 9.29355 8.31883 9.29355C8.25881 9.29355 8.19518 9.27427 8.17493 9.24986C8.15497 9.2258 8.09214 9.20617 8.03502 9.20617C7.97007 9.20617 7.90706 9.1834 7.86685 9.14563C7.78169 9.06561 7.56249 9.05433 7.4834 9.12592C7.45246 9.15393 7.39794 9.17704 7.36234 9.17704C7.32673 9.17704 7.2623 9.19505 7.21901 9.21702C7.17572 9.23899 7.07706 9.26601 6.99973 9.27727L6.85897 9.29783L6.86839 9.21559C6.8768 9.14219 6.89213 9.13135 7.00915 9.11507C7.26478 9.07951 7.40172 9.02086 7.4123 8.94259C7.42072 8.88031 7.45135 8.84475 7.60674 8.71671C7.62277 8.7035 7.70613 8.6697 7.79205 8.64161C7.9381 8.59386 7.9606 8.59374 8.13667 8.6379C8.36542 8.69527 8.46929 8.67631 8.59635 8.55451C8.64908 8.50397 8.72667 8.43314 8.76881 8.39717C8.85691 8.32197 8.86263 8.29468 8.80136 8.24382C8.72777 8.18274 8.55508 8.22981 8.45645 8.33777C8.38111 8.42024 8.35036 8.43314 8.23546 8.43144C8.07524 8.42907 7.86128 8.34084 7.83801 8.26752C7.79668 8.13728 8.02987 8.02544 8.39649 7.99967C8.55325 7.98864 8.69553 7.96847 8.71256 7.95455C8.75554 7.91941 9.13737 7.88151 9.1357 7.91257C9.13497 7.92647 9.07917 7.96509 9.01178 7.99824C8.90349 8.0515 8.8893 8.07005 8.8893 8.15815C8.8893 8.23107 8.90332 8.26068 8.94183 8.26809C9.00351 8.27998 9.22995 8.17947 9.35641 8.08419C9.40501 8.04757 9.46952 8.01266 9.49974 8.0068C9.52996 8.00094 9.56747 7.9578 9.58311 7.91086C9.60872 7.83396 9.60195 7.81675 9.51287 7.73809C9.37411 7.61556 9.31237 7.51512 9.31215 7.41141C9.31171 7.22871 9.27208 7.21101 8.82591 7.19238C8.60417 7.18313 8.45061 7.17317 8.48471 7.17039C8.51882 7.16763 8.56326 7.14561 8.58322 7.12156C8.60318 7.09751 8.64155 7.07787 8.66859 7.07787C8.69562 7.07787 8.74311 7.05858 8.77423 7.03504C8.80535 7.01149 8.85509 6.99186 8.88473 6.99134C8.91437 6.99076 8.98011 6.97121 9.03063 6.94765C9.08115 6.9241 9.19457 6.89197 9.28274 6.87626C9.37091 6.86056 9.50212 6.83446 9.57426 6.81829C9.66074 6.79892 9.83146 6.7894 9.99911 6.78945ZM7.67127 7.74837C7.77735 7.74837 7.75949 7.87486 7.64043 7.96568C7.52976 8.05011 7.41716 8.06415 7.41716 7.99367C7.41716 7.92157 7.59655 7.74837 7.67127 7.74837ZM7.40203 8.30579C7.4181 8.30448 7.43399 8.30475 7.44942 8.30693C7.51293 8.31591 7.49953 8.33568 7.30523 8.5211C7.07527 8.74056 7.03848 8.76583 7.0377 8.70558C7.03756 8.6842 7.06703 8.60671 7.10337 8.53338C7.16644 8.40614 7.28953 8.31492 7.40203 8.30579ZM13.1661 9.76416C13.1812 9.76781 13.2015 9.78426 13.2278 9.81327C13.2947 9.88728 13.3004 10.6054 13.234 10.6054C13.2109 10.6054 13.1818 10.5889 13.1692 10.5689C13.0384 10.3603 13.0021 10.1164 13.0856 10.006C13.1091 9.9749 13.1287 9.90679 13.1293 9.85468C13.1299 9.78762 13.1409 9.75807 13.1661 9.76416ZM10.7546 10.4598C10.7786 10.4598 10.7983 10.4649 10.7983 10.4712C10.7983 10.4775 10.7786 10.4902 10.7546 10.4995C10.7305 10.5087 10.7109 10.5033 10.7109 10.4878C10.7109 10.4722 10.7305 10.4598 10.7546 10.4598ZM12.5891 10.7953C12.5986 10.7939 12.6096 10.7949 12.621 10.7993C12.6445 10.8083 12.6562 10.8272 12.6473 10.8416C12.6284 10.8722 12.594 10.8756 12.5676 10.8493C12.5444 10.826 12.5604 10.7996 12.5891 10.7953ZM9.53029 11.0135C9.56218 11.0135 9.54195 11.1498 9.49774 11.2322C9.47194 11.2803 9.44031 11.3523 9.4275 11.3924C9.40981 11.4478 9.40371 11.4253 9.4018 11.2979C9.39984 11.1669 9.41193 11.1173 9.45748 11.0717C9.48954 11.0397 9.52227 11.0135 9.53029 11.0135ZM12.9425 11.0186C12.9758 11.0231 13.0023 11.0637 13.0308 11.1457C13.0657 11.2465 13.0649 11.2743 13.0248 11.3633C12.9414 11.548 12.8649 11.6974 12.808 11.7862C12.7773 11.8343 12.7396 11.9017 12.7244 11.9361C12.7092 11.9705 12.6861 12.0033 12.673 12.009C12.6599 12.0146 12.6113 12.075 12.5651 12.1432C12.5188 12.2113 12.4699 12.2671 12.456 12.2671C12.4422 12.2671 12.4306 12.2867 12.4306 12.3108C12.4306 12.3349 12.4078 12.3558 12.3798 12.3573C12.0803 12.3736 12.0253 12.3678 12.0123 12.3182C11.9959 12.2557 11.8966 12.2514 11.8373 12.3108C11.8132 12.3349 11.7597 12.3545 11.7185 12.3545C11.6558 12.3545 11.6437 12.3413 11.6437 12.2728C11.6437 12.2278 11.6244 12.1654 11.6009 12.1343C11.5751 12.1002 11.5577 12.0108 11.5572 11.9093C11.5562 11.7294 11.6241 11.5833 11.7639 11.4653C11.83 11.4095 12.1976 11.2748 12.281 11.2756C12.3826 11.2767 12.7836 11.1228 12.8734 11.0483C12.9001 11.0262 12.9226 11.0159 12.9425 11.0186ZM11.7768 12.7077C11.8193 12.7108 11.8494 12.725 11.8598 12.7523C11.87 12.7786 11.8748 12.8017 11.8704 12.8034C11.866 12.8051 11.8359 12.8233 11.8039 12.8439C11.7718 12.8646 11.7098 12.8969 11.6657 12.9159C11.6216 12.9349 11.5855 12.9595 11.5855 12.9707C11.5855 12.982 11.5471 12.9998 11.5001 13.0101C11.4531 13.0205 11.399 13.0477 11.3799 13.0707C11.3608 13.0937 11.3262 13.1127 11.3031 13.1127C11.2799 13.1127 11.2322 13.1285 11.1971 13.1481C11.1198 13.1914 10.9395 13.2459 10.6672 13.308C10.4418 13.3594 9.62636 13.3882 9.53057 13.3482H9.53029C9.49822 13.3349 9.40004 13.3143 9.31186 13.3023C9.13883 13.2788 9.10898 13.2548 9.10829 13.1401C9.10785 13.0588 9.26962 12.8794 9.34327 12.8794C9.367 12.8794 9.41568 12.8587 9.45148 12.8337C9.57547 12.7468 10.2155 12.8055 10.4582 12.9259C10.5036 12.9484 10.5666 12.9667 10.5981 12.9667C10.6297 12.9667 10.691 12.9848 10.7343 13.0067C10.8354 13.0579 11.0038 13.0849 11.0638 13.0595C11.0895 13.0487 11.1715 12.9882 11.2463 12.9253C11.4084 12.789 11.649 12.6985 11.7768 12.7077Z" fill="white"/>
</svg>
