<svg width="20" height="20" viewBox="0 0 20 20" fill="none" xmlns="http://www.w3.org/2000/svg">
<rect width="20" height="20" fill="#0A97D9"/>
<path d="M11.9895 9.63754C10.2171 9.67873 8.47944 10.6148 6.75501 11.8936C5.99575 10.5895 4.99456 9.66157 3.40002 9.65673C4.92402 11.9253 4.6181 13.9459 3.40002 15.8427C4.99456 15.8379 5.99575 14.91 6.75501 13.6059C10.2039 16.1635 13.7057 17.3495 17.4316 12.7499C15.5686 10.4501 13.7618 9.59635 11.9895 9.63754ZM13.7055 11.4269C13.8172 11.4269 13.9277 11.4488 14.0309 11.4916C14.134 11.5343 14.2278 11.5969 14.3067 11.6758C14.3857 11.7548 14.4483 11.8485 14.491 11.9517C14.5337 12.0548 14.5557 12.1654 14.5557 12.277C14.5556 12.5024 14.466 12.7186 14.3066 12.878C14.1472 13.0374 13.9309 13.1269 13.7055 13.1268C13.4802 13.1268 13.264 13.0372 13.1047 12.8779C12.9453 12.7185 12.8558 12.5024 12.8557 12.277C12.8557 12.0516 12.9452 11.8354 13.1046 11.676C13.2639 11.5165 13.4801 11.4269 13.7055 11.4269V11.4269ZM17.3007 6.67752L17.3618 7.37649C16.0389 8.28677 15.0563 7.92512 14.1728 7.19302C13.0811 7.99852 11.8789 8.2382 10.4158 7.14059C9.33616 7.80157 8.23083 8.3784 6.58025 7.1668C5.71889 7.83862 4.85452 8.50037 3.46983 7.42018L3.43488 6.68626C4.70727 7.43137 5.70839 7.00651 6.65888 6.24941C7.91994 7.10274 9.16628 7.35297 10.3809 6.30183C11.7896 7.59339 12.9729 7.04132 14.1291 6.26689C14.9763 6.80937 15.7566 7.50469 17.3007 6.67752V6.67752ZM17.3007 4.52822L17.3618 5.22718C16.0389 6.13746 15.0563 5.7758 14.1728 5.0437C13.0811 5.8492 11.8789 6.08889 10.4158 4.99127C9.33616 5.65225 8.23083 6.22909 6.58025 5.01749C5.71889 5.6893 4.85452 6.35106 3.46983 5.27086L3.43488 4.53695C4.70727 5.28207 5.70839 4.85719 6.65888 4.1001C7.91994 4.95343 9.16628 5.20367 10.3809 4.15252C11.7896 5.44408 12.9729 4.892 14.1291 4.11757C14.9763 4.66006 15.7566 5.35539 17.3007 4.52822V4.52822Z" fill="white"/>
</svg>
