<svg width="20" height="20" viewBox="0 0 20 20" fill="none" xmlns="http://www.w3.org/2000/svg">
<rect width="20" height="20" fill="#00689D"/>
<path fill-rule="evenodd" clip-rule="evenodd" d="M16.1892 4.20002C15.5947 4.19458 15.5047 4.53725 15.4923 4.9336C16.0868 4.93903 16.1769 4.59636 16.1892 4.20002ZM14.5912 4.29355C14.2468 4.77818 14.4766 5.04801 14.7947 5.2848C15.1391 4.80017 14.9092 4.53034 14.5912 4.29355ZM13.898 5.01926C13.5558 5.50542 13.7868 5.77411 14.106 6.00947C14.4482 5.5233 14.2171 5.25461 13.898 5.01926ZM15.271 5.11451C15.2505 5.11427 15.2307 5.12201 15.2158 5.13609C14.7508 5.56322 14.3484 6.01437 14.1276 6.52993C14.0756 6.6512 14.035 6.77643 14.0052 6.90512C13.6958 6.59629 13.5833 6.26665 13.1839 6.27364C12.2275 6.2904 11.7299 7.77807 10.4003 7.7874C8.52141 7.8006 8.67034 5.5205 5.13566 5.50203C7.25289 7.19646 5.10559 8.75339 8.2417 9.95594C6.91083 10.2046 6.88145 11.3428 5.12641 10.7789C5.94438 11.0964 6.82665 12.1294 8.47366 12.1892V13.4244C6.59911 13.3686 4.78103 13.2929 4.78103 13.2929V14.0765C4.78103 14.0765 9.15546 13.8873 11.3525 13.8873C12.0795 13.8873 12.6838 14.0342 12.9437 14.1087V14.6045C12.9437 14.7862 13.0902 14.9324 13.272 14.9324H15.1226C15.3043 14.9324 15.4508 14.7862 15.4508 14.6045V12.7745C15.4508 12.5927 15.3043 12.4466 15.1226 12.4466H13.272C13.0902 12.4466 12.9437 12.5927 12.9437 12.7745V13.2603C12.6838 13.3348 12.0795 13.482 11.3525 13.482C10.8588 13.482 10.2485 13.4718 9.60917 13.457V12.1368C12.8163 11.7666 12.7071 9.72002 12.6957 9.25251C12.6576 7.69709 13.3815 7.36325 13.9559 7.27551C13.9412 7.59067 13.9951 7.9264 14.1413 8.28628C14.1452 8.29589 14.151 8.30463 14.1582 8.31201C14.1655 8.31939 14.1742 8.32526 14.1838 8.32928C14.1933 8.33331 14.2036 8.3354 14.214 8.33546C14.2244 8.33552 14.2346 8.33354 14.2442 8.32962C14.2538 8.32571 14.2626 8.31994 14.27 8.31265C14.2773 8.30536 14.2832 8.29668 14.2872 8.28711C14.2913 8.27755 14.2934 8.26729 14.2934 8.25692C14.2935 8.24655 14.2915 8.23627 14.2876 8.22666C14.1449 7.87549 14.0952 7.55656 14.1132 7.25837C14.253 7.24561 14.382 7.24021 14.4733 7.23096C14.341 7.17151 14.2332 7.10189 14.1409 7.02847C14.1688 6.87846 14.2121 6.73299 14.2725 6.59195C14.4791 6.10984 14.8652 5.67287 15.3227 5.25259C15.3347 5.242 15.3431 5.22804 15.347 5.21253C15.3509 5.19703 15.3499 5.18071 15.3443 5.16575C15.3387 5.15079 15.3287 5.13789 15.3156 5.12874C15.3025 5.11959 15.2869 5.11462 15.271 5.11451ZM15.7212 5.43076C15.5315 5.44085 15.368 5.57002 15.211 5.72851C15.6426 6.13742 15.9421 5.94791 16.2211 5.66615C16.0323 5.48725 15.8688 5.42291 15.7212 5.43076ZM15.0924 6.18558C14.9258 6.18563 14.7613 6.27405 14.5977 6.38603C14.9442 6.86913 15.274 6.73949 15.6013 6.51554C15.428 6.27399 15.2591 6.18554 15.0924 6.18558ZM13.052 11.5447C12.8703 11.5447 12.7238 11.6912 12.7238 11.873V11.9398C12.7238 12.1215 12.8703 12.2677 13.052 12.2677H15.3275C15.5092 12.2677 15.6554 12.1215 15.6554 11.9398V11.873C15.6554 11.6912 15.5092 11.5447 15.3275 11.5447H13.052ZM9.24734 12.17V13.4481C9.10917 13.4445 8.97489 13.4393 8.83549 13.4354V12.1899C8.97785 12.186 9.11526 12.1794 9.24734 12.17ZM4.1283 13.0602C3.94655 13.0602 3.80005 13.2064 3.80005 13.3881V13.9435C3.80005 14.1253 3.94655 14.2714 4.1283 14.2714H4.22081C4.40256 14.2714 4.54872 14.1253 4.54872 13.9435V13.3881C4.54872 13.2064 4.40256 13.0602 4.22081 13.0602H4.1283ZM13.052 15.0609C12.8703 15.0609 12.7238 15.2074 12.7238 15.3891V15.4559C12.7238 15.6377 12.8703 15.7842 13.052 15.7842H15.3275C15.5092 15.7842 15.6554 15.6377 15.6554 15.4559V15.3891C15.6554 15.2074 15.5092 15.0609 15.3275 15.0609H13.052Z" fill="white"/>
</svg>
