<svg width="20" height="20" viewBox="0 0 20 20" fill="none" xmlns="http://www.w3.org/2000/svg">
<rect width="20" height="20" fill="#DDA83A"/>
<path fill-rule="evenodd" clip-rule="evenodd" d="M11.9199 15.6817C12.114 15.6817 12.1486 15.4704 12.139 15.3336C12.1274 15.1674 12.2873 15.141 12.371 15.1144C13.3157 14.8149 14.3066 14.2401 15.0907 13.4125C15.8423 12.6191 16.4354 11.7958 16.6503 10.4213C16.6763 10.2548 16.5825 10.1248 16.4183 10.1248H3.63634C3.47211 10.1248 3.3783 10.2548 3.40433 10.4213C3.61917 11.7958 4.21231 12.6191 4.96393 13.4125C5.74795 14.2401 6.73889 14.8149 7.68355 15.1144C7.76731 15.141 7.92716 15.1674 7.91556 15.3336C7.90602 15.4704 7.94063 15.6817 8.13467 15.6817H11.9199ZM7.56134 9.56297H8.40894C8.40894 9.56297 8.79742 8.47702 7.87121 7.54816C7.57489 7.25098 7.3871 6.80554 7.3871 6.3858C7.3871 5.58746 7.74525 5.12516 7.85111 4.95467C8.12398 4.51517 7.47365 4.20602 7.19376 4.54209C6.76145 5.06117 6.51063 5.77465 6.51063 6.45027C6.51063 7.21166 6.88019 7.59829 7.25821 8.04901C7.96023 8.88606 7.56134 9.56297 7.56134 9.56297V9.56297ZM12.6655 9.56297H13.5131C13.5131 9.56297 13.9016 8.47702 12.9753 7.54816C12.679 7.25098 12.4912 6.80554 12.4912 6.3858C12.4912 5.58746 12.8494 5.12516 12.9552 4.95467C13.2281 4.51517 12.5778 4.20602 12.2979 4.54209C11.8656 5.06117 11.6148 5.77465 11.6148 6.45027C11.6148 7.21166 11.9843 7.59829 12.3623 8.04901C13.0644 8.88606 12.6655 9.56297 12.6655 9.56297V9.56297ZM10.1263 9.56297H10.9739C10.9739 9.56297 11.3624 8.47702 10.4362 7.54816C10.1398 7.25098 9.95205 6.80554 9.95205 6.3858C9.95205 5.58746 10.3102 5.12516 10.4161 4.95467C10.6889 4.51517 10.0386 4.20602 9.75871 4.54209C9.3264 5.06117 9.07558 5.77465 9.07558 6.45027C9.07558 7.21166 9.44514 7.59829 9.82316 8.04901C10.5252 8.88606 10.1263 9.56297 10.1263 9.56297V9.56297Z" fill="white"/>
</svg>
