<svg width="20" height="20" viewBox="0 0 20 20" fill="none" xmlns="http://www.w3.org/2000/svg">
<rect width="20" height="20" fill="#C5192D"/>
<path fill-rule="evenodd" clip-rule="evenodd" d="M15.8225 4.89991C15.5921 4.90112 15.3614 5.02745 15.3614 5.27516V5.95049H16.2834V5.27516C16.2834 5.02277 16.053 4.89874 15.8225 4.89991ZM15.3614 6.24081V12.9912L15.8225 14.5037L16.2834 12.9912V6.24081H15.3614ZM4.66578 5.58823V13.0527L8.62199 14.2726V7.88896L4.66578 5.58823ZM8.58857 15.1249L3.80005 13.7713V5.90033L4.21668 5.58232V13.464L8.68503 14.7674H9.04831L13.5167 13.464V5.58232L13.9333 5.90033V13.7713L9.14476 15.1249H8.58857ZM13.0676 5.58823V13.0527L9.11133 14.2726V7.88896L13.0676 5.58823Z" fill="white"/>
</svg>
