<svg width="20" height="20" viewBox="0 0 20 20" fill="none" xmlns="http://www.w3.org/2000/svg">
<rect width="20" height="20" fill="#FF3A21"/>
<path fill-rule="evenodd" clip-rule="evenodd" d="M7.19027 7.68461V8.71672H11.117V7.68461H7.19027ZM7.19027 9.28555V10.3663H11.117V9.28555H7.19027ZM11.8345 3.1001V4.22233H13.1694L11.7474 5.64473C11.0028 5.05844 10.0832 4.73883 9.13546 4.73701C8.01216 4.73702 6.93487 5.18329 6.14057 5.97763C5.34628 6.77197 4.90004 7.84932 4.90002 8.97269C4.90126 9.99964 5.27551 10.9912 5.95316 11.7628C6.6308 12.5344 7.56567 13.0335 8.5838 13.1673V14.4101H7.24886V15.6581H8.5838V16.8773H9.82212V15.6581H11.1475V14.4101H9.82212V13.1474C10.8123 12.9847 11.7125 12.4757 12.3624 11.7112C13.0123 10.9466 13.3697 9.97617 13.3709 8.97269C13.369 8.10075 13.0981 7.25064 12.5952 6.5384L14.0017 5.13176V6.36056H15.1527V3.1001H11.8345ZM9.13546 5.89282C9.95223 5.89286 10.7355 6.21736 11.3131 6.79494C11.8906 7.37252 12.2151 8.15587 12.2152 8.97269C12.2152 9.78957 11.8908 10.573 11.3132 11.1507C10.7357 11.7283 9.95229 12.0529 9.13546 12.0529C8.73098 12.0529 8.33045 11.9733 7.95675 11.8185C7.58305 11.6637 7.24351 11.4368 6.9575 11.1508C6.67149 10.8648 6.44461 10.5252 6.28984 10.1515C6.13506 9.77775 6.0554 9.3772 6.05542 8.97269C6.05547 8.15581 6.38 7.37241 6.95762 6.79482C7.53524 6.21723 8.31863 5.89277 9.13546 5.89282V5.89282Z" fill="white"/>
</svg>
