<svg width="20" height="20" viewBox="0 0 20 20" fill="none" xmlns="http://www.w3.org/2000/svg">
<rect x="-0.00012207" width="20" height="20" fill="#FCC30B"/>
<path fill-rule="evenodd" clip-rule="evenodd" d="M4.80465 6.63037L6.21455 7.44438C6.3753 7.53719 6.43 7.74132 6.33719 7.90207C6.24438 8.06282 6.04025 8.11751 5.8795 8.0247L4.4696 7.21069C4.30885 7.11788 4.25415 6.91376 4.34696 6.75301C4.43977 6.59226 4.6439 6.53756 4.80465 6.63037ZM7.25476 4.44413L8.06877 5.85404C8.16158 6.01479 8.10688 6.21892 7.94613 6.31173C7.78538 6.40454 7.58125 6.34984 7.48845 6.18909L6.67443 4.77918C6.58163 4.61843 6.63632 4.41431 6.79707 4.3215C6.95782 4.22869 7.16195 4.28339 7.25476 4.44413V4.44413ZM10.4697 3.77586L10.4697 5.40388C10.4697 5.5895 10.3203 5.73893 10.1347 5.73893C9.94907 5.73893 9.79964 5.5895 9.79964 5.40388L9.79964 3.77586C9.79964 3.59024 9.94907 3.44081 10.1347 3.44081C10.3203 3.44081 10.4697 3.59025 10.4697 3.77586V3.77586ZM13.5881 4.80461L12.7741 6.21451C12.6813 6.37526 12.4772 6.42996 12.3164 6.33715C12.1557 6.24434 12.101 6.04021 12.1938 5.87946L13.0078 4.46956C13.1006 4.30881 13.3047 4.25411 13.4655 4.34692C13.6262 4.43973 13.6809 4.64386 13.5881 4.80461ZM15.7744 7.25472L14.3645 8.06873C14.2037 8.16154 13.9996 8.10684 13.9068 7.94609C13.814 7.78534 13.8687 7.58121 14.0294 7.4884L15.4393 6.67439C15.6001 6.58158 15.8042 6.63629 15.897 6.79703C15.9898 6.95779 15.9351 7.16191 15.7744 7.25472V7.25472ZM16.4426 10.4697L14.8146 10.4697C14.629 10.4697 14.4796 10.3203 14.4796 10.1346C14.4796 9.94903 14.629 9.7996 14.8146 9.7996L16.4426 9.7996C16.6283 9.7996 16.7777 9.94903 16.7777 10.1346C16.7777 10.3203 16.6283 10.4697 16.4426 10.4697V10.4697ZM15.4139 13.5881L14.004 12.7741C13.8432 12.6813 13.7885 12.4771 13.8814 12.3164C13.9742 12.1556 14.1783 12.1009 14.339 12.1938L15.7489 13.0078C15.9097 13.1006 15.9644 13.3047 15.8716 13.4655C15.7788 13.6262 15.5746 13.6809 15.4139 13.5881ZM12.9638 15.7743L12.1498 14.3644C12.057 14.2037 12.1117 13.9995 12.2724 13.9067C12.4332 13.8139 12.6373 13.8686 12.7301 14.0294L13.5441 15.4393C13.6369 15.6 13.5822 15.8042 13.4215 15.897C13.2607 15.9898 13.0566 15.9351 12.9638 15.7743V15.7743ZM9.7488 16.4426L9.7488 14.8146C9.7488 14.629 9.89823 14.4795 10.0838 14.4795C10.2695 14.4795 10.4189 14.629 10.4189 14.8146L10.4189 16.4426C10.4189 16.6282 10.2695 16.7777 10.0839 16.7777C9.89823 16.7777 9.7488 16.6282 9.7488 16.4426ZM6.63041 15.4139L7.44442 14.004C7.53723 13.8432 7.74136 13.7885 7.90211 13.8813C8.06286 13.9741 8.11755 14.1783 8.02474 14.339L7.21073 15.7489C7.11792 15.9097 6.9138 15.9644 6.75305 15.8715C6.5923 15.7787 6.5376 15.5746 6.63041 15.4139ZM4.44417 12.9637L5.85408 12.1497C6.01483 12.0569 6.21896 12.1116 6.31177 12.2724C6.40458 12.4331 6.34988 12.6372 6.18913 12.7301L4.77923 13.5441C4.61848 13.6369 4.41435 13.5822 4.32154 13.4214C4.22873 13.2607 4.28342 13.0565 4.44417 12.9637V12.9637ZM3.7759 9.74876L5.40392 9.74876C5.58954 9.74876 5.73897 9.89819 5.73897 10.0838C5.73897 10.2694 5.58954 10.4189 5.40392 10.4189L3.7759 10.4189C3.59028 10.4189 3.44085 10.2694 3.44085 10.0838C3.44085 9.8982 3.59028 9.74876 3.7759 9.74876V9.74876ZM10.1091 6.26572C9.08978 6.26579 8.11221 6.67077 7.39146 7.39159C6.67071 8.11241 6.26581 9.09001 6.26584 10.1094C6.2659 11.1286 6.67084 12.1062 7.39159 12.8269C8.11233 13.5476 9.08984 13.9526 10.1091 13.9526C11.1285 13.9527 12.1061 13.5478 12.8269 12.827C13.5477 12.1063 13.9527 11.1287 13.9528 10.1094C13.9528 9.6046 13.8534 9.10478 13.6602 8.63845C13.467 8.17211 13.1839 7.74839 12.827 7.39147C12.4701 7.03456 12.0464 6.75143 11.58 6.55828C11.1137 6.36512 10.6139 6.26571 10.1091 6.26572V6.26572ZM10.0947 7.57161C10.2203 7.57161 10.3212 7.67285 10.3212 7.79845L10.3212 9.09371C10.3212 9.21931 10.2203 9.32055 10.0947 9.32055C9.96914 9.32055 9.8679 9.21931 9.8679 9.09371L9.8679 7.79845C9.8679 7.67285 9.96914 7.57161 10.0947 7.57161V7.57161ZM9.5033 8.23603L9.5033 8.90627C9.28047 9.0185 9.09318 9.19041 8.96231 9.40283C8.83144 9.61526 8.76214 9.85985 8.76213 10.1094C8.76216 10.4666 8.90408 10.8092 9.15669 11.0618C9.40929 11.3144 9.75189 11.4563 10.1091 11.4564C10.286 11.4564 10.4612 11.4216 10.6247 11.3539C10.7881 11.2862 10.9367 11.187 11.0618 11.0619C11.1869 10.9368 11.2862 10.7883 11.3539 10.6249C11.4216 10.4614 11.4565 10.2863 11.4565 10.1094C11.4562 9.86138 11.3875 9.61829 11.258 9.40686C11.1284 9.19543 10.943 9.02387 10.7221 8.91107L10.7221 8.2398C11.1164 8.36884 11.4598 8.61906 11.7035 8.95477C11.9471 9.29048 12.0786 9.69454 12.0791 10.1094C12.0791 10.368 12.0281 10.6242 11.9291 10.8632C11.8301 11.1021 11.685 11.3193 11.5021 11.5022C11.3191 11.6851 11.102 11.8302 10.863 11.9291C10.624 12.0281 10.3678 12.079 10.1091 12.079C9.58676 12.079 9.08579 11.8714 8.71642 11.5021C8.34705 11.1327 8.13953 10.6317 8.13951 10.1094C8.13969 9.69305 8.27177 9.2875 8.51679 8.95093C8.76182 8.61436 9.10718 8.36409 9.5033 8.23603V8.23603Z" fill="white"/>
</svg>
