<svg width="20" height="20" viewBox="0 0 20 20" fill="none" xmlns="http://www.w3.org/2000/svg">
<rect width="20" height="20" fill="#A21942"/>
<path d="M16.5655 3.30006C16.5547 3.29995 16.5434 3.30111 16.5322 3.30416L14.3885 3.87842C14.2988 3.90246 14.2688 4.01471 14.3347 4.08023L14.798 4.54347L10.2207 9.12345L8.39871 7.30201C8.22742 7.1308 7.94978 7.1308 7.77849 7.30201L4.09998 10.9802L4.72054 11.6003L8.0886 8.23226L9.91021 10.054C10.0815 10.2255 10.3594 10.2255 10.5308 10.054L15.4182 5.16363L15.9038 5.64915C15.9268 5.67219 15.9582 5.68493 15.9908 5.68444C16.0447 5.68373 16.0916 5.64737 16.1056 5.59535L16.6799 3.45184C16.701 3.37336 16.6409 3.30082 16.5655 3.30005V3.30006ZM15.4182 6.40431L12.5302 9.29408V16.353C12.5302 16.5386 12.6797 16.6878 12.8654 16.6878H15.3216C15.5072 16.6878 15.6567 16.5386 15.6567 16.353V6.64279L15.4182 6.40431ZM8.00259 9.55894L4.87646 12.6851V16.353C4.87646 16.5386 5.02596 16.6878 5.21158 16.6878H7.66781C7.85343 16.6878 8.00259 16.5386 8.00259 16.353V9.55894ZM11.8295 9.99511L10.5308 11.2947C10.3594 11.4662 10.0815 11.4662 9.91021 11.2947L8.70334 10.0876V16.353C8.70334 16.5386 8.85285 16.6878 9.03847 16.6878H11.4947C11.6803 16.6878 11.8295 16.5386 11.8295 16.353V9.99511Z" fill="white"/>
<path d="M16.5655 3.30006C16.5547 3.29995 16.5434 3.30111 16.5322 3.30416L14.3885 3.87842C14.2988 3.90246 14.2688 4.01471 14.3347 4.08023L14.798 4.54347L10.2207 9.12345L8.39871 7.30201C8.22742 7.1308 7.94978 7.1308 7.77849 7.30201L4.09998 10.9802L4.72054 11.6003L8.0886 8.23226L9.91021 10.054C10.0815 10.2255 10.3594 10.2255 10.5308 10.054L15.4182 5.16363L15.9038 5.64914C15.9268 5.67219 15.9582 5.68493 15.9908 5.68444C16.0447 5.68373 16.0916 5.64737 16.1056 5.59535L16.6799 3.45184C16.701 3.37336 16.6409 3.30082 16.5655 3.30005V3.30006Z" fill="white"/>
</svg>
