<svg width="20" height="20" viewBox="0 0 20 20" fill="none" xmlns="http://www.w3.org/2000/svg">
<rect width="20" height="20" fill="#FD6925"/>
<path d="M13.0631 5.37724V9.05801L9.87542 10.8984L6.68774 9.05801V5.37725L9.87542 3.53687L13.0631 5.37724Z" stroke="white" stroke-width="0.5" stroke-linejoin="round"/>
<path d="M16.2755 10.9126V14.5934L13.0878 16.4338L9.90015 14.5934V10.9126L13.0878 9.07227L16.2755 10.9126Z" stroke="white" stroke-width="0.5" stroke-linejoin="round"/>
<path d="M9.87535 10.8985V14.5793L6.68768 16.4196L3.5 14.5793V10.8985L6.68768 9.05811L9.87535 10.8985Z" stroke="white" stroke-width="0.5" stroke-linejoin="round"/>
<path d="M6.67688 16.4544V9.02338L9.83985 7.19727L16.2754 10.9128L9.90002 14.5935L6.68764 12.7389L6.67689 16.4544" stroke="white" stroke-width="0.5" stroke-linejoin="round"/>
<path d="M9.90015 7.1626V10.8843" stroke="white" stroke-width="0.5" stroke-linejoin="round"/>
<path d="M9.84876 7.19212L13.0719 5.33126L9.90002 3.5L6.67688 5.36086L9.84876 7.19212Z" fill="white" stroke="white" stroke-width="0.5" stroke-linejoin="round"/>
<path d="M6.67689 12.7451L9.90003 10.8842L6.72815 9.05298L3.505 10.9138L6.67689 12.7451Z" fill="white" stroke="white" stroke-width="0.5" stroke-linejoin="round"/>
<path d="M9.86462 14.5729L13.0878 16.4338V12.7713L9.86462 10.9104V14.5729Z" fill="white" stroke="white" stroke-width="0.5" stroke-linejoin="round"/>
</svg>
