<svg viewBox="0 0 20 23" fill="none" xmlns="http://www.w3.org/2000/svg">
<path d="M4.5 19.0586H3C1.89543 19.0586 1 18.1632 1 17.0586V3.05859C1 1.95402 1.89543 1.05859 3 1.05859H17C18.1046 1.05859 19 1.95402 19 3.05859V17.0586C19 18.1632 18.1046 19.0586 17 19.0586H15.5M10 18.0586C11.6569 18.0586 13 16.7154 13 15.0586C13 13.4017 11.6569 12.0586 10 12.0586C8.34315 12.0586 7 13.4017 7 15.0586C7 16.7154 8.34315 18.0586 10 18.0586ZM10 18.0586L10.0214 18.0584L6.82867 21.2512L4.00024 18.4227L7.01965 15.4033M10 18.0586L13.1928 21.2512L16.0212 18.4227L13.0018 15.4033M7 5.05859H13M5 8.55859H15" fill="none" stroke="currentColor" stroke-width="2" stroke-linecap="round" stroke-linejoin="round"/>
</svg>
