<svg width="512" height="512" viewBox="0 0 512 512" fill="none" xmlns="http://www.w3.org/2000/svg">
<g clip-path="url(#clip0_716_12092)">
<mask id="mask0_716_12092" style="mask-type:luminance" maskUnits="userSpaceOnUse" x="0" y="0" width="512" height="512">
<path d="M399.138 468.212C516.34 389.158 547.266 230.062 468.213 112.861C389.159 -4.34041 230.063 -35.2655 112.861 43.7878C-4.34042 122.841 -35.2655 281.937 43.7878 399.139C122.842 516.341 281.938 547.265 399.138 468.212Z" fill="white"/>
</mask>
<g mask="url(#mask0_716_12092)">
<path d="M266.989 337.709C266.18 340.951 265.777 345.409 265.777 351.078C265.777 372.137 277.272 382.667 300.265 382.667C308.208 382.667 316.231 381.115 324.335 378.011C331.56 375.244 340.037 379.129 341.658 386.984L350.575 430.191C351.605 435.187 349.484 440.369 345.093 442.635C325.252 452.879 300.628 458 271.223 458C240.565 458 215.958 449.9 197.403 433.699C178.848 417.499 169.573 395.222 169.573 366.871C169.573 358.774 170.58 349.257 172.597 338.318L195.795 220.768C197.252 213.398 191.86 206.486 184.649 206.486H162.385C155.167 206.486 149.772 199.565 151.243 192.185L161.032 143.048C162.13 137.534 166.779 133.585 172.171 133.585H203.866C209.264 133.585 213.92 129.625 215.011 124.104L226.996 63.4805C228.084 57.9592 232.74 54 238.138 54H309.292C316.5 54 321.892 60.9118 320.435 68.2848L310.35 119.3C308.893 126.673 314.284 133.585 321.495 133.585H374.615C381.833 133.585 387.228 140.51 385.757 147.886L375.968 197.026C374.87 202.537 370.22 206.486 364.829 206.486H302.269C296.874 206.486 292.221 210.442 291.127 215.96L266.989 337.709Z" fill="#EDBA27"/>
</g>
</g>
<defs>
<clipPath id="clip0_716_12092">
<rect width="512" height="512" fill="white"/>
</clipPath>
</defs>
</svg>
