<svg  viewBox="0 0 150 135" fill="none" xmlns="http://www.w3.org/2000/svg">
<g clip-path="url(#clip0_4811_11094)">
<path d="M93.1975 78.4488H38.2542C36.391 78.4467 34.6047 77.7069 33.2872 76.3916C31.9698 75.0764 31.2287 73.2931 31.2266 71.4331V7.01575C31.2287 5.1557 31.9698 3.37244 33.2872 2.05719C34.6047 0.741933 36.391 0.00210111 38.2542 0H89.37L100.225 8.63764V71.4331C100.223 73.2931 99.482 75.0764 98.1645 76.3916C96.847 77.7069 95.0607 78.4467 93.1975 78.4488Z" fill="#E6E6E6"/>
<path d="M38.254 2.01953C36.9272 2.02102 35.6552 2.54787 34.717 3.48449C33.7787 4.42111 33.251 5.69101 33.2495 7.01559V71.4329C33.251 72.7575 33.7787 74.0274 34.717 74.964C35.6552 75.9006 36.9272 76.4275 38.254 76.429H93.1974C94.5242 76.4275 95.7962 75.9006 96.7344 74.964C97.6727 74.0274 98.2004 72.7575 98.2019 71.4329V9.61048L88.6622 2.01953H38.254Z" fill="white"/>
<path d="M82.5109 20.7507H57.496C57.3423 20.7507 57.1901 20.7205 57.0481 20.6617C56.9061 20.603 56.7771 20.517 56.6685 20.4085C56.5598 20.3 56.4736 20.1712 56.4148 20.0295C56.356 19.8877 56.3257 19.7358 56.3257 19.5824C56.3257 19.4289 56.356 19.277 56.4148 19.1353C56.4736 18.9935 56.5598 18.8647 56.6685 18.7563C56.7771 18.6478 56.9061 18.5617 57.0481 18.503C57.1901 18.4443 57.3423 18.4141 57.496 18.4141H82.5109C82.6646 18.4141 82.8168 18.4443 82.9588 18.503C83.1007 18.5617 83.2298 18.6478 83.3384 18.7563C83.4471 18.8647 83.5333 18.9935 83.5921 19.1353C83.6509 19.277 83.6812 19.4289 83.6812 19.5824C83.6812 19.7358 83.6509 19.8877 83.5921 20.0295C83.5333 20.1712 83.4471 20.3 83.3384 20.4085C83.2298 20.517 83.1007 20.603 82.9588 20.6617C82.8168 20.7205 82.6646 20.7507 82.5109 20.7507Z" fill="#CCCCCC"/>
<path d="M87.3383 24.694H57.496C57.1856 24.694 56.8879 24.571 56.6685 24.3519C56.449 24.1328 56.3257 23.8356 56.3257 23.5257C56.3257 23.2159 56.449 22.9187 56.6685 22.6996C56.8879 22.4805 57.1856 22.3574 57.496 22.3574H87.3383C87.6487 22.3574 87.9464 22.4805 88.1659 22.6996C88.3853 22.9187 88.5086 23.2159 88.5086 23.5257C88.5086 23.8356 88.3853 24.1328 88.1659 24.3519C87.9464 24.571 87.6487 24.694 87.3383 24.694Z" fill="#CCCCCC"/>
<path d="M82.5109 38.4216H57.496C57.1856 38.4216 56.8879 38.2985 56.6685 38.0794C56.449 37.8603 56.3257 37.5631 56.3257 37.2533C56.3257 36.9434 56.449 36.6463 56.6685 36.4272C56.8879 36.208 57.1856 36.085 57.496 36.085H82.5109C82.8213 36.085 83.119 36.208 83.3384 36.4272C83.5579 36.6463 83.6812 36.9434 83.6812 37.2533C83.6812 37.5631 83.5579 37.8603 83.3384 38.0794C83.119 38.2985 82.8213 38.4216 82.5109 38.4216Z" fill="#CCCCCC"/>
<path d="M87.3383 42.364H57.496C57.1856 42.364 56.8879 42.2409 56.6685 42.0218C56.449 41.8027 56.3257 41.5055 56.3257 41.1957C56.3257 40.8858 56.449 40.5886 56.6685 40.3695C56.8879 40.1504 57.1856 40.0273 57.496 40.0273H87.3383C87.6487 40.0273 87.9464 40.1504 88.1659 40.3695C88.3853 40.5886 88.5086 40.8858 88.5086 41.1957C88.5086 41.5055 88.3853 41.8027 88.1659 42.0218C87.9464 42.2409 87.6487 42.364 87.3383 42.364Z" fill="#CCCCCC"/>
<path d="M82.5109 56.0915H57.496C57.1856 56.0915 56.8879 55.9684 56.6685 55.7493C56.449 55.5302 56.3257 55.233 56.3257 54.9232C56.3257 54.6133 56.449 54.3162 56.6685 54.0971C56.8879 53.878 57.1856 53.7549 57.496 53.7549H82.5109C82.8213 53.7549 83.119 53.878 83.3384 54.0971C83.5579 54.3162 83.6812 54.6133 83.6812 54.9232C83.6812 55.233 83.5579 55.5302 83.3384 55.7493C83.119 55.9684 82.8213 56.0915 82.5109 56.0915Z" fill="#CCCCCC"/>
<path d="M87.3383 60.0349H57.496C57.1856 60.0349 56.8879 59.9118 56.6685 59.6927C56.449 59.4736 56.3257 59.1764 56.3257 58.8666C56.3257 58.5567 56.449 58.2595 56.6685 58.0404C56.8879 57.8213 57.1856 57.6982 57.496 57.6982H87.3383C87.6487 57.6982 87.9464 57.8213 88.1659 58.0404C88.3853 58.2595 88.5086 58.5567 88.5086 58.8666C88.5086 59.1764 88.3853 59.4736 88.1659 59.6927C87.9464 59.9118 87.6487 60.0349 87.3383 60.0349Z" fill="#CCCCCC"/>
<path d="M47.0792 25.6835C49.3636 25.6835 51.2155 23.8347 51.2155 21.5541C51.2155 19.2736 49.3636 17.4248 47.0792 17.4248C44.7948 17.4248 42.9429 19.2736 42.9429 21.5541C42.9429 23.8347 44.7948 25.6835 47.0792 25.6835Z" fill="#EDBA27"/>
<path d="M46.6693 23.1288C46.5762 23.129 46.4856 23.0989 46.4112 23.0432L46.4066 23.0398L45.4345 22.2974C45.3437 22.2278 45.2843 22.125 45.2693 22.0117C45.2544 21.8983 45.2851 21.7837 45.3548 21.693C45.4244 21.6023 45.5273 21.5429 45.6409 21.5278C45.7544 21.5128 45.8692 21.5434 45.9602 21.6129L46.5898 22.0949L48.0777 20.1571C48.1122 20.1122 48.1552 20.0745 48.2043 20.0461C48.2534 20.0178 48.3076 19.9994 48.3638 19.992C48.42 19.9846 48.4772 19.9883 48.5319 20.0029C48.5867 20.0176 48.6381 20.0428 48.6831 20.0773L48.674 20.0901L48.6835 20.0773C48.7743 20.147 48.8337 20.2498 48.8486 20.3631C48.8636 20.4764 48.8329 20.5911 48.7633 20.6819L47.0133 22.9601C46.9728 23.0126 46.9207 23.0551 46.8611 23.0843C46.8015 23.1134 46.736 23.1285 46.6697 23.1283L46.6693 23.1288Z" fill="white"/>
<path d="M47.5055 43.3534C49.7899 43.3534 51.6418 41.5046 51.6418 39.2241C51.6418 36.9435 49.7899 35.0947 47.5055 35.0947C45.221 35.0947 43.3691 36.9435 43.3691 39.2241C43.3691 41.5046 45.221 43.3534 47.5055 43.3534Z" fill="#CCCCCC"/>
<path d="M47.0792 61.0243C49.3636 61.0243 51.2155 59.1755 51.2155 56.895C51.2155 54.6144 49.3636 52.7656 47.0792 52.7656C44.7948 52.7656 42.9429 54.6144 42.9429 56.895C42.9429 59.1755 44.7948 61.0243 47.0792 61.0243Z" fill="#CCCCCC"/>
<path d="M100.014 8.91548H91.5105C90.8897 8.91548 90.2944 8.6693 89.8555 8.2311C89.4165 7.7929 89.1699 7.19858 89.1699 6.57887V0.309127C89.1699 0.281678 89.1777 0.254782 89.1923 0.231528C89.2069 0.208274 89.2278 0.189601 89.2525 0.177651C89.2773 0.165702 89.3049 0.160958 89.3322 0.163965C89.3596 0.166972 89.3855 0.177608 89.407 0.194653L100.105 8.65497C100.128 8.6738 100.146 8.69956 100.154 8.72867C100.163 8.75779 100.162 8.78882 100.152 8.81745C100.142 8.84609 100.123 8.87091 100.098 8.88848C100.074 8.90605 100.044 8.91548 100.014 8.91548Z" fill="#E6E6E6"/>
<path d="M42.4527 90.5186L9.94542 97.359C9.006 97.5556 8.02684 97.3721 7.22274 96.8489C6.41865 96.3256 5.8553 95.5053 5.65627 94.5679L0.0780789 68.1484C-0.11883 67.2106 0.064937 66.2331 0.589064 65.4304C1.11319 64.6276 1.93488 64.0652 2.87385 63.8666L35.3811 57.0262C36.3205 56.8296 37.2997 57.0131 38.1038 57.5363C38.9079 58.0596 39.4712 58.8798 39.6702 59.8172L45.2485 86.2367C45.4454 87.1745 45.2616 88.1521 44.7375 88.9548C44.2133 89.7575 43.3916 90.3199 42.4527 90.5186Z" fill="white"/>
<path d="M42.4527 90.5186L9.94542 97.359C9.006 97.5556 8.02684 97.3721 7.22274 96.8489C6.41865 96.3256 5.8553 95.5053 5.65627 94.5679L0.0780789 68.1484C-0.11883 67.2106 0.064937 66.2331 0.589064 65.4304C1.11319 64.6276 1.93488 64.0652 2.87385 63.8666L35.3811 57.0262C36.3205 56.8296 37.2997 57.0131 38.1038 57.5363C38.9079 58.0596 39.4712 58.8798 39.6702 59.8172L45.2485 86.2367C45.4454 87.1745 45.2616 88.1521 44.7375 88.9548C44.2133 89.7575 43.3916 90.3199 42.4527 90.5186ZM2.96169 64.2826C2.13319 64.4579 1.40818 64.9542 0.945716 65.6625C0.48325 66.3708 0.321099 67.2333 0.494836 68.0608L6.07303 94.4802C6.24865 95.3073 6.74573 96.0311 7.45522 96.4928C8.16471 96.9545 9.02868 97.1164 9.85757 96.9429L42.3648 90.1026C43.1933 89.9272 43.9183 89.431 44.3808 88.7227C44.8433 88.0144 45.0054 87.1519 44.8317 86.3244L39.2535 59.9049C39.0779 59.0778 38.5808 58.3541 37.8713 57.8924C37.1618 57.4307 36.2979 57.2688 35.469 57.4423L2.96169 64.2826Z" fill="#3F3D56"/>
<path d="M33.3618 65.7377L16.9558 69.19C16.8122 69.2232 16.6613 69.2008 16.5337 69.1273C16.406 69.0538 16.3111 68.9346 16.2681 68.7939C16.2484 68.7205 16.2439 68.6439 16.2549 68.5687C16.2658 68.4935 16.292 68.4214 16.3319 68.3566C16.3717 68.2919 16.4243 68.2359 16.4865 68.1922C16.5487 68.1484 16.6192 68.1177 16.6937 68.1021L33.394 64.5879C34.046 64.9547 33.8401 65.6371 33.3618 65.7377Z" fill="#CCCCCC"/>
<path d="M33.9682 68.6098L17.5622 72.062C17.4187 72.0953 17.2678 72.0729 17.1401 71.9994C17.0125 71.9259 16.9175 71.8067 16.8745 71.666C16.8548 71.5926 16.8503 71.5159 16.8613 71.4408C16.8723 71.3656 16.8985 71.2934 16.9383 71.2287C16.9781 71.1639 17.0308 71.108 17.093 71.0642C17.1552 71.0205 17.2257 70.9898 17.3001 70.9741L34.0004 67.46C34.6525 67.8268 34.4466 68.5091 33.9682 68.6098Z" fill="#CCCCCC"/>
<path d="M14.361 74.4449L9.35406 75.4985C9.19055 75.5327 9.0201 75.5008 8.88014 75.4097C8.74017 75.3186 8.64212 75.1758 8.60749 75.0126L7.36207 69.114C7.32777 68.9508 7.35975 68.7806 7.45098 68.6409C7.54221 68.5012 7.68525 68.4033 7.8487 68.3687L12.8556 67.3151C13.0192 67.281 13.1896 67.3129 13.3295 67.404C13.4695 67.495 13.5675 67.6378 13.6022 67.8009L14.8476 73.6996C14.8819 73.8628 14.85 74.033 14.7587 74.1727C14.6675 74.3124 14.5245 74.4103 14.361 74.4449Z" fill="#CCCCCC"/>
<path d="M35.1623 74.5024L10.1237 79.7712C9.98018 79.8044 9.82932 79.782 9.70166 79.7085C9.57399 79.635 9.47905 79.5158 9.43604 79.3751C9.41636 79.3017 9.41187 79.2251 9.42284 79.1499C9.43381 79.0747 9.46001 79.0026 9.49984 78.9378C9.53966 78.8731 9.59229 78.8171 9.65449 78.7734C9.7167 78.7296 9.78719 78.6989 9.86165 78.6833L35.1947 73.3525C35.8468 73.7194 35.6407 74.4018 35.1623 74.5024Z" fill="#CCCCCC"/>
<path d="M35.7692 77.3764L10.7307 82.6452C10.5871 82.6785 10.4362 82.6561 10.3086 82.5825C10.1809 82.509 10.086 82.3898 10.043 82.2491C10.0233 82.1757 10.0188 82.0991 10.0298 82.0239C10.0407 81.9487 10.0669 81.8766 10.1068 81.8118C10.1466 81.7471 10.1992 81.6911 10.2614 81.6474C10.3236 81.6036 10.3941 81.573 10.4686 81.5573L35.8016 76.2266C36.4537 76.5934 36.2476 77.2758 35.7692 77.3764Z" fill="#CCCCCC"/>
<path d="M36.3757 80.2475L11.3371 85.5163C11.1935 85.5496 11.0427 85.5272 10.915 85.4536C10.7874 85.3801 10.6924 85.2609 10.6494 85.1202C10.6297 85.0468 10.6253 84.9702 10.6362 84.895C10.6472 84.8198 10.6734 84.7477 10.7132 84.6829C10.753 84.6182 10.8057 84.5622 10.8679 84.5185C10.9301 84.4747 11.0006 84.4441 11.075 84.4284L36.4081 79.0977C37.0602 79.4645 36.854 80.1469 36.3757 80.2475Z" fill="#CCCCCC"/>
<path d="M36.9821 83.1215L11.9436 88.3903C11.8 88.4236 11.6491 88.4012 11.5215 88.3277C11.3938 88.2541 11.2989 88.1349 11.2559 87.9942C11.2362 87.9208 11.2317 87.8442 11.2427 87.769C11.2536 87.6939 11.2798 87.6217 11.3197 87.557C11.3595 87.4922 11.4121 87.4363 11.4743 87.3925C11.5365 87.3487 11.607 87.3181 11.6815 87.3024L37.0145 81.9717C37.6666 82.3385 37.4605 83.0209 36.9821 83.1215Z" fill="#CCCCCC"/>
<path d="M37.5885 85.9936L12.55 91.2624C12.4064 91.2956 12.2556 91.2732 12.1279 91.1997C12.0003 91.1262 11.9053 91.007 11.8623 90.8663C11.8426 90.7929 11.8381 90.7163 11.8491 90.6411C11.8601 90.5659 11.8863 90.4938 11.9261 90.429C11.9659 90.3643 12.0186 90.3083 12.0808 90.2646C12.143 90.2208 12.2135 90.1902 12.2879 90.1745L37.621 84.8438C38.273 85.2106 38.0669 85.893 37.5885 85.9936Z" fill="#CCCCCC"/>
<path d="M42.0083 72.8406C41.9514 72.9437 41.9028 73.051 41.8628 73.1617L31.6124 75.701L29.8292 73.8594L26.6934 76.1827L29.5328 79.7493C29.7622 80.0374 30.079 80.2435 30.4357 80.3366C30.7924 80.4296 31.1697 80.4047 31.511 80.2655L42.6336 75.7281C42.9992 75.9968 43.4381 76.148 43.8918 76.1616C44.3456 76.1751 44.7927 76.0505 45.1738 75.8042C45.5548 75.5579 45.8517 75.2016 46.025 74.7827C46.1983 74.3639 46.2397 73.9023 46.1438 73.4593C46.0479 73.0163 45.8191 72.613 45.488 72.303C45.1569 71.993 44.7391 71.791 44.2901 71.7239C43.8412 71.6567 43.3824 71.7276 42.9748 71.9271C42.5672 72.1266 42.2301 72.4452 42.0083 72.8406Z" fill="#A0616A"/>
<path d="M7.01992 95.4385C7.33948 95.3399 7.63352 95.1727 7.88132 94.9484C8.12912 94.7242 8.32466 94.4484 8.45416 94.1406C8.58366 93.8328 8.64398 93.5003 8.63086 93.1667C8.61774 92.833 8.5315 92.5063 8.37822 92.2096L15.4323 72.6362L10.5335 71.7695L5.13996 91.282C4.65765 91.5721 4.29868 92.0288 4.13109 92.5655C3.9635 93.1021 3.99893 93.6815 4.23066 94.1939C4.46239 94.7062 4.87432 95.1159 5.3884 95.3453C5.90248 95.5746 6.48299 95.6078 7.01992 95.4385Z" fill="#A0616A"/>
<path d="M14.5366 76.1102L9.69973 74.2571C9.56211 74.2043 9.43749 74.1226 9.33436 74.0175C9.23123 73.9123 9.15201 73.7862 9.1021 73.6478C9.05219 73.5093 9.03275 73.3617 9.04512 73.2151C9.05749 73.0684 9.10137 72.9262 9.17378 72.798L11.7112 68.3067C11.9855 67.6054 12.5271 67.0413 13.2174 66.738C13.9076 66.4347 14.6902 66.4171 15.3934 66.6889C16.0967 66.9607 16.6633 67.4998 16.9691 68.1881C17.2748 68.8763 17.2948 69.6574 17.0245 70.3603L15.9053 75.3771C15.8732 75.5207 15.8105 75.6558 15.7214 75.773C15.6323 75.8903 15.519 75.987 15.3891 76.0566C15.2592 76.1261 15.1158 76.1669 14.9687 76.1762C14.8216 76.1855 14.6742 76.163 14.5366 76.1102Z" fill="#EDBA27"/>
<path d="M25.454 132.186L28.0649 132.186L29.3069 122.133L25.4536 122.133L25.454 132.186Z" fill="#A0616A"/>
<path d="M24.7881 131.335L29.9297 131.335H29.9299C30.3602 131.335 30.7863 131.42 31.1839 131.584C31.5814 131.748 31.9426 131.989 32.2469 132.293C32.5512 132.597 32.7925 132.957 32.9572 133.354C33.1219 133.751 33.2066 134.176 33.2066 134.606V134.712L24.7882 134.713L24.7881 131.335Z" fill="#2F2E41"/>
<path d="M10.7597 132.186L13.3706 132.186L14.6125 122.133L10.7593 122.133L10.7597 132.186Z" fill="#A0616A"/>
<path d="M10.0938 131.335L15.2354 131.335H15.2356C15.6659 131.335 16.092 131.42 16.4895 131.584C16.8871 131.748 17.2483 131.989 17.5526 132.293C17.8568 132.597 18.0982 132.957 18.2629 133.354C18.4275 133.751 18.5123 134.176 18.5123 134.606V134.712L10.0939 134.713L10.0938 131.335Z" fill="#2F2E41"/>
<path d="M13.4967 128.14H10.1927C10.063 128.14 9.93467 128.114 9.81547 128.063C9.69626 128.012 9.58865 127.937 9.49916 127.843C9.40967 127.75 9.34016 127.639 9.29483 127.517C9.24951 127.396 9.2293 127.267 9.23545 127.138L10.8048 93.4765L10.9037 93.4738L26.8584 93.0586L29.9805 126.739C29.9925 126.865 29.9792 126.993 29.9415 127.114C29.9037 127.235 29.8422 127.347 29.7605 127.444C29.6789 127.542 29.5787 127.622 29.4658 127.68C29.3529 127.738 29.2295 127.773 29.1029 127.783L25.3918 128.079C25.1587 128.098 24.9268 128.031 24.7398 127.89C24.5529 127.75 24.4237 127.547 24.3766 127.318L19.6297 103.342C19.6168 103.269 19.5781 103.203 19.5207 103.156C19.4633 103.11 19.391 103.085 19.3169 103.087H19.3156C19.2412 103.085 19.1688 103.11 19.1115 103.158C19.0541 103.205 19.0157 103.271 19.0033 103.344L14.4369 127.368C14.3937 127.585 14.2764 127.781 14.105 127.922C13.9335 128.062 13.7186 128.139 13.4967 128.14Z" fill="#2F2E41"/>
<path d="M19.5488 63.455C22.4376 63.455 24.7793 61.1172 24.7793 58.2334C24.7793 55.3495 22.4376 53.0117 19.5488 53.0117C16.6601 53.0117 14.3184 55.3495 14.3184 58.2334C14.3184 61.1172 16.6601 63.455 19.5488 63.455Z" fill="#A0616A"/>
<path d="M17.7953 97.4212C15.3024 97.4212 12.7418 96.767 10.6191 94.8329C10.5061 94.7306 10.4189 94.6032 10.3645 94.461C10.3101 94.3188 10.2901 94.1658 10.3061 94.0144C10.5333 91.9765 11.6355 81.4539 11.0148 74.4249C10.8937 73.1119 11.0798 71.7889 11.5587 70.5601C12.0375 69.3313 12.7958 68.2304 13.7738 67.3443C14.7346 66.4603 15.8882 65.8112 17.1433 65.4484C18.3985 65.0856 19.7209 65.0189 21.0063 65.2537C21.0715 65.2653 21.1366 65.2775 21.2018 65.29C25.3893 66.0991 28.2988 69.968 27.9696 74.2895C27.4892 80.5952 27.0586 89.1245 27.7348 93.948C27.7628 94.1453 27.7283 94.3465 27.6361 94.5232C27.5438 94.7 27.3986 94.8436 27.2205 94.9338C25.6819 95.7098 21.8271 97.4212 17.7953 97.4212Z" fill="#EDBA27"/>
<path d="M24.6201 76.486C24.4973 76.4045 24.3937 76.2975 24.3161 76.1723C24.2386 76.0472 24.1891 75.9068 24.1708 75.7607L23.5336 70.6606C23.3313 69.9352 23.4254 69.1594 23.7952 68.5033C24.1649 67.8471 24.7803 67.364 25.5063 67.1601C26.2322 66.9561 27.0096 67.0478 27.6679 67.4152C28.3263 67.7825 28.8118 68.3954 29.0182 69.1196L31.1171 73.831C31.177 73.9655 31.2072 74.1113 31.2056 74.2584C31.2039 74.4056 31.1706 74.5506 31.1077 74.6838C31.0449 74.8169 30.954 74.9349 30.8414 75.0298C30.7287 75.1247 30.5969 75.1942 30.4549 75.2337L25.4637 76.6203C25.3217 76.6598 25.1728 76.6683 25.0272 76.6451C24.8816 76.6219 24.7427 76.5677 24.6201 76.486Z" fill="#EDBA27"/>
<path d="M17.7229 63.3812C17.2279 63.3903 16.7359 63.3015 16.2754 63.1197C16.0728 63.0418 15.8625 62.9777 15.6602 62.8997C13.8742 62.2108 12.6977 60.312 12.6556 58.401C12.6135 56.49 13.6048 54.6353 15.0767 53.4129C16.5487 52.1906 18.4553 51.5631 20.3645 51.4179C22.4209 51.2616 24.7366 51.7822 25.8857 53.492C26.1916 53.9471 26.4055 54.4992 26.2243 55.0487C26.17 55.2145 26.073 55.3632 25.9431 55.4799C25.4299 55.9357 24.9183 55.5929 24.3951 55.5627C23.6761 55.521 23.0302 56.1021 22.7981 56.7828C22.566 57.4635 22.6682 58.2128 22.8556 58.9071C22.9984 59.3249 23.0884 59.7588 23.1235 60.1988C23.1387 60.4195 23.0971 60.6403 23.0028 60.8404C22.9084 61.0406 22.7645 61.2133 22.5846 61.3423C22.1352 61.6135 21.5452 61.4565 21.0956 61.1858C20.646 60.9151 20.2575 60.5387 19.7719 60.3395C19.2862 60.1403 18.6338 60.1845 18.3511 60.6262C18.2613 60.7869 18.2005 60.9622 18.1715 61.1439C17.9181 62.2965 17.9763 62.2286 17.7229 63.3812Z" fill="#2F2E41"/>
<path d="M40.8172 135H0.355048C0.298568 135 0.244401 134.978 0.204464 134.938C0.164526 134.898 0.14209 134.844 0.14209 134.788C0.14209 134.731 0.164526 134.677 0.204464 134.637C0.244401 134.598 0.298568 134.575 0.355048 134.575H40.8172C40.8737 134.575 40.9278 134.598 40.9678 134.637C41.0077 134.677 41.0301 134.731 41.0301 134.788C41.0301 134.844 41.0077 134.898 40.9678 134.938C40.9278 134.978 40.8737 135 40.8172 135Z" fill="#CCCCCC"/>
<path d="M144.389 91.1258L115.414 107.351C114.576 107.819 113.587 107.936 112.663 107.676C111.739 107.417 110.956 106.802 110.485 105.967L97.2543 82.4183C96.7857 81.582 96.6685 80.5944 96.9284 79.672C97.1883 78.7495 97.8041 77.9677 98.6407 77.498L127.615 61.2731C128.453 60.8052 129.442 60.6882 130.366 60.9477C131.29 61.2072 132.073 61.8219 132.544 62.6571L145.775 86.2055C146.244 87.0418 146.361 88.0294 146.101 88.9519C145.841 89.8743 145.225 90.6561 144.389 91.1258Z" fill="white"/>
<path d="M144.389 91.1258L115.414 107.351C114.576 107.819 113.587 107.936 112.663 107.676C111.739 107.417 110.956 106.802 110.485 105.967L97.2543 82.4183C96.7857 81.582 96.6685 80.5944 96.9284 79.672C97.1883 78.7495 97.8041 77.9677 98.6407 77.498L127.615 61.2731C128.453 60.8052 129.442 60.6882 130.366 60.9477C131.29 61.2072 132.073 61.8219 132.544 62.6571L145.775 86.2055C146.244 87.0418 146.361 88.0294 146.101 88.9519C145.841 89.8743 145.225 90.6561 144.389 91.1258ZM98.8491 77.8689C98.1109 78.2833 97.5675 78.9732 97.3382 79.787C97.1089 80.6009 97.2123 81.4724 97.6258 82.2103L110.857 105.759C111.272 106.496 111.963 107.038 112.778 107.267C113.594 107.496 114.467 107.393 115.206 106.98L144.18 90.7549C144.918 90.3405 145.462 89.6507 145.691 88.8368C145.921 88.0229 145.817 87.1514 145.404 86.4135L132.172 62.8651C131.757 62.1282 131.066 61.5858 130.251 61.3568C129.436 61.1279 128.563 61.2311 127.824 61.6439L98.8491 77.8689Z" fill="#3F3D56"/>
<path d="M128.295 70.1889L113.672 78.3775C113.545 78.452 113.394 78.4757 113.25 78.4436C113.107 78.4115 112.98 78.3261 112.897 78.2046C112.856 78.1405 112.829 78.0687 112.817 77.9937C112.805 77.9186 112.808 77.842 112.827 77.7683C112.846 77.6946 112.879 77.6255 112.925 77.5652C112.972 77.5049 113.03 77.4546 113.096 77.4174L127.982 69.082C128.714 69.2376 128.721 69.9502 128.295 70.1889Z" fill="#CCCCCC"/>
<path d="M129.734 72.7495L115.111 80.938C114.984 81.0126 114.833 81.0362 114.689 81.0041C114.546 80.972 114.419 80.8866 114.336 80.7652C114.295 80.701 114.268 80.6292 114.256 80.5542C114.244 80.4792 114.247 80.4025 114.266 80.3288C114.285 80.2552 114.318 80.1861 114.364 80.1258C114.411 80.0654 114.469 80.0152 114.535 79.978L129.421 71.6426C130.153 71.7982 130.16 72.5107 129.734 72.7495Z" fill="#CCCCCC"/>
<path d="M112.769 84.1665L108.306 86.6655C108.16 86.747 107.988 86.7674 107.827 86.7222C107.666 86.677 107.53 86.57 107.448 86.4246L104.494 81.167C104.412 81.0215 104.392 80.8496 104.437 80.689C104.482 80.5285 104.59 80.3924 104.735 80.3106L109.198 77.8116C109.344 77.7302 109.516 77.7098 109.677 77.755C109.838 77.8001 109.974 77.9071 110.056 78.0525L113.01 83.3101C113.092 83.4556 113.112 83.6276 113.067 83.7881C113.022 83.9487 112.914 84.0847 112.769 84.1665Z" fill="#CCCCCC"/>
<path d="M132.637 78.0162L110.32 90.5134C110.193 90.5879 110.042 90.6116 109.898 90.5795C109.754 90.5474 109.628 90.462 109.545 90.3405C109.504 90.2764 109.477 90.2046 109.465 90.1296C109.453 90.0546 109.456 89.9779 109.475 89.9042C109.494 89.8306 109.527 89.7614 109.573 89.7011C109.62 89.6408 109.678 89.5905 109.744 89.5534L132.324 76.9092C133.056 77.0648 133.064 77.7774 132.637 78.0162Z" fill="#CCCCCC"/>
<path d="M134.076 80.5777L111.759 93.0749C111.632 93.1495 111.481 93.1731 111.337 93.141C111.193 93.1089 111.067 93.0235 110.984 92.9021C110.943 92.8379 110.916 92.7661 110.904 92.6911C110.892 92.6161 110.895 92.5394 110.914 92.4657C110.933 92.3921 110.966 92.323 111.012 92.2626C111.059 92.2023 111.117 92.152 111.183 92.1149L133.763 79.4707C134.495 79.6263 134.503 80.3389 134.076 80.5777Z" fill="#CCCCCC"/>
<path d="M135.514 83.1373L113.197 95.6345C113.07 95.709 112.919 95.7327 112.775 95.7006C112.631 95.6685 112.505 95.5831 112.422 95.4616C112.381 95.3975 112.354 95.3257 112.342 95.2507C112.33 95.1757 112.333 95.099 112.352 95.0253C112.371 94.9516 112.404 94.8825 112.45 94.8222C112.497 94.7619 112.555 94.7116 112.621 94.6745L135.201 82.0303C135.933 82.1859 135.941 82.8985 135.514 83.1373Z" fill="#CCCCCC"/>
<path d="M136.954 85.6988L114.636 98.196C114.509 98.2706 114.359 98.2942 114.215 98.2621C114.071 98.23 113.945 98.1446 113.861 98.0232C113.821 97.959 113.793 97.8872 113.781 97.8122C113.769 97.7372 113.773 97.6605 113.791 97.5868C113.81 97.5132 113.844 97.4441 113.89 97.3837C113.936 97.3234 113.994 97.2731 114.061 97.236L136.641 84.5918C137.373 84.7474 137.38 85.46 136.954 85.6988Z" fill="#CCCCCC"/>
<path d="M138.392 88.2584L116.074 100.756C115.947 100.83 115.797 100.854 115.653 100.822C115.509 100.79 115.383 100.704 115.299 100.583C115.259 100.519 115.231 100.447 115.219 100.372C115.207 100.297 115.211 100.22 115.229 100.146C115.248 100.073 115.282 100.004 115.328 99.9433C115.374 99.883 115.432 99.8327 115.499 99.7955L138.079 87.1514C138.811 87.3069 138.818 88.0196 138.392 88.2584Z" fill="#CCCCCC"/>
<path d="M134.498 97.8523C134.62 97.5846 134.681 97.2937 134.678 96.9999C134.675 96.7061 134.607 96.4166 134.479 96.1517C134.352 95.8869 134.168 95.6532 133.94 95.4671C133.712 95.281 133.446 95.147 133.161 95.0746L132.554 87.958L129.635 90.2568L130.659 96.6624C130.569 97.1488 130.661 97.6514 130.917 98.0748C131.173 98.4982 131.576 98.8131 132.049 98.9598C132.523 99.1064 133.033 99.0747 133.485 98.8706C133.936 98.6665 134.297 98.3041 134.498 97.8523Z" fill="#FFB8B8"/>
<path d="M132.609 94.3285L130.185 94.6171C130.062 94.6317 129.937 94.6208 129.818 94.5851C129.7 94.5493 129.589 94.4895 129.495 94.4093C129.4 94.3291 129.324 94.2303 129.269 94.1191C129.215 94.0078 129.184 93.8866 129.178 93.7629L128.825 85.5986L124.23 73.0668C124.046 72.6779 123.962 72.2493 123.985 71.8199C124.009 71.3904 124.14 70.9737 124.366 70.6076C124.479 70.4307 124.608 70.2646 124.751 70.1116C125.034 69.8075 125.386 69.5763 125.778 69.4375C126.17 69.2986 126.589 69.2564 127.001 69.3142C127.425 69.3706 127.829 69.5271 128.18 69.7707C128.531 70.0144 128.819 70.3381 129.02 70.7152L132.017 76.984C133.27 79.606 133.862 82.4944 133.741 85.3972L133.403 93.4733C133.394 93.6847 133.311 93.8861 133.168 94.0422C133.025 94.1984 132.831 94.2992 132.621 94.3269L132.609 94.3285Z" fill="#EDBA27"/>
<path d="M141.218 129.613L138.971 130.598L134.096 122.413L137.413 120.959L141.218 129.613Z" fill="#FFB8B8"/>
<path d="M142.748 131.537L135.501 134.713L135.461 134.622C135.298 134.252 135.21 133.854 135.202 133.45C135.193 133.046 135.265 132.645 135.412 132.268C135.559 131.892 135.778 131.548 136.058 131.257C136.338 130.965 136.673 130.732 137.043 130.57L141.47 128.63L142.748 131.537Z" fill="#2F2E41"/>
<path d="M111.045 132.337H108.59L107.422 122.886L111.045 122.886L111.045 132.337Z" fill="#FFB8B8"/>
<path d="M111.67 134.713L103.756 134.712V134.612C103.756 134.209 103.836 133.809 103.99 133.436C104.145 133.062 104.372 132.723 104.658 132.438C104.944 132.152 105.284 131.926 105.658 131.771C106.031 131.617 106.432 131.537 106.836 131.537L111.67 131.537L111.67 134.713Z" fill="#2F2E41"/>
<path d="M134.942 129.107L121.268 98.6452C121.244 98.5881 121.202 98.5401 121.149 98.5077C121.095 98.4754 121.034 98.4604 120.971 98.4648C120.909 98.4692 120.85 98.4928 120.802 98.5323C120.754 98.5718 120.719 98.6252 120.703 98.6852L112.372 128.108C112.317 128.313 112.19 128.493 112.014 128.614C111.838 128.735 111.625 128.789 111.413 128.767L106.863 128.313C106.628 128.288 106.413 128.173 106.262 127.992C106.111 127.812 106.036 127.579 106.054 127.345C107.501 109.375 109.782 92.4154 116.617 81.3131L116.653 81.2539L126.991 83.2776L140.793 127.152C140.861 127.378 140.838 127.622 140.728 127.831C140.619 128.04 140.431 128.198 140.207 128.272L136.045 129.607C135.832 129.676 135.6 129.663 135.396 129.571C135.192 129.478 135.03 129.313 134.942 129.107Z" fill="#2F2E41"/>
<path d="M121.65 65.7087C124.366 65.7087 126.567 63.5108 126.567 60.7997C126.567 58.0885 124.366 55.8906 121.65 55.8906C118.934 55.8906 116.732 58.0885 116.732 60.7997C116.732 63.5108 118.934 65.7087 121.65 65.7087Z" fill="#FFB8B8"/>
<path d="M115.981 82.1626L115.919 82.1498L115.904 82.0877C115.241 79.2951 115.226 76.2475 115.857 73.0299C116.177 71.3853 117.069 69.9063 118.374 68.8533C119.679 67.8004 121.315 67.241 122.993 67.2738C124.813 67.3107 126.551 68.0407 127.85 69.3145C129.149 70.5882 129.912 72.3095 129.982 74.126C130.193 79.6603 127.927 84.4584 127.904 84.5062L127.87 84.5765L115.981 82.1626Z" fill="#EDBA27"/>
<path d="M102.799 91.5017C103.091 91.4587 103.369 91.3526 103.614 91.1907C103.86 91.0287 104.067 90.8151 104.221 90.5646C104.375 90.3142 104.472 90.0331 104.505 89.7412C104.539 89.4492 104.507 89.1535 104.414 88.8749L110.078 84.5112L106.561 83.3066L101.722 87.6352C101.263 87.823 100.89 88.1722 100.672 88.6166C100.454 89.061 100.408 89.5696 100.54 90.0462C100.673 90.5228 100.977 90.9342 101.393 91.2025C101.809 91.4707 102.31 91.5772 102.799 91.5017Z" fill="#FFB8B8"/>
<path d="M105.893 88.2107C105.708 88.3195 105.491 88.3589 105.28 88.3217C105.069 88.2846 104.879 88.1734 104.743 88.0081L103.187 86.1301C103.108 86.0347 103.049 85.924 103.015 85.805C102.981 85.686 102.971 85.5612 102.988 85.4384C103.004 85.3157 103.046 85.1976 103.11 85.0916C103.174 84.9857 103.259 84.8941 103.361 84.8226L110.044 80.1042L118.108 69.4605C118.336 69.0953 118.651 68.7927 119.026 68.5801C119.4 68.3676 119.822 68.2517 120.253 68.2432C120.463 68.2419 120.672 68.2601 120.879 68.2977C121.288 68.3703 121.673 68.5407 122.002 68.7942C122.332 69.0477 122.594 69.3768 122.768 69.7536C122.951 70.1399 123.038 70.564 123.023 70.9907C123.008 71.4174 122.891 71.8344 122.682 72.207L116.712 81.8604L116.698 81.8815L105.893 88.2107Z" fill="#EDBA27"/>
<path d="M122.529 60.4948C122.167 59.8996 121.367 59.7315 120.673 59.7994C119.978 59.8673 119.303 60.1109 118.605 60.1055C116.668 60.0905 115.173 57.7334 115.987 55.9786C116.655 54.5395 118.323 53.9076 119.833 53.4116C122.997 52.3717 126.631 51.3725 129.503 53.0586C130.418 53.6119 131.168 54.3989 131.676 55.3385C132.185 56.2781 132.433 57.3362 132.395 58.4034C132.33 59.7304 131.821 61.0934 132.251 62.3505C132.748 63.8008 134.323 64.5789 135.811 64.9552C138.42 65.6151 141.171 65.5088 143.796 66.1006C146.421 66.6924 149.111 68.2637 149.819 70.8559C150.284 72.5586 149.799 74.3915 148.995 75.9636C148.176 77.5675 147.037 78.9875 145.649 80.1366C144.26 81.2858 142.651 82.1399 140.921 82.6467C139.19 83.1535 137.374 83.3022 135.584 83.0838C133.794 82.8654 132.067 82.2845 130.509 81.3766C127.336 79.5265 125.045 76.3999 123.679 72.9939C122.904 71.0071 122.359 68.9386 122.053 66.8286C121.747 64.8534 122.007 62.8573 122.561 60.9367C122.587 60.865 122.598 60.7885 122.593 60.7123C122.587 60.6362 122.565 60.562 122.529 60.4948Z" fill="#2F2E41"/>
<path d="M140.269 135H99.8067C99.7502 135 99.6961 134.978 99.6561 134.938C99.6162 134.898 99.5938 134.844 99.5938 134.788C99.5938 134.731 99.6162 134.677 99.6561 134.637C99.6961 134.598 99.7502 134.575 99.8067 134.575H140.269C140.325 134.575 140.379 134.598 140.419 134.637C140.459 134.677 140.482 134.731 140.482 134.788C140.482 134.844 140.459 134.898 140.419 134.938C140.379 134.978 140.325 135 140.269 135Z" fill="#CCCCCC"/>
</g>
<defs>
<clipPath id="clip0_4811_11094">
<rect width="150" height="135" fill="white"/>
</clipPath>
</defs>
</svg>
