<svg width="24" height="24" viewBox="0 0 24 24" fill="none" xmlns="http://www.w3.org/2000/svg">
<path d="M13.0002 18.7912V7.62123L17.8802 12.5012C18.2702 12.8912 18.9102 12.8912 19.3002 12.5012C19.6902 12.1112 19.6902 11.4812 19.3002 11.0912L12.7102 4.50123C12.5234 4.31397 12.2697 4.20874 12.0052 4.20874C11.7407 4.20874 11.487 4.31397 11.3002 4.50123L4.70021 11.0812C4.31021 11.4712 4.31021 12.1012 4.70021 12.4912C5.09021 12.8812 5.72021 12.8812 6.11021 12.4912L11.0002 7.62123V18.7912C11.0002 19.3412 11.4502 19.7912 12.0002 19.7912C12.5502 19.7912 13.0002 19.3412 13.0002 18.7912Z" fill="customColor"/>
</svg>
